ISO-10303-21;
HEADER;
/* Generated by software containing ST-Developer
 * from STEP Tools, Inc. (www.steptools.com) 
 */

FILE_DESCRIPTION(
/* description */ (''),
/* implementation_level */ '2;1');

FILE_NAME(
/* name */ 'lid.step',
/* time_stamp */ '2026-09-10T14:44:44+03:00',
/* author */ (''),
/* organization */ (''),
/* preprocessor_version */ 'ST-DEVELOPER v20.1',
/* originating_system */ 'Autodesk Translation Framework v15.8.0.0',
/* authorisation */ '');

FILE_SCHEMA (('AUTOMOTIVE_DESIGN { 1 0 10303 214 3 1 1 }'));
ENDSEC;

DATA;
#10=MECHANICAL_DESIGN_GEOMETRIC_PRESENTATION_REPRESENTATION('',(#13),#1471);
#11=SHAPE_REPRESENTATION_RELATIONSHIP('SRR','None',#1477,#12);
#12=ADVANCED_BREP_SHAPE_REPRESENTATION('',(#14),#1470);
#13=STYLED_ITEM('',(#1503),#14);
#14=MANIFOLD_SOLID_BREP('lid',#871);
#15=FACE_BOUND('',#110,.T.);
#16=FACE_BOUND('',#112,.T.);
#17=FACE_BOUND('',#117,.T.);
#18=FACE_BOUND('',#119,.T.);
#19=FACE_BOUND('',#127,.T.);
#20=ELLIPSE('',#881,22.2951526495886,4.99999999999998);
#21=ELLIPSE('',#893,22.2951526495886,4.99999999999998);
#22=PLANE('',#876);
#23=PLANE('',#879);
#24=PLANE('',#885);
#25=PLANE('',#887);
#26=PLANE('',#888);
#27=PLANE('',#889);
#28=PLANE('',#891);
#29=PLANE('',#892);
#30=PLANE('',#896);
#31=PLANE('',#899);
#32=PLANE('',#908);
#33=PLANE('',#909);
#34=PLANE('',#910);
#35=PLANE('',#917);
#36=PLANE('',#918);
#37=PLANE('',#919);
#38=PLANE('',#923);
#39=PLANE('',#927);
#40=PLANE('',#928);
#41=PLANE('',#937);
#42=PLANE('',#943);
#43=PLANE('',#946);
#44=PLANE('',#948);
#45=PLANE('',#950);
#46=PLANE('',#952);
#47=PLANE('',#953);
#48=FACE_OUTER_BOUND('',#91,.T.);
#49=FACE_OUTER_BOUND('',#92,.T.);
#50=FACE_OUTER_BOUND('',#93,.T.);
#51=FACE_OUTER_BOUND('',#94,.T.);
#52=FACE_OUTER_BOUND('',#95,.T.);
#53=FACE_OUTER_BOUND('',#96,.T.);
#54=FACE_OUTER_BOUND('',#97,.T.);
#55=FACE_OUTER_BOUND('',#98,.T.);
#56=FACE_OUTER_BOUND('',#99,.T.);
#57=FACE_OUTER_BOUND('',#100,.T.);
#58=FACE_OUTER_BOUND('',#101,.T.);
#59=FACE_OUTER_BOUND('',#102,.T.);
#60=FACE_OUTER_BOUND('',#103,.T.);
#61=FACE_OUTER_BOUND('',#104,.T.);
#62=FACE_OUTER_BOUND('',#105,.T.);
#63=FACE_OUTER_BOUND('',#106,.T.);
#64=FACE_OUTER_BOUND('',#107,.T.);
#65=FACE_OUTER_BOUND('',#108,.T.);
#66=FACE_OUTER_BOUND('',#109,.T.);
#67=FACE_OUTER_BOUND('',#111,.T.);
#68=FACE_OUTER_BOUND('',#113,.T.);
#69=FACE_OUTER_BOUND('',#114,.T.);
#70=FACE_OUTER_BOUND('',#115,.T.);
#71=FACE_OUTER_BOUND('',#116,.T.);
#72=FACE_OUTER_BOUND('',#118,.T.);
#73=FACE_OUTER_BOUND('',#120,.T.);
#74=FACE_OUTER_BOUND('',#121,.T.);
#75=FACE_OUTER_BOUND('',#122,.T.);
#76=FACE_OUTER_BOUND('',#123,.T.);
#77=FACE_OUTER_BOUND('',#124,.T.);
#78=FACE_OUTER_BOUND('',#125,.T.);
#79=FACE_OUTER_BOUND('',#126,.T.);
#80=FACE_OUTER_BOUND('',#128,.T.);
#81=FACE_OUTER_BOUND('',#129,.T.);
#82=FACE_OUTER_BOUND('',#130,.T.);
#83=FACE_OUTER_BOUND('',#131,.T.);
#84=FACE_OUTER_BOUND('',#132,.T.);
#85=FACE_OUTER_BOUND('',#133,.T.);
#86=FACE_OUTER_BOUND('',#134,.T.);
#87=FACE_OUTER_BOUND('',#135,.T.);
#88=FACE_OUTER_BOUND('',#136,.T.);
#89=FACE_OUTER_BOUND('',#137,.T.);
#90=FACE_OUTER_BOUND('',#138,.T.);
#91=EDGE_LOOP('',(#559,#560,#561,#562,#563,#564));
#92=EDGE_LOOP('',(#565,#566,#567,#568,#569,#570));
#93=EDGE_LOOP('',(#571,#572,#573,#574,#575,#576,#577,#578,#579));
#94=EDGE_LOOP('',(#580,#581,#582,#583,#584,#585,#586,#587,#588));
#95=EDGE_LOOP('',(#589,#590,#591,#592,#593,#594));
#96=EDGE_LOOP('',(#595,#596,#597,#598));
#97=EDGE_LOOP('',(#599,#600,#601,#602));
#98=EDGE_LOOP('',(#603,#604,#605,#606,#607,#608));
#99=EDGE_LOOP('',(#609,#610,#611,#612,#613,#614,#615,#616,#617));
#100=EDGE_LOOP('',(#618,#619,#620,#621));
#101=EDGE_LOOP('',(#622,#623,#624,#625,#626,#627,#628,#629,#630));
#102=EDGE_LOOP('',(#631,#632,#633,#634));
#103=EDGE_LOOP('',(#635,#636,#637,#638));
#104=EDGE_LOOP('',(#639,#640,#641,#642));
#105=EDGE_LOOP('',(#643,#644,#645,#646));
#106=EDGE_LOOP('',(#647,#648,#649,#650));
#107=EDGE_LOOP('',(#651,#652,#653,#654));
#108=EDGE_LOOP('',(#655,#656,#657,#658));
#109=EDGE_LOOP('',(#659,#660,#661,#662));
#110=EDGE_LOOP('',(#663));
#111=EDGE_LOOP('',(#664,#665,#666,#667));
#112=EDGE_LOOP('',(#668));
#113=EDGE_LOOP('',(#669,#670,#671,#672));
#114=EDGE_LOOP('',(#673,#674,#675,#676));
#115=EDGE_LOOP('',(#677,#678,#679,#680));
#116=EDGE_LOOP('',(#681,#682,#683,#684));
#117=EDGE_LOOP('',(#685));
#118=EDGE_LOOP('',(#686,#687,#688,#689));
#119=EDGE_LOOP('',(#690));
#120=EDGE_LOOP('',(#691,#692,#693,#694));
#121=EDGE_LOOP('',(#695,#696,#697,#698));
#122=EDGE_LOOP('',(#699,#700,#701,#702));
#123=EDGE_LOOP('',(#703,#704,#705,#706));
#124=EDGE_LOOP('',(#707,#708,#709,#710,#711,#712,#713,#714,#715,#716,#717,
#718,#719,#720,#721,#722));
#125=EDGE_LOOP('',(#723,#724,#725,#726));
#126=EDGE_LOOP('',(#727,#728,#729,#730,#731,#732,#733,#734,#735,#736,#737,
#738,#739,#740,#741,#742,#743,#744,#745,#746,#747,#748,#749,#750));
#127=EDGE_LOOP('',(#751,#752,#753,#754,#755,#756,#757,#758));
#128=EDGE_LOOP('',(#759,#760,#761,#762));
#129=EDGE_LOOP('',(#763,#764,#765,#766));
#130=EDGE_LOOP('',(#767,#768,#769,#770));
#131=EDGE_LOOP('',(#771,#772,#773,#774));
#132=EDGE_LOOP('',(#775,#776,#777,#778));
#133=EDGE_LOOP('',(#779,#780,#781,#782,#783,#784,#785,#786,#787,#788,#789,
#790));
#134=EDGE_LOOP('',(#791,#792,#793,#794));
#135=EDGE_LOOP('',(#795,#796,#797,#798));
#136=EDGE_LOOP('',(#799,#800,#801,#802));
#137=EDGE_LOOP('',(#803,#804,#805,#806));
#138=EDGE_LOOP('',(#807,#808,#809,#810));
#139=B_SPLINE_CURVE_WITH_KNOTS('',3,(#1214,#1215,#1216,#1217,#1218,#1219),
 .UNSPECIFIED.,.F.,.F.,(4,2,4),(0.891902818276757,1.08351051658495,1.19257711035913),
 .UNSPECIFIED.);
#140=B_SPLINE_CURVE_WITH_KNOTS('',3,(#1222,#1223,#1224,#1225,#1226,#1227),
 .UNSPECIFIED.,.F.,.F.,(4,2,4),(4.45170701135313,4.56077360512731,4.7523813034355),
 .UNSPECIFIED.);
#141=LINE('',#1210,#227);
#142=LINE('',#1221,#228);
#143=LINE('',#1230,#229);
#144=LINE('',#1234,#230);
#145=LINE('',#1237,#231);
#146=LINE('',#1240,#232);
#147=LINE('',#1242,#233);
#148=LINE('',#1244,#234);
#149=LINE('',#1246,#235);
#150=LINE('',#1248,#236);
#151=LINE('',#1250,#237);
#152=LINE('',#1251,#238);
#153=LINE('',#1256,#239);
#154=LINE('',#1261,#240);
#155=LINE('',#1268,#241);
#156=LINE('',#1269,#242);
#157=LINE('',#1270,#243);
#158=LINE('',#1273,#244);
#159=LINE('',#1274,#245);
#160=LINE('',#1277,#246);
#161=LINE('',#1278,#247);
#162=LINE('',#1282,#248);
#163=LINE('',#1285,#249);
#164=LINE('',#1287,#250);
#165=LINE('',#1288,#251);
#166=LINE('',#1289,#252);
#167=LINE('',#1293,#253);
#168=LINE('',#1297,#254);
#169=LINE('',#1301,#255);
#170=LINE('',#1302,#256);
#171=LINE('',#1303,#257);
#172=LINE('',#1307,#258);
#173=LINE('',#1314,#259);
#174=LINE('',#1321,#260);
#175=LINE('',#1324,#261);
#176=LINE('',#1327,#262);
#177=LINE('',#1329,#263);
#178=LINE('',#1330,#264);
#179=LINE('',#1333,#265);
#180=LINE('',#1334,#266);
#181=LINE('',#1337,#267);
#182=LINE('',#1338,#268);
#183=LINE('',#1343,#269);
#184=LINE('',#1350,#270);
#185=LINE('',#1353,#271);
#186=LINE('',#1356,#272);
#187=LINE('',#1358,#273);
#188=LINE('',#1359,#274);
#189=LINE('',#1362,#275);
#190=LINE('',#1363,#276);
#191=LINE('',#1366,#277);
#192=LINE('',#1367,#278);
#193=LINE('',#1373,#279);
#194=LINE('',#1376,#280);
#195=LINE('',#1379,#281);
#196=LINE('',#1381,#282);
#197=LINE('',#1382,#283);
#198=LINE('',#1388,#284);
#199=LINE('',#1391,#285);
#200=LINE('',#1394,#286);
#201=LINE('',#1396,#287);
#202=LINE('',#1397,#288);
#203=LINE('',#1399,#289);
#204=LINE('',#1403,#290);
#205=LINE('',#1407,#291);
#206=LINE('',#1411,#292);
#207=LINE('',#1415,#293);
#208=LINE('',#1419,#294);
#209=LINE('',#1423,#295);
#210=LINE('',#1427,#296);
#211=LINE('',#1431,#297);
#212=LINE('',#1435,#298);
#213=LINE('',#1438,#299);
#214=LINE('',#1439,#300);
#215=LINE('',#1441,#301);
#216=LINE('',#1445,#302);
#217=LINE('',#1447,#303);
#218=LINE('',#1449,#304);
#219=LINE('',#1451,#305);
#220=LINE('',#1453,#306);
#221=LINE('',#1454,#307);
#222=LINE('',#1456,#308);
#223=LINE('',#1458,#309);
#224=LINE('',#1460,#310);
#225=LINE('',#1462,#311);
#226=LINE('',#1464,#312);
#227=VECTOR('',#960,10.);
#228=VECTOR('',#963,10.);
#229=VECTOR('',#966,10.);
#230=VECTOR('',#969,10.);
#231=VECTOR('',#972,10.);
#232=VECTOR('',#975,10.);
#233=VECTOR('',#976,10.);
#234=VECTOR('',#977,10.);
#235=VECTOR('',#978,10.);
#236=VECTOR('',#979,10.);
#237=VECTOR('',#980,10.);
#238=VECTOR('',#981,10.);
#239=VECTOR('',#986,10.);
#240=VECTOR('',#991,10.);
#241=VECTOR('',#998,10.);
#242=VECTOR('',#999,10.);
#243=VECTOR('',#1000,10.);
#244=VECTOR('',#1003,10.);
#245=VECTOR('',#1004,10.);
#246=VECTOR('',#1007,10.);
#247=VECTOR('',#1008,10.);
#248=VECTOR('',#1013,10.);
#249=VECTOR('',#1016,10.);
#250=VECTOR('',#1017,10.);
#251=VECTOR('',#1018,10.);
#252=VECTOR('',#1019,10.);
#253=VECTOR('',#1024,10.);
#254=VECTOR('',#1029,10.);
#255=VECTOR('',#1032,10.);
#256=VECTOR('',#1033,10.);
#257=VECTOR('',#1034,10.);
#258=VECTOR('',#1041,10.);
#259=VECTOR('',#1050,1.2);
#260=VECTOR('',#1057,10.);
#261=VECTOR('',#1060,10.);
#262=VECTOR('',#1063,10.);
#263=VECTOR('',#1064,10.);
#264=VECTOR('',#1065,10.);
#265=VECTOR('',#1068,10.);
#266=VECTOR('',#1069,10.);
#267=VECTOR('',#1072,10.);
#268=VECTOR('',#1073,10.);
#269=VECTOR('',#1078,1.2);
#270=VECTOR('',#1085,10.);
#271=VECTOR('',#1088,10.);
#272=VECTOR('',#1091,10.);
#273=VECTOR('',#1092,10.);
#274=VECTOR('',#1093,10.);
#275=VECTOR('',#1096,10.);
#276=VECTOR('',#1097,10.);
#277=VECTOR('',#1100,10.);
#278=VECTOR('',#1101,10.);
#279=VECTOR('',#1106,10.);
#280=VECTOR('',#1109,10.);
#281=VECTOR('',#1112,10.);
#282=VECTOR('',#1113,10.);
#283=VECTOR('',#1114,10.);
#284=VECTOR('',#1119,10.);
#285=VECTOR('',#1122,10.);
#286=VECTOR('',#1125,10.);
#287=VECTOR('',#1126,10.);
#288=VECTOR('',#1127,10.);
#289=VECTOR('',#1130,10.);
#290=VECTOR('',#1133,10.);
#291=VECTOR('',#1136,10.);
#292=VECTOR('',#1139,10.);
#293=VECTOR('',#1142,10.);
#294=VECTOR('',#1145,10.);
#295=VECTOR('',#1150,10.);
#296=VECTOR('',#1155,10.);
#297=VECTOR('',#1158,10.);
#298=VECTOR('',#1161,10.);
#299=VECTOR('',#1164,10.);
#300=VECTOR('',#1165,10.);
#301=VECTOR('',#1166,10.);
#302=VECTOR('',#1169,10.);
#303=VECTOR('',#1172,10.);
#304=VECTOR('',#1175,10.);
#305=VECTOR('',#1178,10.);
#306=VECTOR('',#1181,10.);
#307=VECTOR('',#1182,10.);
#308=VECTOR('',#1185,10.);
#309=VECTOR('',#1188,10.);
#310=VECTOR('',#1191,10.);
#311=VECTOR('',#1194,10.);
#312=VECTOR('',#1197,10.);
#313=CIRCLE('',#874,10.);
#314=CIRCLE('',#875,10.);
#315=CIRCLE('',#877,4.99999999999998);
#316=CIRCLE('',#878,4.99999999999998);
#317=CIRCLE('',#882,4.99999999999998);
#318=CIRCLE('',#883,4.99999999999998);
#319=CIRCLE('',#884,4.99999999999998);
#320=CIRCLE('',#886,4.99999999999998);
#321=CIRCLE('',#890,4.99999999999998);
#322=CIRCLE('',#895,4.99999999999998);
#323=CIRCLE('',#898,4.99999999999998);
#324=CIRCLE('',#901,4.99999999999998);
#325=CIRCLE('',#903,1.2);
#326=CIRCLE('',#904,1.2);
#327=CIRCLE('',#906,2.);
#328=CIRCLE('',#907,2.);
#329=CIRCLE('',#912,1.2);
#330=CIRCLE('',#913,1.2);
#331=CIRCLE('',#915,2.);
#332=CIRCLE('',#916,2.);
#333=CIRCLE('',#921,7.5);
#334=CIRCLE('',#922,7.5);
#335=CIRCLE('',#925,7.5);
#336=CIRCLE('',#926,7.5);
#337=CIRCLE('',#929,5.);
#338=CIRCLE('',#930,5.);
#339=CIRCLE('',#931,5.);
#340=CIRCLE('',#932,5.);
#341=CIRCLE('',#933,7.5);
#342=CIRCLE('',#934,7.5);
#343=CIRCLE('',#936,7.5);
#344=CIRCLE('',#938,7.5);
#345=CIRCLE('',#939,5.);
#346=CIRCLE('',#940,5.);
#347=CIRCLE('',#941,5.);
#348=CIRCLE('',#942,5.);
#349=VERTEX_POINT('',#1206);
#350=VERTEX_POINT('',#1207);
#351=VERTEX_POINT('',#1209);
#352=VERTEX_POINT('',#1211);
#353=VERTEX_POINT('',#1213);
#354=VERTEX_POINT('',#1220);
#355=VERTEX_POINT('',#1229);
#356=VERTEX_POINT('',#1231);
#357=VERTEX_POINT('',#1233);
#358=VERTEX_POINT('',#1235);
#359=VERTEX_POINT('',#1239);
#360=VERTEX_POINT('',#1241);
#361=VERTEX_POINT('',#1243);
#362=VERTEX_POINT('',#1245);
#363=VERTEX_POINT('',#1247);
#364=VERTEX_POINT('',#1249);
#365=VERTEX_POINT('',#1253);
#366=VERTEX_POINT('',#1255);
#367=VERTEX_POINT('',#1258);
#368=VERTEX_POINT('',#1260);
#369=VERTEX_POINT('',#1264);
#370=VERTEX_POINT('',#1265);
#371=VERTEX_POINT('',#1267);
#372=VERTEX_POINT('',#1272);
#373=VERTEX_POINT('',#1276);
#374=VERTEX_POINT('',#1280);
#375=VERTEX_POINT('',#1284);
#376=VERTEX_POINT('',#1286);
#377=VERTEX_POINT('',#1291);
#378=VERTEX_POINT('',#1295);
#379=VERTEX_POINT('',#1299);
#380=VERTEX_POINT('',#1300);
#381=VERTEX_POINT('',#1311);
#382=VERTEX_POINT('',#1313);
#383=VERTEX_POINT('',#1317);
#384=VERTEX_POINT('',#1318);
#385=VERTEX_POINT('',#1320);
#386=VERTEX_POINT('',#1322);
#387=VERTEX_POINT('',#1326);
#388=VERTEX_POINT('',#1328);
#389=VERTEX_POINT('',#1332);
#390=VERTEX_POINT('',#1336);
#391=VERTEX_POINT('',#1340);
#392=VERTEX_POINT('',#1342);
#393=VERTEX_POINT('',#1346);
#394=VERTEX_POINT('',#1347);
#395=VERTEX_POINT('',#1349);
#396=VERTEX_POINT('',#1351);
#397=VERTEX_POINT('',#1355);
#398=VERTEX_POINT('',#1357);
#399=VERTEX_POINT('',#1361);
#400=VERTEX_POINT('',#1365);
#401=VERTEX_POINT('',#1369);
#402=VERTEX_POINT('',#1370);
#403=VERTEX_POINT('',#1372);
#404=VERTEX_POINT('',#1374);
#405=VERTEX_POINT('',#1378);
#406=VERTEX_POINT('',#1380);
#407=VERTEX_POINT('',#1384);
#408=VERTEX_POINT('',#1385);
#409=VERTEX_POINT('',#1387);
#410=VERTEX_POINT('',#1389);
#411=VERTEX_POINT('',#1393);
#412=VERTEX_POINT('',#1395);
#413=VERTEX_POINT('',#1400);
#414=VERTEX_POINT('',#1402);
#415=VERTEX_POINT('',#1404);
#416=VERTEX_POINT('',#1406);
#417=VERTEX_POINT('',#1408);
#418=VERTEX_POINT('',#1410);
#419=VERTEX_POINT('',#1412);
#420=VERTEX_POINT('',#1414);
#421=VERTEX_POINT('',#1416);
#422=VERTEX_POINT('',#1418);
#423=VERTEX_POINT('',#1422);
#424=VERTEX_POINT('',#1426);
#425=VERTEX_POINT('',#1428);
#426=VERTEX_POINT('',#1430);
#427=VERTEX_POINT('',#1432);
#428=VERTEX_POINT('',#1434);
#429=VERTEX_POINT('',#1436);
#430=VERTEX_POINT('',#1440);
#431=VERTEX_POINT('',#1442);
#432=VERTEX_POINT('',#1444);
#433=EDGE_CURVE('',#349,#350,#313,.T.);
#434=EDGE_CURVE('',#350,#351,#141,.T.);
#435=EDGE_CURVE('',#351,#352,#314,.T.);
#436=EDGE_CURVE('',#352,#353,#139,.T.);
#437=EDGE_CURVE('',#353,#354,#142,.T.);
#438=EDGE_CURVE('',#354,#349,#140,.T.);
#439=EDGE_CURVE('',#350,#355,#143,.T.);
#440=EDGE_CURVE('',#355,#356,#315,.T.);
#441=EDGE_CURVE('',#356,#357,#144,.T.);
#442=EDGE_CURVE('',#357,#358,#316,.T.);
#443=EDGE_CURVE('',#358,#351,#145,.T.);
#444=EDGE_CURVE('',#359,#349,#146,.T.);
#445=EDGE_CURVE('',#359,#360,#147,.T.);
#446=EDGE_CURVE('',#360,#361,#148,.T.);
#447=EDGE_CURVE('',#361,#362,#149,.T.);
#448=EDGE_CURVE('',#363,#362,#150,.T.);
#449=EDGE_CURVE('',#364,#363,#151,.T.);
#450=EDGE_CURVE('',#364,#355,#152,.T.);
#451=EDGE_CURVE('',#354,#365,#20,.T.);
#452=EDGE_CURVE('',#366,#365,#153,.T.);
#453=EDGE_CURVE('',#363,#366,#317,.T.);
#454=EDGE_CURVE('',#362,#367,#318,.T.);
#455=EDGE_CURVE('',#367,#368,#154,.T.);
#456=EDGE_CURVE('',#368,#359,#319,.T.);
#457=EDGE_CURVE('',#369,#370,#320,.T.);
#458=EDGE_CURVE('',#371,#369,#155,.T.);
#459=EDGE_CURVE('',#371,#360,#156,.T.);
#460=EDGE_CURVE('',#370,#368,#157,.T.);
#461=EDGE_CURVE('',#370,#372,#158,.T.);
#462=EDGE_CURVE('',#372,#367,#159,.T.);
#463=EDGE_CURVE('',#373,#371,#160,.T.);
#464=EDGE_CURVE('',#373,#361,#161,.T.);
#465=EDGE_CURVE('',#372,#374,#321,.T.);
#466=EDGE_CURVE('',#374,#373,#162,.T.);
#467=EDGE_CURVE('',#375,#358,#163,.T.);
#468=EDGE_CURVE('',#376,#375,#164,.T.);
#469=EDGE_CURVE('',#376,#374,#165,.T.);
#470=EDGE_CURVE('',#369,#352,#166,.T.);
#471=EDGE_CURVE('',#377,#353,#21,.T.);
#472=EDGE_CURVE('',#365,#377,#167,.T.);
#473=EDGE_CURVE('',#378,#376,#322,.T.);
#474=EDGE_CURVE('',#378,#377,#168,.T.);
#475=EDGE_CURVE('',#379,#380,#169,.T.);
#476=EDGE_CURVE('',#379,#357,#170,.T.);
#477=EDGE_CURVE('',#380,#356,#171,.T.);
#478=EDGE_CURVE('',#380,#364,#323,.T.);
#479=EDGE_CURVE('',#366,#378,#172,.T.);
#480=EDGE_CURVE('',#375,#379,#324,.T.);
#481=EDGE_CURVE('',#381,#381,#325,.T.);
#482=EDGE_CURVE('',#381,#382,#173,.T.);
#483=EDGE_CURVE('',#382,#382,#326,.T.);
#484=EDGE_CURVE('',#383,#384,#327,.T.);
#485=EDGE_CURVE('',#384,#385,#174,.T.);
#486=EDGE_CURVE('',#385,#386,#328,.T.);
#487=EDGE_CURVE('',#383,#386,#175,.T.);
#488=EDGE_CURVE('',#384,#387,#176,.T.);
#489=EDGE_CURVE('',#388,#387,#177,.T.);
#490=EDGE_CURVE('',#388,#385,#178,.T.);
#491=EDGE_CURVE('',#389,#383,#179,.T.);
#492=EDGE_CURVE('',#387,#389,#180,.T.);
#493=EDGE_CURVE('',#390,#388,#181,.T.);
#494=EDGE_CURVE('',#386,#390,#182,.T.);
#495=EDGE_CURVE('',#391,#391,#329,.T.);
#496=EDGE_CURVE('',#391,#392,#183,.T.);
#497=EDGE_CURVE('',#392,#392,#330,.T.);
#498=EDGE_CURVE('',#393,#394,#331,.T.);
#499=EDGE_CURVE('',#393,#395,#184,.T.);
#500=EDGE_CURVE('',#396,#395,#332,.T.);
#501=EDGE_CURVE('',#394,#396,#185,.T.);
#502=EDGE_CURVE('',#394,#397,#186,.T.);
#503=EDGE_CURVE('',#398,#396,#187,.T.);
#504=EDGE_CURVE('',#397,#398,#188,.T.);
#505=EDGE_CURVE('',#399,#397,#189,.T.);
#506=EDGE_CURVE('',#399,#393,#190,.T.);
#507=EDGE_CURVE('',#395,#400,#191,.T.);
#508=EDGE_CURVE('',#398,#400,#192,.T.);
#509=EDGE_CURVE('',#401,#402,#333,.T.);
#510=EDGE_CURVE('',#402,#403,#193,.T.);
#511=EDGE_CURVE('',#403,#404,#334,.T.);
#512=EDGE_CURVE('',#404,#401,#194,.T.);
#513=EDGE_CURVE('',#405,#402,#195,.T.);
#514=EDGE_CURVE('',#406,#405,#196,.T.);
#515=EDGE_CURVE('',#403,#406,#197,.T.);
#516=EDGE_CURVE('',#407,#408,#335,.T.);
#517=EDGE_CURVE('',#408,#409,#198,.T.);
#518=EDGE_CURVE('',#409,#410,#336,.T.);
#519=EDGE_CURVE('',#410,#407,#199,.T.);
#520=EDGE_CURVE('',#411,#408,#200,.T.);
#521=EDGE_CURVE('',#412,#411,#201,.T.);
#522=EDGE_CURVE('',#409,#412,#202,.T.);
#523=EDGE_CURVE('',#407,#404,#203,.T.);
#524=EDGE_CURVE('',#413,#406,#337,.T.);
#525=EDGE_CURVE('',#413,#414,#204,.T.);
#526=EDGE_CURVE('',#415,#414,#338,.T.);
#527=EDGE_CURVE('',#415,#416,#205,.T.);
#528=EDGE_CURVE('',#417,#416,#339,.T.);
#529=EDGE_CURVE('',#417,#418,#206,.T.);
#530=EDGE_CURVE('',#419,#418,#340,.T.);
#531=EDGE_CURVE('',#419,#420,#207,.T.);
#532=EDGE_CURVE('',#421,#420,#341,.T.);
#533=EDGE_CURVE('',#421,#422,#208,.T.);
#534=EDGE_CURVE('',#411,#422,#342,.T.);
#535=EDGE_CURVE('',#422,#423,#209,.T.);
#536=EDGE_CURVE('',#423,#412,#343,.T.);
#537=EDGE_CURVE('',#423,#424,#210,.T.);
#538=EDGE_CURVE('',#425,#424,#344,.T.);
#539=EDGE_CURVE('',#425,#426,#211,.T.);
#540=EDGE_CURVE('',#427,#426,#345,.T.);
#541=EDGE_CURVE('',#427,#428,#212,.T.);
#542=EDGE_CURVE('',#429,#428,#346,.T.);
#543=EDGE_CURVE('',#429,#389,#213,.T.);
#544=EDGE_CURVE('',#390,#400,#214,.T.);
#545=EDGE_CURVE('',#399,#430,#215,.T.);
#546=EDGE_CURVE('',#431,#430,#347,.T.);
#547=EDGE_CURVE('',#431,#432,#216,.T.);
#548=EDGE_CURVE('',#405,#432,#348,.T.);
#549=EDGE_CURVE('',#401,#410,#217,.T.);
#550=EDGE_CURVE('',#424,#421,#218,.T.);
#551=EDGE_CURVE('',#420,#425,#219,.T.);
#552=EDGE_CURVE('',#418,#427,#220,.T.);
#553=EDGE_CURVE('',#426,#419,#221,.T.);
#554=EDGE_CURVE('',#428,#417,#222,.T.);
#555=EDGE_CURVE('',#416,#429,#223,.T.);
#556=EDGE_CURVE('',#430,#415,#224,.T.);
#557=EDGE_CURVE('',#414,#431,#225,.T.);
#558=EDGE_CURVE('',#432,#413,#226,.T.);
#559=ORIENTED_EDGE('',*,*,#433,.T.);
#560=ORIENTED_EDGE('',*,*,#434,.T.);
#561=ORIENTED_EDGE('',*,*,#435,.T.);
#562=ORIENTED_EDGE('',*,*,#436,.T.);
#563=ORIENTED_EDGE('',*,*,#437,.T.);
#564=ORIENTED_EDGE('',*,*,#438,.T.);
#565=ORIENTED_EDGE('',*,*,#434,.F.);
#566=ORIENTED_EDGE('',*,*,#439,.T.);
#567=ORIENTED_EDGE('',*,*,#440,.T.);
#568=ORIENTED_EDGE('',*,*,#441,.T.);
#569=ORIENTED_EDGE('',*,*,#442,.T.);
#570=ORIENTED_EDGE('',*,*,#443,.T.);
#571=ORIENTED_EDGE('',*,*,#433,.F.);
#572=ORIENTED_EDGE('',*,*,#444,.F.);
#573=ORIENTED_EDGE('',*,*,#445,.T.);
#574=ORIENTED_EDGE('',*,*,#446,.T.);
#575=ORIENTED_EDGE('',*,*,#447,.T.);
#576=ORIENTED_EDGE('',*,*,#448,.F.);
#577=ORIENTED_EDGE('',*,*,#449,.F.);
#578=ORIENTED_EDGE('',*,*,#450,.T.);
#579=ORIENTED_EDGE('',*,*,#439,.F.);
#580=ORIENTED_EDGE('',*,*,#438,.F.);
#581=ORIENTED_EDGE('',*,*,#451,.T.);
#582=ORIENTED_EDGE('',*,*,#452,.F.);
#583=ORIENTED_EDGE('',*,*,#453,.F.);
#584=ORIENTED_EDGE('',*,*,#448,.T.);
#585=ORIENTED_EDGE('',*,*,#454,.T.);
#586=ORIENTED_EDGE('',*,*,#455,.T.);
#587=ORIENTED_EDGE('',*,*,#456,.T.);
#588=ORIENTED_EDGE('',*,*,#444,.T.);
#589=ORIENTED_EDGE('',*,*,#457,.F.);
#590=ORIENTED_EDGE('',*,*,#458,.F.);
#591=ORIENTED_EDGE('',*,*,#459,.T.);
#592=ORIENTED_EDGE('',*,*,#445,.F.);
#593=ORIENTED_EDGE('',*,*,#456,.F.);
#594=ORIENTED_EDGE('',*,*,#460,.F.);
#595=ORIENTED_EDGE('',*,*,#461,.F.);
#596=ORIENTED_EDGE('',*,*,#460,.T.);
#597=ORIENTED_EDGE('',*,*,#455,.F.);
#598=ORIENTED_EDGE('',*,*,#462,.F.);
#599=ORIENTED_EDGE('',*,*,#446,.F.);
#600=ORIENTED_EDGE('',*,*,#459,.F.);
#601=ORIENTED_EDGE('',*,*,#463,.F.);
#602=ORIENTED_EDGE('',*,*,#464,.T.);
#603=ORIENTED_EDGE('',*,*,#465,.F.);
#604=ORIENTED_EDGE('',*,*,#462,.T.);
#605=ORIENTED_EDGE('',*,*,#454,.F.);
#606=ORIENTED_EDGE('',*,*,#447,.F.);
#607=ORIENTED_EDGE('',*,*,#464,.F.);
#608=ORIENTED_EDGE('',*,*,#466,.F.);
#609=ORIENTED_EDGE('',*,*,#435,.F.);
#610=ORIENTED_EDGE('',*,*,#443,.F.);
#611=ORIENTED_EDGE('',*,*,#467,.F.);
#612=ORIENTED_EDGE('',*,*,#468,.F.);
#613=ORIENTED_EDGE('',*,*,#469,.T.);
#614=ORIENTED_EDGE('',*,*,#466,.T.);
#615=ORIENTED_EDGE('',*,*,#463,.T.);
#616=ORIENTED_EDGE('',*,*,#458,.T.);
#617=ORIENTED_EDGE('',*,*,#470,.T.);
#618=ORIENTED_EDGE('',*,*,#437,.F.);
#619=ORIENTED_EDGE('',*,*,#471,.F.);
#620=ORIENTED_EDGE('',*,*,#472,.F.);
#621=ORIENTED_EDGE('',*,*,#451,.F.);
#622=ORIENTED_EDGE('',*,*,#436,.F.);
#623=ORIENTED_EDGE('',*,*,#470,.F.);
#624=ORIENTED_EDGE('',*,*,#457,.T.);
#625=ORIENTED_EDGE('',*,*,#461,.T.);
#626=ORIENTED_EDGE('',*,*,#465,.T.);
#627=ORIENTED_EDGE('',*,*,#469,.F.);
#628=ORIENTED_EDGE('',*,*,#473,.F.);
#629=ORIENTED_EDGE('',*,*,#474,.T.);
#630=ORIENTED_EDGE('',*,*,#471,.T.);
#631=ORIENTED_EDGE('',*,*,#475,.F.);
#632=ORIENTED_EDGE('',*,*,#476,.T.);
#633=ORIENTED_EDGE('',*,*,#441,.F.);
#634=ORIENTED_EDGE('',*,*,#477,.F.);
#635=ORIENTED_EDGE('',*,*,#478,.F.);
#636=ORIENTED_EDGE('',*,*,#477,.T.);
#637=ORIENTED_EDGE('',*,*,#440,.F.);
#638=ORIENTED_EDGE('',*,*,#450,.F.);
#639=ORIENTED_EDGE('',*,*,#472,.T.);
#640=ORIENTED_EDGE('',*,*,#474,.F.);
#641=ORIENTED_EDGE('',*,*,#479,.F.);
#642=ORIENTED_EDGE('',*,*,#452,.T.);
#643=ORIENTED_EDGE('',*,*,#480,.F.);
#644=ORIENTED_EDGE('',*,*,#467,.T.);
#645=ORIENTED_EDGE('',*,*,#442,.F.);
#646=ORIENTED_EDGE('',*,*,#476,.F.);
#647=ORIENTED_EDGE('',*,*,#481,.T.);
#648=ORIENTED_EDGE('',*,*,#482,.T.);
#649=ORIENTED_EDGE('',*,*,#483,.T.);
#650=ORIENTED_EDGE('',*,*,#482,.F.);
#651=ORIENTED_EDGE('',*,*,#484,.T.);
#652=ORIENTED_EDGE('',*,*,#485,.T.);
#653=ORIENTED_EDGE('',*,*,#486,.T.);
#654=ORIENTED_EDGE('',*,*,#487,.F.);
#655=ORIENTED_EDGE('',*,*,#488,.T.);
#656=ORIENTED_EDGE('',*,*,#489,.F.);
#657=ORIENTED_EDGE('',*,*,#490,.T.);
#658=ORIENTED_EDGE('',*,*,#485,.F.);
#659=ORIENTED_EDGE('',*,*,#488,.F.);
#660=ORIENTED_EDGE('',*,*,#484,.F.);
#661=ORIENTED_EDGE('',*,*,#491,.F.);
#662=ORIENTED_EDGE('',*,*,#492,.F.);
#663=ORIENTED_EDGE('',*,*,#483,.F.);
#664=ORIENTED_EDGE('',*,*,#490,.F.);
#665=ORIENTED_EDGE('',*,*,#493,.F.);
#666=ORIENTED_EDGE('',*,*,#494,.F.);
#667=ORIENTED_EDGE('',*,*,#486,.F.);
#668=ORIENTED_EDGE('',*,*,#481,.F.);
#669=ORIENTED_EDGE('',*,*,#495,.F.);
#670=ORIENTED_EDGE('',*,*,#496,.T.);
#671=ORIENTED_EDGE('',*,*,#497,.F.);
#672=ORIENTED_EDGE('',*,*,#496,.F.);
#673=ORIENTED_EDGE('',*,*,#498,.F.);
#674=ORIENTED_EDGE('',*,*,#499,.T.);
#675=ORIENTED_EDGE('',*,*,#500,.F.);
#676=ORIENTED_EDGE('',*,*,#501,.F.);
#677=ORIENTED_EDGE('',*,*,#502,.F.);
#678=ORIENTED_EDGE('',*,*,#501,.T.);
#679=ORIENTED_EDGE('',*,*,#503,.F.);
#680=ORIENTED_EDGE('',*,*,#504,.F.);
#681=ORIENTED_EDGE('',*,*,#502,.T.);
#682=ORIENTED_EDGE('',*,*,#505,.F.);
#683=ORIENTED_EDGE('',*,*,#506,.T.);
#684=ORIENTED_EDGE('',*,*,#498,.T.);
#685=ORIENTED_EDGE('',*,*,#497,.T.);
#686=ORIENTED_EDGE('',*,*,#503,.T.);
#687=ORIENTED_EDGE('',*,*,#500,.T.);
#688=ORIENTED_EDGE('',*,*,#507,.T.);
#689=ORIENTED_EDGE('',*,*,#508,.F.);
#690=ORIENTED_EDGE('',*,*,#495,.T.);
#691=ORIENTED_EDGE('',*,*,#509,.T.);
#692=ORIENTED_EDGE('',*,*,#510,.T.);
#693=ORIENTED_EDGE('',*,*,#511,.T.);
#694=ORIENTED_EDGE('',*,*,#512,.T.);
#695=ORIENTED_EDGE('',*,*,#510,.F.);
#696=ORIENTED_EDGE('',*,*,#513,.F.);
#697=ORIENTED_EDGE('',*,*,#514,.F.);
#698=ORIENTED_EDGE('',*,*,#515,.F.);
#699=ORIENTED_EDGE('',*,*,#516,.T.);
#700=ORIENTED_EDGE('',*,*,#517,.T.);
#701=ORIENTED_EDGE('',*,*,#518,.T.);
#702=ORIENTED_EDGE('',*,*,#519,.T.);
#703=ORIENTED_EDGE('',*,*,#517,.F.);
#704=ORIENTED_EDGE('',*,*,#520,.F.);
#705=ORIENTED_EDGE('',*,*,#521,.F.);
#706=ORIENTED_EDGE('',*,*,#522,.F.);
#707=ORIENTED_EDGE('',*,*,#516,.F.);
#708=ORIENTED_EDGE('',*,*,#523,.T.);
#709=ORIENTED_EDGE('',*,*,#511,.F.);
#710=ORIENTED_EDGE('',*,*,#515,.T.);
#711=ORIENTED_EDGE('',*,*,#524,.F.);
#712=ORIENTED_EDGE('',*,*,#525,.T.);
#713=ORIENTED_EDGE('',*,*,#526,.F.);
#714=ORIENTED_EDGE('',*,*,#527,.T.);
#715=ORIENTED_EDGE('',*,*,#528,.F.);
#716=ORIENTED_EDGE('',*,*,#529,.T.);
#717=ORIENTED_EDGE('',*,*,#530,.F.);
#718=ORIENTED_EDGE('',*,*,#531,.T.);
#719=ORIENTED_EDGE('',*,*,#532,.F.);
#720=ORIENTED_EDGE('',*,*,#533,.T.);
#721=ORIENTED_EDGE('',*,*,#534,.F.);
#722=ORIENTED_EDGE('',*,*,#520,.T.);
#723=ORIENTED_EDGE('',*,*,#534,.T.);
#724=ORIENTED_EDGE('',*,*,#535,.T.);
#725=ORIENTED_EDGE('',*,*,#536,.T.);
#726=ORIENTED_EDGE('',*,*,#521,.T.);
#727=ORIENTED_EDGE('',*,*,#518,.F.);
#728=ORIENTED_EDGE('',*,*,#522,.T.);
#729=ORIENTED_EDGE('',*,*,#536,.F.);
#730=ORIENTED_EDGE('',*,*,#537,.T.);
#731=ORIENTED_EDGE('',*,*,#538,.F.);
#732=ORIENTED_EDGE('',*,*,#539,.T.);
#733=ORIENTED_EDGE('',*,*,#540,.F.);
#734=ORIENTED_EDGE('',*,*,#541,.T.);
#735=ORIENTED_EDGE('',*,*,#542,.F.);
#736=ORIENTED_EDGE('',*,*,#543,.T.);
#737=ORIENTED_EDGE('',*,*,#491,.T.);
#738=ORIENTED_EDGE('',*,*,#487,.T.);
#739=ORIENTED_EDGE('',*,*,#494,.T.);
#740=ORIENTED_EDGE('',*,*,#544,.T.);
#741=ORIENTED_EDGE('',*,*,#507,.F.);
#742=ORIENTED_EDGE('',*,*,#499,.F.);
#743=ORIENTED_EDGE('',*,*,#506,.F.);
#744=ORIENTED_EDGE('',*,*,#545,.T.);
#745=ORIENTED_EDGE('',*,*,#546,.F.);
#746=ORIENTED_EDGE('',*,*,#547,.T.);
#747=ORIENTED_EDGE('',*,*,#548,.F.);
#748=ORIENTED_EDGE('',*,*,#513,.T.);
#749=ORIENTED_EDGE('',*,*,#509,.F.);
#750=ORIENTED_EDGE('',*,*,#549,.T.);
#751=ORIENTED_EDGE('',*,*,#475,.T.);
#752=ORIENTED_EDGE('',*,*,#478,.T.);
#753=ORIENTED_EDGE('',*,*,#449,.T.);
#754=ORIENTED_EDGE('',*,*,#453,.T.);
#755=ORIENTED_EDGE('',*,*,#479,.T.);
#756=ORIENTED_EDGE('',*,*,#473,.T.);
#757=ORIENTED_EDGE('',*,*,#468,.T.);
#758=ORIENTED_EDGE('',*,*,#480,.T.);
#759=ORIENTED_EDGE('',*,*,#535,.F.);
#760=ORIENTED_EDGE('',*,*,#533,.F.);
#761=ORIENTED_EDGE('',*,*,#550,.F.);
#762=ORIENTED_EDGE('',*,*,#537,.F.);
#763=ORIENTED_EDGE('',*,*,#538,.T.);
#764=ORIENTED_EDGE('',*,*,#550,.T.);
#765=ORIENTED_EDGE('',*,*,#532,.T.);
#766=ORIENTED_EDGE('',*,*,#551,.T.);
#767=ORIENTED_EDGE('',*,*,#530,.T.);
#768=ORIENTED_EDGE('',*,*,#552,.T.);
#769=ORIENTED_EDGE('',*,*,#540,.T.);
#770=ORIENTED_EDGE('',*,*,#553,.T.);
#771=ORIENTED_EDGE('',*,*,#552,.F.);
#772=ORIENTED_EDGE('',*,*,#529,.F.);
#773=ORIENTED_EDGE('',*,*,#554,.F.);
#774=ORIENTED_EDGE('',*,*,#541,.F.);
#775=ORIENTED_EDGE('',*,*,#528,.T.);
#776=ORIENTED_EDGE('',*,*,#555,.T.);
#777=ORIENTED_EDGE('',*,*,#542,.T.);
#778=ORIENTED_EDGE('',*,*,#554,.T.);
#779=ORIENTED_EDGE('',*,*,#492,.T.);
#780=ORIENTED_EDGE('',*,*,#543,.F.);
#781=ORIENTED_EDGE('',*,*,#555,.F.);
#782=ORIENTED_EDGE('',*,*,#527,.F.);
#783=ORIENTED_EDGE('',*,*,#556,.F.);
#784=ORIENTED_EDGE('',*,*,#545,.F.);
#785=ORIENTED_EDGE('',*,*,#505,.T.);
#786=ORIENTED_EDGE('',*,*,#504,.T.);
#787=ORIENTED_EDGE('',*,*,#508,.T.);
#788=ORIENTED_EDGE('',*,*,#544,.F.);
#789=ORIENTED_EDGE('',*,*,#493,.T.);
#790=ORIENTED_EDGE('',*,*,#489,.T.);
#791=ORIENTED_EDGE('',*,*,#526,.T.);
#792=ORIENTED_EDGE('',*,*,#557,.T.);
#793=ORIENTED_EDGE('',*,*,#546,.T.);
#794=ORIENTED_EDGE('',*,*,#556,.T.);
#795=ORIENTED_EDGE('',*,*,#557,.F.);
#796=ORIENTED_EDGE('',*,*,#525,.F.);
#797=ORIENTED_EDGE('',*,*,#558,.F.);
#798=ORIENTED_EDGE('',*,*,#547,.F.);
#799=ORIENTED_EDGE('',*,*,#524,.T.);
#800=ORIENTED_EDGE('',*,*,#514,.T.);
#801=ORIENTED_EDGE('',*,*,#548,.T.);
#802=ORIENTED_EDGE('',*,*,#558,.T.);
#803=ORIENTED_EDGE('',*,*,#512,.F.);
#804=ORIENTED_EDGE('',*,*,#523,.F.);
#805=ORIENTED_EDGE('',*,*,#519,.F.);
#806=ORIENTED_EDGE('',*,*,#549,.F.);
#807=ORIENTED_EDGE('',*,*,#551,.F.);
#808=ORIENTED_EDGE('',*,*,#531,.F.);
#809=ORIENTED_EDGE('',*,*,#553,.F.);
#810=ORIENTED_EDGE('',*,*,#539,.F.);
#811=CYLINDRICAL_SURFACE('',#873,10.);
#812=CYLINDRICAL_SURFACE('',#880,4.99999999999998);
#813=CYLINDRICAL_SURFACE('',#894,4.99999999999998);
#814=CYLINDRICAL_SURFACE('',#897,4.99999999999998);
#815=CYLINDRICAL_SURFACE('',#900,4.99999999999998);
#816=CYLINDRICAL_SURFACE('',#902,1.2);
#817=CYLINDRICAL_SURFACE('',#905,2.);
#818=CYLINDRICAL_SURFACE('',#911,1.2);
#819=CYLINDRICAL_SURFACE('',#914,2.);
#820=CYLINDRICAL_SURFACE('',#920,7.5);
#821=CYLINDRICAL_SURFACE('',#924,7.5);
#822=CYLINDRICAL_SURFACE('',#935,7.5);
#823=CYLINDRICAL_SURFACE('',#944,7.5);
#824=CYLINDRICAL_SURFACE('',#945,5.);
#825=CYLINDRICAL_SURFACE('',#947,5.);
#826=CYLINDRICAL_SURFACE('',#949,5.);
#827=CYLINDRICAL_SURFACE('',#951,5.);
#828=ADVANCED_FACE('',(#48),#811,.T.);
#829=ADVANCED_FACE('',(#49),#22,.T.);
#830=ADVANCED_FACE('',(#50),#23,.T.);
#831=ADVANCED_FACE('',(#51),#812,.T.);
#832=ADVANCED_FACE('',(#52),#24,.F.);
#833=ADVANCED_FACE('',(#53),#25,.F.);
#834=ADVANCED_FACE('',(#54),#26,.F.);
#835=ADVANCED_FACE('',(#55),#27,.F.);
#836=ADVANCED_FACE('',(#56),#28,.T.);
#837=ADVANCED_FACE('',(#57),#29,.F.);
#838=ADVANCED_FACE('',(#58),#813,.T.);
#839=ADVANCED_FACE('',(#59),#30,.T.);
#840=ADVANCED_FACE('',(#60),#814,.T.);
#841=ADVANCED_FACE('',(#61),#31,.T.);
#842=ADVANCED_FACE('',(#62),#815,.T.);
#843=ADVANCED_FACE('',(#63),#816,.F.);
#844=ADVANCED_FACE('',(#64),#817,.T.);
#845=ADVANCED_FACE('',(#65),#32,.F.);
#846=ADVANCED_FACE('',(#66,#15),#33,.T.);
#847=ADVANCED_FACE('',(#67,#16),#34,.F.);
#848=ADVANCED_FACE('',(#68),#818,.F.);
#849=ADVANCED_FACE('',(#69),#819,.T.);
#850=ADVANCED_FACE('',(#70),#35,.T.);
#851=ADVANCED_FACE('',(#71,#17),#36,.F.);
#852=ADVANCED_FACE('',(#72,#18),#37,.T.);
#853=ADVANCED_FACE('',(#73),#820,.F.);
#854=ADVANCED_FACE('',(#74),#38,.T.);
#855=ADVANCED_FACE('',(#75),#821,.T.);
#856=ADVANCED_FACE('',(#76),#39,.T.);
#857=ADVANCED_FACE('',(#77),#40,.T.);
#858=ADVANCED_FACE('',(#78),#822,.T.);
#859=ADVANCED_FACE('',(#79,#19),#41,.F.);
#860=ADVANCED_FACE('',(#80),#42,.T.);
#861=ADVANCED_FACE('',(#81),#823,.F.);
#862=ADVANCED_FACE('',(#82),#824,.T.);
#863=ADVANCED_FACE('',(#83),#43,.T.);
#864=ADVANCED_FACE('',(#84),#825,.T.);
#865=ADVANCED_FACE('',(#85),#44,.T.);
#866=ADVANCED_FACE('',(#86),#826,.T.);
#867=ADVANCED_FACE('',(#87),#45,.T.);
#868=ADVANCED_FACE('',(#88),#827,.T.);
#869=ADVANCED_FACE('',(#89),#46,.T.);
#870=ADVANCED_FACE('',(#90),#47,.T.);
#871=CLOSED_SHELL('',(#828,#829,#830,#831,#832,#833,#834,#835,#836,#837,
#838,#839,#840,#841,#842,#843,#844,#845,#846,#847,#848,#849,#850,#851,#852,
#853,#854,#855,#856,#857,#858,#859,#860,#861,#862,#863,#864,#865,#866,#867,
#868,#869,#870));
#872=AXIS2_PLACEMENT_3D('',#1204,#954,#955);
#873=AXIS2_PLACEMENT_3D('',#1205,#956,#957);
#874=AXIS2_PLACEMENT_3D('',#1208,#958,#959);
#875=AXIS2_PLACEMENT_3D('',#1212,#961,#962);
#876=AXIS2_PLACEMENT_3D('',#1228,#964,#965);
#877=AXIS2_PLACEMENT_3D('',#1232,#967,#968);
#878=AXIS2_PLACEMENT_3D('',#1236,#970,#971);
#879=AXIS2_PLACEMENT_3D('',#1238,#973,#974);
#880=AXIS2_PLACEMENT_3D('',#1252,#982,#983);
#881=AXIS2_PLACEMENT_3D('',#1254,#984,#985);
#882=AXIS2_PLACEMENT_3D('',#1257,#987,#988);
#883=AXIS2_PLACEMENT_3D('',#1259,#989,#990);
#884=AXIS2_PLACEMENT_3D('',#1262,#992,#993);
#885=AXIS2_PLACEMENT_3D('',#1263,#994,#995);
#886=AXIS2_PLACEMENT_3D('',#1266,#996,#997);
#887=AXIS2_PLACEMENT_3D('',#1271,#1001,#1002);
#888=AXIS2_PLACEMENT_3D('',#1275,#1005,#1006);
#889=AXIS2_PLACEMENT_3D('',#1279,#1009,#1010);
#890=AXIS2_PLACEMENT_3D('',#1281,#1011,#1012);
#891=AXIS2_PLACEMENT_3D('',#1283,#1014,#1015);
#892=AXIS2_PLACEMENT_3D('',#1290,#1020,#1021);
#893=AXIS2_PLACEMENT_3D('',#1292,#1022,#1023);
#894=AXIS2_PLACEMENT_3D('',#1294,#1025,#1026);
#895=AXIS2_PLACEMENT_3D('',#1296,#1027,#1028);
#896=AXIS2_PLACEMENT_3D('',#1298,#1030,#1031);
#897=AXIS2_PLACEMENT_3D('',#1304,#1035,#1036);
#898=AXIS2_PLACEMENT_3D('',#1305,#1037,#1038);
#899=AXIS2_PLACEMENT_3D('',#1306,#1039,#1040);
#900=AXIS2_PLACEMENT_3D('',#1308,#1042,#1043);
#901=AXIS2_PLACEMENT_3D('',#1309,#1044,#1045);
#902=AXIS2_PLACEMENT_3D('',#1310,#1046,#1047);
#903=AXIS2_PLACEMENT_3D('',#1312,#1048,#1049);
#904=AXIS2_PLACEMENT_3D('',#1315,#1051,#1052);
#905=AXIS2_PLACEMENT_3D('',#1316,#1053,#1054);
#906=AXIS2_PLACEMENT_3D('',#1319,#1055,#1056);
#907=AXIS2_PLACEMENT_3D('',#1323,#1058,#1059);
#908=AXIS2_PLACEMENT_3D('',#1325,#1061,#1062);
#909=AXIS2_PLACEMENT_3D('',#1331,#1066,#1067);
#910=AXIS2_PLACEMENT_3D('',#1335,#1070,#1071);
#911=AXIS2_PLACEMENT_3D('',#1339,#1074,#1075);
#912=AXIS2_PLACEMENT_3D('',#1341,#1076,#1077);
#913=AXIS2_PLACEMENT_3D('',#1344,#1079,#1080);
#914=AXIS2_PLACEMENT_3D('',#1345,#1081,#1082);
#915=AXIS2_PLACEMENT_3D('',#1348,#1083,#1084);
#916=AXIS2_PLACEMENT_3D('',#1352,#1086,#1087);
#917=AXIS2_PLACEMENT_3D('',#1354,#1089,#1090);
#918=AXIS2_PLACEMENT_3D('',#1360,#1094,#1095);
#919=AXIS2_PLACEMENT_3D('',#1364,#1098,#1099);
#920=AXIS2_PLACEMENT_3D('',#1368,#1102,#1103);
#921=AXIS2_PLACEMENT_3D('',#1371,#1104,#1105);
#922=AXIS2_PLACEMENT_3D('',#1375,#1107,#1108);
#923=AXIS2_PLACEMENT_3D('',#1377,#1110,#1111);
#924=AXIS2_PLACEMENT_3D('',#1383,#1115,#1116);
#925=AXIS2_PLACEMENT_3D('',#1386,#1117,#1118);
#926=AXIS2_PLACEMENT_3D('',#1390,#1120,#1121);
#927=AXIS2_PLACEMENT_3D('',#1392,#1123,#1124);
#928=AXIS2_PLACEMENT_3D('',#1398,#1128,#1129);
#929=AXIS2_PLACEMENT_3D('',#1401,#1131,#1132);
#930=AXIS2_PLACEMENT_3D('',#1405,#1134,#1135);
#931=AXIS2_PLACEMENT_3D('',#1409,#1137,#1138);
#932=AXIS2_PLACEMENT_3D('',#1413,#1140,#1141);
#933=AXIS2_PLACEMENT_3D('',#1417,#1143,#1144);
#934=AXIS2_PLACEMENT_3D('',#1420,#1146,#1147);
#935=AXIS2_PLACEMENT_3D('',#1421,#1148,#1149);
#936=AXIS2_PLACEMENT_3D('',#1424,#1151,#1152);
#937=AXIS2_PLACEMENT_3D('',#1425,#1153,#1154);
#938=AXIS2_PLACEMENT_3D('',#1429,#1156,#1157);
#939=AXIS2_PLACEMENT_3D('',#1433,#1159,#1160);
#940=AXIS2_PLACEMENT_3D('',#1437,#1162,#1163);
#941=AXIS2_PLACEMENT_3D('',#1443,#1167,#1168);
#942=AXIS2_PLACEMENT_3D('',#1446,#1170,#1171);
#943=AXIS2_PLACEMENT_3D('',#1448,#1173,#1174);
#944=AXIS2_PLACEMENT_3D('',#1450,#1176,#1177);
#945=AXIS2_PLACEMENT_3D('',#1452,#1179,#1180);
#946=AXIS2_PLACEMENT_3D('',#1455,#1183,#1184);
#947=AXIS2_PLACEMENT_3D('',#1457,#1186,#1187);
#948=AXIS2_PLACEMENT_3D('',#1459,#1189,#1190);
#949=AXIS2_PLACEMENT_3D('',#1461,#1192,#1193);
#950=AXIS2_PLACEMENT_3D('',#1463,#1195,#1196);
#951=AXIS2_PLACEMENT_3D('',#1465,#1198,#1199);
#952=AXIS2_PLACEMENT_3D('',#1466,#1200,#1201);
#953=AXIS2_PLACEMENT_3D('',#1467,#1202,#1203);
#954=DIRECTION('axis',(0.,0.,1.));
#955=DIRECTION('refdir',(1.,0.,0.));
#956=DIRECTION('center_axis',(0.,-1.,0.));
#957=DIRECTION('ref_axis',(0.622790496517319,0.,-0.782388648593339));
#958=DIRECTION('center_axis',(0.,1.,0.));
#959=DIRECTION('ref_axis',(0.622790496517319,0.,-0.782388648593339));
#960=DIRECTION('',(0.,1.,0.));
#961=DIRECTION('center_axis',(0.,-1.,0.));
#962=DIRECTION('ref_axis',(0.622790496517319,0.,-0.782388648593339));
#963=DIRECTION('',(0.,-1.,0.));
#964=DIRECTION('center_axis',(0.,0.,-1.));
#965=DIRECTION('ref_axis',(1.,0.,0.));
#966=DIRECTION('',(-1.,0.,0.));
#967=DIRECTION('center_axis',(0.,0.,-1.));
#968=DIRECTION('ref_axis',(0.,-1.,0.));
#969=DIRECTION('',(0.,1.,0.));
#970=DIRECTION('center_axis',(0.,0.,-1.));
#971=DIRECTION('ref_axis',(-1.,-3.55271367880051E-15,0.));
#972=DIRECTION('',(1.,0.,0.));
#973=DIRECTION('center_axis',(0.,-1.,0.));
#974=DIRECTION('ref_axis',(-1.,0.,0.));
#975=DIRECTION('',(0.,0.,-1.));
#976=DIRECTION('',(-1.,0.,0.));
#977=DIRECTION('',(0.,0.,1.));
#978=DIRECTION('',(1.,0.,1.15849359091321E-15));
#979=DIRECTION('',(0.,0.,-1.));
#980=DIRECTION('',(1.,0.,0.));
#981=DIRECTION('',(0.,0.,-1.));
#982=DIRECTION('center_axis',(0.,0.,-1.));
#983=DIRECTION('ref_axis',(1.,3.55271367880051E-15,0.));
#984=DIRECTION('center_axis',(-0.97452842985392,0.,0.224263994895422));
#985=DIRECTION('ref_axis',(0.224263994895422,7.96745762327414E-16,0.97452842985392));
#986=DIRECTION('',(0.,0.,-1.));
#987=DIRECTION('center_axis',(0.,0.,1.));
#988=DIRECTION('ref_axis',(1.,3.55271367880051E-15,0.));
#989=DIRECTION('center_axis',(-1.15849359091321E-15,0.,1.));
#990=DIRECTION('ref_axis',(1.,3.55271367880051E-15,0.));
#991=DIRECTION('',(0.,0.,-1.));
#992=DIRECTION('center_axis',(0.,0.,-1.));
#993=DIRECTION('ref_axis',(1.,3.55271367880051E-15,0.));
#994=DIRECTION('center_axis',(0.,0.,-1.));
#995=DIRECTION('ref_axis',(1.,0.,0.));
#996=DIRECTION('center_axis',(0.,0.,-1.));
#997=DIRECTION('ref_axis',(-3.55271367880051E-15,1.,0.));
#998=DIRECTION('',(1.,0.,0.));
#999=DIRECTION('',(0.,-1.,0.));
#1000=DIRECTION('',(0.,-1.,0.));
#1001=DIRECTION('center_axis',(1.,0.,0.));
#1002=DIRECTION('ref_axis',(0.,0.,1.));
#1003=DIRECTION('',(0.,0.,1.));
#1004=DIRECTION('',(0.,-1.,0.));
#1005=DIRECTION('center_axis',(-1.,0.,0.));
#1006=DIRECTION('ref_axis',(0.,0.,-1.));
#1007=DIRECTION('',(0.,0.,-1.));
#1008=DIRECTION('',(0.,-1.,0.));
#1009=DIRECTION('center_axis',(-1.15849359091321E-15,0.,1.));
#1010=DIRECTION('ref_axis',(-1.,0.,-1.15849359091321E-15));
#1011=DIRECTION('center_axis',(-1.15849359091321E-15,0.,1.));
#1012=DIRECTION('ref_axis',(-3.55271367880051E-15,1.,0.));
#1013=DIRECTION('',(-1.,0.,-1.15849359091321E-15));
#1014=DIRECTION('center_axis',(0.,1.,0.));
#1015=DIRECTION('ref_axis',(1.,0.,0.));
#1016=DIRECTION('',(0.,0.,-1.));
#1017=DIRECTION('',(-1.,0.,0.));
#1018=DIRECTION('',(0.,0.,-1.));
#1019=DIRECTION('',(0.,0.,-1.));
#1020=DIRECTION('center_axis',(-0.97452842985392,0.,0.224263994895422));
#1021=DIRECTION('ref_axis',(0.224263994895422,0.,0.97452842985392));
#1022=DIRECTION('center_axis',(-0.97452842985392,0.,0.224263994895422));
#1023=DIRECTION('ref_axis',(0.224263994895422,7.96745762327414E-16,0.97452842985392));
#1024=DIRECTION('',(0.,1.,0.));
#1025=DIRECTION('center_axis',(0.,0.,-1.));
#1026=DIRECTION('ref_axis',(-3.55271367880051E-15,1.,0.));
#1027=DIRECTION('center_axis',(0.,0.,1.));
#1028=DIRECTION('ref_axis',(-3.55271367880051E-15,1.,0.));
#1029=DIRECTION('',(0.,0.,-1.));
#1030=DIRECTION('center_axis',(-1.,0.,0.));
#1031=DIRECTION('ref_axis',(0.,1.,0.));
#1032=DIRECTION('',(0.,-1.,0.));
#1033=DIRECTION('',(0.,0.,-1.));
#1034=DIRECTION('',(0.,0.,-1.));
#1035=DIRECTION('center_axis',(0.,0.,-1.));
#1036=DIRECTION('ref_axis',(0.,-1.,0.));
#1037=DIRECTION('center_axis',(0.,0.,1.));
#1038=DIRECTION('ref_axis',(0.,-1.,0.));
#1039=DIRECTION('center_axis',(1.,0.,0.));
#1040=DIRECTION('ref_axis',(0.,-1.,0.));
#1041=DIRECTION('',(0.,1.,0.));
#1042=DIRECTION('center_axis',(0.,0.,-1.));
#1043=DIRECTION('ref_axis',(-1.,-3.55271367880051E-15,0.));
#1044=DIRECTION('center_axis',(0.,0.,1.));
#1045=DIRECTION('ref_axis',(-1.,-3.55271367880051E-15,0.));
#1046=DIRECTION('center_axis',(0.,-1.,0.));
#1047=DIRECTION('ref_axis',(1.,0.,0.));
#1048=DIRECTION('center_axis',(0.,1.,0.));
#1049=DIRECTION('ref_axis',(1.,0.,0.));
#1050=DIRECTION('',(0.,-1.,0.));
#1051=DIRECTION('center_axis',(0.,-1.,0.));
#1052=DIRECTION('ref_axis',(1.,0.,0.));
#1053=DIRECTION('center_axis',(0.,-1.,0.));
#1054=DIRECTION('ref_axis',(-0.38268343236509,0.,-0.923879532511287));
#1055=DIRECTION('center_axis',(0.,1.,0.));
#1056=DIRECTION('ref_axis',(1.,0.,0.));
#1057=DIRECTION('',(0.,1.,0.));
#1058=DIRECTION('center_axis',(0.,-1.,0.));
#1059=DIRECTION('ref_axis',(1.,0.,0.));
#1060=DIRECTION('',(0.,1.,0.));
#1061=DIRECTION('center_axis',(0.707106781186548,0.,-0.707106781186547));
#1062=DIRECTION('ref_axis',(-0.707106781186547,0.,-0.707106781186548));
#1063=DIRECTION('',(0.707106781186547,0.,0.707106781186548));
#1064=DIRECTION('',(0.,-1.,0.));
#1065=DIRECTION('',(-0.707106781186547,0.,-0.707106781186548));
#1066=DIRECTION('center_axis',(0.,-1.,0.));
#1067=DIRECTION('ref_axis',(0.,0.,-1.));
#1068=DIRECTION('',(-1.,0.,0.));
#1069=DIRECTION('',(0.,0.,-1.));
#1070=DIRECTION('center_axis',(0.,-1.,0.));
#1071=DIRECTION('ref_axis',(0.,0.,-1.));
#1072=DIRECTION('',(0.,0.,1.));
#1073=DIRECTION('',(1.,0.,0.));
#1074=DIRECTION('center_axis',(0.,-1.,0.));
#1075=DIRECTION('ref_axis',(1.,0.,0.));
#1076=DIRECTION('center_axis',(0.,1.,0.));
#1077=DIRECTION('ref_axis',(1.,0.,0.));
#1078=DIRECTION('',(0.,1.,0.));
#1079=DIRECTION('center_axis',(0.,-1.,0.));
#1080=DIRECTION('ref_axis',(1.,0.,0.));
#1081=DIRECTION('center_axis',(0.,-1.,0.));
#1082=DIRECTION('ref_axis',(-0.38268343236509,0.,-0.923879532511287));
#1083=DIRECTION('center_axis',(0.,1.,0.));
#1084=DIRECTION('ref_axis',(1.,0.,0.));
#1085=DIRECTION('',(0.,-1.,0.));
#1086=DIRECTION('center_axis',(0.,-1.,0.));
#1087=DIRECTION('ref_axis',(1.,0.,0.));
#1088=DIRECTION('',(0.,-1.,0.));
#1089=DIRECTION('center_axis',(-0.707106781186548,0.,0.707106781186547));
#1090=DIRECTION('ref_axis',(-0.707106781186547,0.,-0.707106781186548));
#1091=DIRECTION('',(0.707106781186547,0.,0.707106781186548));
#1092=DIRECTION('',(-0.707106781186547,0.,-0.707106781186548));
#1093=DIRECTION('',(0.,-1.,0.));
#1094=DIRECTION('center_axis',(0.,-1.,0.));
#1095=DIRECTION('ref_axis',(0.,0.,-1.));
#1096=DIRECTION('',(0.,0.,1.));
#1097=DIRECTION('',(-1.,0.,0.));
#1098=DIRECTION('center_axis',(0.,-1.,0.));
#1099=DIRECTION('ref_axis',(0.,0.,-1.));
#1100=DIRECTION('',(1.,0.,0.));
#1101=DIRECTION('',(0.,0.,-1.));
#1102=DIRECTION('center_axis',(0.,0.,1.));
#1103=DIRECTION('ref_axis',(-0.707106781186547,-0.707106781186547,0.));
#1104=DIRECTION('center_axis',(0.,0.,-1.));
#1105=DIRECTION('ref_axis',(-0.707106781186547,-0.707106781186547,0.));
#1106=DIRECTION('',(0.,0.,1.));
#1107=DIRECTION('center_axis',(0.,0.,1.));
#1108=DIRECTION('ref_axis',(-0.707106781186547,-0.707106781186547,0.));
#1109=DIRECTION('',(0.,0.,-1.));
#1110=DIRECTION('center_axis',(1.,0.,0.));
#1111=DIRECTION('ref_axis',(0.,1.,0.));
#1112=DIRECTION('',(0.,-1.,0.));
#1113=DIRECTION('',(0.,0.,-1.));
#1114=DIRECTION('',(0.,1.,0.));
#1115=DIRECTION('center_axis',(0.,0.,1.));
#1116=DIRECTION('ref_axis',(0.707106781186547,0.707106781186547,0.));
#1117=DIRECTION('center_axis',(0.,0.,-1.));
#1118=DIRECTION('ref_axis',(0.707106781186547,0.707106781186547,0.));
#1119=DIRECTION('',(0.,0.,-1.));
#1120=DIRECTION('center_axis',(0.,0.,1.));
#1121=DIRECTION('ref_axis',(0.707106781186547,0.707106781186547,0.));
#1122=DIRECTION('',(0.,0.,1.));
#1123=DIRECTION('center_axis',(1.,0.,0.));
#1124=DIRECTION('ref_axis',(0.,1.,0.));
#1125=DIRECTION('',(0.,1.,0.));
#1126=DIRECTION('',(0.,0.,1.));
#1127=DIRECTION('',(0.,-1.,0.));
#1128=DIRECTION('center_axis',(0.,0.,1.));
#1129=DIRECTION('ref_axis',(1.,0.,0.));
#1130=DIRECTION('',(-1.,0.,0.));
#1131=DIRECTION('center_axis',(0.,0.,-1.));
#1132=DIRECTION('ref_axis',(0.707106781186547,0.707106781186547,0.));
#1133=DIRECTION('',(-1.,0.,0.));
#1134=DIRECTION('center_axis',(0.,0.,-1.));
#1135=DIRECTION('ref_axis',(-0.707106781186547,0.707106781186547,0.));
#1136=DIRECTION('',(0.,-1.,0.));
#1137=DIRECTION('center_axis',(0.,0.,-1.));
#1138=DIRECTION('ref_axis',(-0.707106781186547,-0.707106781186547,0.));
#1139=DIRECTION('',(1.,0.,0.));
#1140=DIRECTION('center_axis',(0.,0.,-1.));
#1141=DIRECTION('ref_axis',(0.707106781186547,-0.707106781186547,0.));
#1142=DIRECTION('',(0.,1.,0.));
#1143=DIRECTION('center_axis',(0.,0.,1.));
#1144=DIRECTION('ref_axis',(-0.707106781186547,0.707106781186547,0.));
#1145=DIRECTION('',(1.,0.,0.));
#1146=DIRECTION('center_axis',(0.,0.,-1.));
#1147=DIRECTION('ref_axis',(0.707106781186547,-0.707106781186547,0.));
#1148=DIRECTION('center_axis',(0.,0.,1.));
#1149=DIRECTION('ref_axis',(0.707106781186547,-0.707106781186547,0.));
#1150=DIRECTION('',(0.,0.,-1.));
#1151=DIRECTION('center_axis',(0.,0.,1.));
#1152=DIRECTION('ref_axis',(0.707106781186547,-0.707106781186547,0.));
#1153=DIRECTION('center_axis',(0.,0.,1.));
#1154=DIRECTION('ref_axis',(1.,0.,0.));
#1155=DIRECTION('',(-1.,0.,0.));
#1156=DIRECTION('center_axis',(0.,0.,-1.));
#1157=DIRECTION('ref_axis',(-0.707106781186547,0.707106781186547,0.));
#1158=DIRECTION('',(0.,-1.,0.));
#1159=DIRECTION('center_axis',(0.,0.,1.));
#1160=DIRECTION('ref_axis',(0.707106781186547,-0.707106781186547,0.));
#1161=DIRECTION('',(-1.,0.,0.));
#1162=DIRECTION('center_axis',(0.,0.,1.));
#1163=DIRECTION('ref_axis',(-0.707106781186547,-0.707106781186547,0.));
#1164=DIRECTION('',(0.,1.,0.));
#1165=DIRECTION('',(0.,1.,0.));
#1166=DIRECTION('',(0.,1.,0.));
#1167=DIRECTION('center_axis',(0.,0.,1.));
#1168=DIRECTION('ref_axis',(-0.707106781186547,0.707106781186547,0.));
#1169=DIRECTION('',(1.,0.,0.));
#1170=DIRECTION('center_axis',(0.,0.,1.));
#1171=DIRECTION('ref_axis',(0.707106781186547,0.707106781186547,0.));
#1172=DIRECTION('',(1.,0.,0.));
#1173=DIRECTION('center_axis',(0.,-1.,0.));
#1174=DIRECTION('ref_axis',(1.,0.,0.));
#1175=DIRECTION('',(0.,0.,1.));
#1176=DIRECTION('center_axis',(0.,0.,1.));
#1177=DIRECTION('ref_axis',(-0.707106781186547,0.707106781186547,0.));
#1178=DIRECTION('',(0.,0.,-1.));
#1179=DIRECTION('center_axis',(0.,0.,1.));
#1180=DIRECTION('ref_axis',(0.707106781186547,-0.707106781186547,0.));
#1181=DIRECTION('',(0.,0.,-1.));
#1182=DIRECTION('',(0.,0.,1.));
#1183=DIRECTION('center_axis',(0.,-1.,0.));
#1184=DIRECTION('ref_axis',(1.,0.,0.));
#1185=DIRECTION('',(0.,0.,1.));
#1186=DIRECTION('center_axis',(0.,0.,1.));
#1187=DIRECTION('ref_axis',(-0.707106781186547,-0.707106781186547,0.));
#1188=DIRECTION('',(0.,0.,-1.));
#1189=DIRECTION('center_axis',(-1.,0.,0.));
#1190=DIRECTION('ref_axis',(0.,-1.,0.));
#1191=DIRECTION('',(0.,0.,1.));
#1192=DIRECTION('center_axis',(0.,0.,1.));
#1193=DIRECTION('ref_axis',(-0.707106781186547,0.707106781186547,0.));
#1194=DIRECTION('',(0.,0.,-1.));
#1195=DIRECTION('center_axis',(0.,1.,0.));
#1196=DIRECTION('ref_axis',(-1.,0.,0.));
#1197=DIRECTION('',(0.,0.,1.));
#1198=DIRECTION('center_axis',(0.,0.,1.));
#1199=DIRECTION('ref_axis',(0.707106781186547,0.707106781186547,0.));
#1200=DIRECTION('center_axis',(0.,1.,0.));
#1201=DIRECTION('ref_axis',(-1.,0.,0.));
#1202=DIRECTION('center_axis',(1.,0.,0.));
#1203=DIRECTION('ref_axis',(0.,1.,0.));
#1204=CARTESIAN_POINT('',(0.,0.,0.));
#1205=CARTESIAN_POINT('Origin',(115.445568398559,85.225,20.));
#1206=CARTESIAN_POINT('',(124.,82.1,14.8210329238095));
#1207=CARTESIAN_POINT('',(115.445568398559,82.1,10.));
#1208=CARTESIAN_POINT('Origin',(115.445568398559,82.1,20.));
#1209=CARTESIAN_POINT('',(115.445568398559,94.6,10.));
#1210=CARTESIAN_POINT('',(115.445568398559,85.225,10.));
#1211=CARTESIAN_POINT('',(124.,94.6,14.8210329238095));
#1212=CARTESIAN_POINT('Origin',(115.445568398559,94.6,20.));
#1213=CARTESIAN_POINT('',(125.190852697098,94.4561167463123,17.7573600510458));
#1214=CARTESIAN_POINT('Ctrl Pts',(124.,94.6,14.8210329238095));
#1215=CARTESIAN_POINT('Ctrl Pts',(124.344244736778,94.6,15.3896440023511));
#1216=CARTESIAN_POINT('Ctrl Pts',(124.638400635699,94.5644705929072,16.0058325434528));
#1217=CARTESIAN_POINT('Ctrl Pts',(124.995975378179,94.5015692844254,17.0101401077233));
#1218=CARTESIAN_POINT('Ctrl Pts',(125.104552591591,94.4772798934877,17.3823470831576));
#1219=CARTESIAN_POINT('Ctrl Pts',(125.190852697098,94.4561167463123,17.7573600510458));
#1220=CARTESIAN_POINT('',(125.190852697098,82.2438832536878,17.7573600510458));
#1221=CARTESIAN_POINT('',(125.190852697098,85.225,17.7573600510458));
#1222=CARTESIAN_POINT('Ctrl Pts',(125.190852697098,82.2438832536878,17.7573600510458));
#1223=CARTESIAN_POINT('Ctrl Pts',(125.104552591591,82.2227201065124,17.3823470831576));
#1224=CARTESIAN_POINT('Ctrl Pts',(124.995975378179,82.1984307155746,17.0101401077233));
#1225=CARTESIAN_POINT('Ctrl Pts',(124.638400635699,82.1355294070928,16.0058325434529));
#1226=CARTESIAN_POINT('Ctrl Pts',(124.344244736778,82.1,15.3896440023511));
#1227=CARTESIAN_POINT('Ctrl Pts',(124.,82.1,14.8210329238095));
#1228=CARTESIAN_POINT('Origin',(117.,88.35,10.));
#1229=CARTESIAN_POINT('',(110.,82.1,10.));
#1230=CARTESIAN_POINT('',(124.,82.1,10.));
#1231=CARTESIAN_POINT('',(105.,87.1,10.));
#1232=CARTESIAN_POINT('Origin',(110.,87.1,10.));
#1233=CARTESIAN_POINT('',(105.,89.6,10.));
#1234=CARTESIAN_POINT('',(105.,89.6,10.));
#1235=CARTESIAN_POINT('',(110.,94.6,10.));
#1236=CARTESIAN_POINT('Origin',(110.,89.6,10.));
#1237=CARTESIAN_POINT('',(109.,94.6,10.));
#1238=CARTESIAN_POINT('Origin',(124.,82.1,40.));
#1239=CARTESIAN_POINT('',(124.,82.1,20.5));
#1240=CARTESIAN_POINT('',(124.,82.1,40.));
#1241=CARTESIAN_POINT('',(113.25,82.1,20.5));
#1242=CARTESIAN_POINT('',(118.625,82.1,20.5));
#1243=CARTESIAN_POINT('',(113.25,82.1,32.));
#1244=CARTESIAN_POINT('',(113.25,82.1,36.));
#1245=CARTESIAN_POINT('',(124.,82.1,32.));
#1246=CARTESIAN_POINT('',(124.375,82.1,32.));
#1247=CARTESIAN_POINT('',(124.,82.1,40.));
#1248=CARTESIAN_POINT('',(124.,82.1,40.));
#1249=CARTESIAN_POINT('',(110.,82.1,40.));
#1250=CARTESIAN_POINT('',(94.875,82.1,40.));
#1251=CARTESIAN_POINT('',(110.,82.1,40.));
#1252=CARTESIAN_POINT('Origin',(124.,87.1,40.));
#1253=CARTESIAN_POINT('',(129.,87.1,34.3098268966951));
#1254=CARTESIAN_POINT('Origin',(124.,87.1,12.5825667917381));
#1255=CARTESIAN_POINT('',(129.,87.1,40.));
#1256=CARTESIAN_POINT('',(129.,87.1,40.));
#1257=CARTESIAN_POINT('Origin',(124.,87.1,40.));
#1258=CARTESIAN_POINT('',(124.75,82.1565700166787,32.));
#1259=CARTESIAN_POINT('Origin',(124.,87.1,32.));
#1260=CARTESIAN_POINT('',(124.75,82.1565700166787,20.5));
#1261=CARTESIAN_POINT('',(124.75,82.1565700166787,40.));
#1262=CARTESIAN_POINT('Origin',(124.,87.1,20.5));
#1263=CARTESIAN_POINT('Origin',(113.25,94.6,20.5));
#1264=CARTESIAN_POINT('',(124.,94.6,20.5));
#1265=CARTESIAN_POINT('',(124.75,94.5434299833213,20.5));
#1266=CARTESIAN_POINT('Origin',(124.,89.6,20.5));
#1267=CARTESIAN_POINT('',(113.25,94.6,20.5));
#1268=CARTESIAN_POINT('',(111.625,94.6,20.5));
#1269=CARTESIAN_POINT('',(113.25,94.6,20.5));
#1270=CARTESIAN_POINT('',(124.75,94.6,20.5));
#1271=CARTESIAN_POINT('Origin',(124.75,94.6,20.5));
#1272=CARTESIAN_POINT('',(124.75,94.5434299833213,32.));
#1273=CARTESIAN_POINT('',(124.75,94.5434299833213,40.));
#1274=CARTESIAN_POINT('',(124.75,94.6,32.));
#1275=CARTESIAN_POINT('Origin',(113.25,94.6,32.));
#1276=CARTESIAN_POINT('',(113.25,94.6,32.));
#1277=CARTESIAN_POINT('',(113.25,94.6,36.));
#1278=CARTESIAN_POINT('',(113.25,94.6,32.));
#1279=CARTESIAN_POINT('Origin',(124.75,94.6,32.));
#1280=CARTESIAN_POINT('',(124.,94.6,32.));
#1281=CARTESIAN_POINT('Origin',(124.,89.6,32.));
#1282=CARTESIAN_POINT('',(117.375,94.6,32.));
#1283=CARTESIAN_POINT('Origin',(110.,94.6,40.));
#1284=CARTESIAN_POINT('',(110.,94.6,40.));
#1285=CARTESIAN_POINT('',(110.,94.6,40.));
#1286=CARTESIAN_POINT('',(124.,94.6,40.));
#1287=CARTESIAN_POINT('',(87.875,94.6,40.));
#1288=CARTESIAN_POINT('',(124.,94.6,40.));
#1289=CARTESIAN_POINT('',(124.,94.6,40.));
#1290=CARTESIAN_POINT('Origin',(118.590025819105,82.1,-10.9262164461419));
#1291=CARTESIAN_POINT('',(129.,89.6,34.3098268966951));
#1292=CARTESIAN_POINT('Origin',(124.,89.6,12.5825667917381));
#1293=CARTESIAN_POINT('',(129.,85.85,34.3098268966951));
#1294=CARTESIAN_POINT('Origin',(124.,89.6,40.));
#1295=CARTESIAN_POINT('',(129.,89.6,40.));
#1296=CARTESIAN_POINT('Origin',(124.,89.6,40.));
#1297=CARTESIAN_POINT('',(129.,89.6,40.));
#1298=CARTESIAN_POINT('Origin',(105.,87.1,40.));
#1299=CARTESIAN_POINT('',(105.,89.6,40.));
#1300=CARTESIAN_POINT('',(105.,87.1,40.));
#1301=CARTESIAN_POINT('',(105.,87.725,40.));
#1302=CARTESIAN_POINT('',(105.,89.6,40.));
#1303=CARTESIAN_POINT('',(105.,87.1,40.));
#1304=CARTESIAN_POINT('Origin',(110.,87.1,40.));
#1305=CARTESIAN_POINT('Origin',(110.,87.1,40.));
#1306=CARTESIAN_POINT('Origin',(129.,89.6,40.));
#1307=CARTESIAN_POINT('',(129.,88.975,40.));
#1308=CARTESIAN_POINT('Origin',(110.,89.6,40.));
#1309=CARTESIAN_POINT('Origin',(110.,89.6,40.));
#1310=CARTESIAN_POINT('Origin',(-2.5,25.8375,40.));
#1311=CARTESIAN_POINT('',(-3.7,53.1208333333333,40.));
#1312=CARTESIAN_POINT('Origin',(-2.5,53.1208333333333,40.));
#1313=CARTESIAN_POINT('',(-3.7,25.8375,40.));
#1314=CARTESIAN_POINT('',(-3.7,25.8375,40.));
#1315=CARTESIAN_POINT('Origin',(-2.5,25.8375,40.));
#1316=CARTESIAN_POINT('Origin',(-2.5,25.8375,40.));
#1317=CARTESIAN_POINT('',(-0.5,25.8375,40.));
#1318=CARTESIAN_POINT('',(-3.9142135623731,25.8375,41.4142135623731));
#1319=CARTESIAN_POINT('Origin',(-2.5,25.8375,40.));
#1320=CARTESIAN_POINT('',(-3.9142135623731,53.1208333333333,41.4142135623731));
#1321=CARTESIAN_POINT('',(-3.9142135623731,25.8375,41.4142135623731));
#1322=CARTESIAN_POINT('',(-0.5,53.1208333333333,40.));
#1323=CARTESIAN_POINT('Origin',(-2.5,53.1208333333333,40.));
#1324=CARTESIAN_POINT('',(-0.5,25.8375,40.));
#1325=CARTESIAN_POINT('Origin',(-2.22044604925031E-15,25.8375,45.3284271247462));
#1326=CARTESIAN_POINT('',(0.,25.8375,45.3284271247462));
#1327=CARTESIAN_POINT('',(-1.47855339059327,25.8375,43.8498737341529));
#1328=CARTESIAN_POINT('',(0.,53.1208333333333,45.3284271247462));
#1329=CARTESIAN_POINT('',(0.,101.26875,45.3284271247462));
#1330=CARTESIAN_POINT('',(-1.47855339059327,53.1208333333333,43.8498737341529));
#1331=CARTESIAN_POINT('Origin',(-2.25,25.8375,41.6642135623731));
#1332=CARTESIAN_POINT('',(0.,25.8375,40.));
#1333=CARTESIAN_POINT('',(-1.375,25.8375,40.));
#1334=CARTESIAN_POINT('',(0.,25.8375,40.8321067811865));
#1335=CARTESIAN_POINT('Origin',(-2.25,53.1208333333333,41.6642135623731));
#1336=CARTESIAN_POINT('',(0.,53.1208333333333,40.));
#1337=CARTESIAN_POINT('',(0.,53.1208333333333,40.8321067811865));
#1338=CARTESIAN_POINT('',(-1.375,53.1208333333333,40.));
#1339=CARTESIAN_POINT('Origin',(-2.5,150.8625,40.));
#1340=CARTESIAN_POINT('',(-3.7,123.579166666667,40.));
#1341=CARTESIAN_POINT('Origin',(-2.5,123.579166666667,40.));
#1342=CARTESIAN_POINT('',(-3.7,150.8625,40.));
#1343=CARTESIAN_POINT('',(-3.7,150.8625,40.));
#1344=CARTESIAN_POINT('Origin',(-2.5,150.8625,40.));
#1345=CARTESIAN_POINT('Origin',(-2.5,150.8625,40.));
#1346=CARTESIAN_POINT('',(-0.5,150.8625,40.));
#1347=CARTESIAN_POINT('',(-3.9142135623731,150.8625,41.4142135623731));
#1348=CARTESIAN_POINT('Origin',(-2.5,150.8625,40.));
#1349=CARTESIAN_POINT('',(-0.5,123.579166666667,40.));
#1350=CARTESIAN_POINT('',(-0.5,150.8625,40.));
#1351=CARTESIAN_POINT('',(-3.9142135623731,123.579166666667,41.4142135623731));
#1352=CARTESIAN_POINT('Origin',(-2.5,123.579166666667,40.));
#1353=CARTESIAN_POINT('',(-3.9142135623731,150.8625,41.4142135623731));
#1354=CARTESIAN_POINT('Origin',(-2.22044604925031E-15,150.8625,45.3284271247462));
#1355=CARTESIAN_POINT('',(0.,150.8625,45.3284271247462));
#1356=CARTESIAN_POINT('',(-1.47855339059327,150.8625,43.8498737341529));
#1357=CARTESIAN_POINT('',(0.,123.579166666667,45.3284271247462));
#1358=CARTESIAN_POINT('',(-1.47855339059327,123.579166666667,43.8498737341529));
#1359=CARTESIAN_POINT('',(0.,163.78125,45.3284271247462));
#1360=CARTESIAN_POINT('Origin',(-2.25,150.8625,41.6642135623731));
#1361=CARTESIAN_POINT('',(0.,150.8625,40.));
#1362=CARTESIAN_POINT('',(0.,150.8625,40.8321067811865));
#1363=CARTESIAN_POINT('',(-1.375,150.8625,40.));
#1364=CARTESIAN_POINT('Origin',(-2.25,123.579166666667,41.6642135623731));
#1365=CARTESIAN_POINT('',(0.,123.579166666667,40.));
#1366=CARTESIAN_POINT('',(-1.375,123.579166666667,40.));
#1367=CARTESIAN_POINT('',(0.,123.579166666667,40.8321067811865));
#1368=CARTESIAN_POINT('Origin',(109.,104.6,40.));
#1369=CARTESIAN_POINT('',(109.,97.1,40.));
#1370=CARTESIAN_POINT('',(101.5,104.6,40.));
#1371=CARTESIAN_POINT('Origin',(109.,104.6,40.));
#1372=CARTESIAN_POINT('',(101.5,104.6,45.329));
#1373=CARTESIAN_POINT('',(101.5,104.6,40.));
#1374=CARTESIAN_POINT('',(109.,97.1,45.329));
#1375=CARTESIAN_POINT('Origin',(109.,104.6,45.329));
#1376=CARTESIAN_POINT('',(109.,97.1,40.));
#1377=CARTESIAN_POINT('Origin',(101.5,97.1,40.));
#1378=CARTESIAN_POINT('',(101.5,171.7,40.));
#1379=CARTESIAN_POINT('',(101.5,92.725,40.));
#1380=CARTESIAN_POINT('',(101.5,171.7,45.329));
#1381=CARTESIAN_POINT('',(101.5,171.7,40.));
#1382=CARTESIAN_POINT('',(101.5,92.725,45.329));
#1383=CARTESIAN_POINT('Origin',(124.,89.6,40.));
#1384=CARTESIAN_POINT('',(124.,97.1,45.329));
#1385=CARTESIAN_POINT('',(131.5,89.6,45.329));
#1386=CARTESIAN_POINT('Origin',(124.,89.6,45.329));
#1387=CARTESIAN_POINT('',(131.5,89.6,40.));
#1388=CARTESIAN_POINT('',(131.5,89.6,40.));
#1389=CARTESIAN_POINT('',(124.,97.1,40.));
#1390=CARTESIAN_POINT('Origin',(124.,89.6,40.));
#1391=CARTESIAN_POINT('',(124.,97.1,40.));
#1392=CARTESIAN_POINT('Origin',(131.5,79.6,40.));
#1393=CARTESIAN_POINT('',(131.5,87.1,45.329));
#1394=CARTESIAN_POINT('',(131.5,83.975,45.329));
#1395=CARTESIAN_POINT('',(131.5,87.1,40.));
#1396=CARTESIAN_POINT('',(131.5,87.1,40.));
#1397=CARTESIAN_POINT('',(131.5,83.975,40.));
#1398=CARTESIAN_POINT('Origin',(65.75,88.35,45.329));
#1399=CARTESIAN_POINT('',(98.625,97.1,45.329));
#1400=CARTESIAN_POINT('',(96.5,176.7,45.329));
#1401=CARTESIAN_POINT('Origin',(96.5,171.7,45.329));
#1402=CARTESIAN_POINT('',(5.,176.7,45.329));
#1403=CARTESIAN_POINT('',(83.625,176.7,45.329));
#1404=CARTESIAN_POINT('',(0.,171.7,45.329));
#1405=CARTESIAN_POINT('Origin',(5.,171.7,45.329));
#1406=CARTESIAN_POINT('',(0.,5.,45.329));
#1407=CARTESIAN_POINT('',(0.,132.525,45.329));
#1408=CARTESIAN_POINT('',(5.,0.,45.329));
#1409=CARTESIAN_POINT('Origin',(5.,5.,45.329));
#1410=CARTESIAN_POINT('',(96.5,0.,45.329));
#1411=CARTESIAN_POINT('',(32.875,0.,45.329));
#1412=CARTESIAN_POINT('',(101.5,5.,45.329));
#1413=CARTESIAN_POINT('Origin',(96.5,5.,45.329));
#1414=CARTESIAN_POINT('',(101.5,72.1,45.329));
#1415=CARTESIAN_POINT('',(101.5,44.175,45.329));
#1416=CARTESIAN_POINT('',(109.,79.6,45.329));
#1417=CARTESIAN_POINT('Origin',(109.,72.1,45.329));
#1418=CARTESIAN_POINT('',(124.,79.6,45.329));
#1419=CARTESIAN_POINT('',(83.625,79.6,45.329));
#1420=CARTESIAN_POINT('Origin',(124.,87.1,45.329));
#1421=CARTESIAN_POINT('Origin',(124.,87.1,40.));
#1422=CARTESIAN_POINT('',(124.,79.6,40.));
#1423=CARTESIAN_POINT('',(124.,79.6,40.));
#1424=CARTESIAN_POINT('Origin',(124.,87.1,40.));
#1425=CARTESIAN_POINT('Origin',(65.75,88.35,40.));
#1426=CARTESIAN_POINT('',(109.,79.6,40.));
#1427=CARTESIAN_POINT('',(83.625,79.6,40.));
#1428=CARTESIAN_POINT('',(101.5,72.1,40.));
#1429=CARTESIAN_POINT('Origin',(109.,72.1,40.));
#1430=CARTESIAN_POINT('',(101.5,5.,40.));
#1431=CARTESIAN_POINT('',(101.5,44.175,40.));
#1432=CARTESIAN_POINT('',(96.5,0.,40.));
#1433=CARTESIAN_POINT('Origin',(96.5,5.,40.));
#1434=CARTESIAN_POINT('',(5.,0.,40.));
#1435=CARTESIAN_POINT('',(32.875,0.,40.));
#1436=CARTESIAN_POINT('',(0.,5.,40.));
#1437=CARTESIAN_POINT('Origin',(5.,5.,40.));
#1438=CARTESIAN_POINT('',(0.,132.525,40.));
#1439=CARTESIAN_POINT('',(0.,132.525,40.));
#1440=CARTESIAN_POINT('',(0.,171.7,40.));
#1441=CARTESIAN_POINT('',(0.,132.525,40.));
#1442=CARTESIAN_POINT('',(5.,176.7,40.));
#1443=CARTESIAN_POINT('Origin',(5.,171.7,40.));
#1444=CARTESIAN_POINT('',(96.5,176.7,40.));
#1445=CARTESIAN_POINT('',(83.625,176.7,40.));
#1446=CARTESIAN_POINT('Origin',(96.5,171.7,40.));
#1447=CARTESIAN_POINT('',(98.625,97.1,40.));
#1448=CARTESIAN_POINT('Origin',(101.5,79.6,40.));
#1449=CARTESIAN_POINT('',(109.,79.6,40.));
#1450=CARTESIAN_POINT('Origin',(109.,72.1,40.));
#1451=CARTESIAN_POINT('',(101.5,72.1,40.));
#1452=CARTESIAN_POINT('Origin',(96.5,5.,40.));
#1453=CARTESIAN_POINT('',(96.5,0.,40.));
#1454=CARTESIAN_POINT('',(101.5,5.,40.));
#1455=CARTESIAN_POINT('Origin',(0.,0.,40.));
#1456=CARTESIAN_POINT('',(5.,0.,40.));
#1457=CARTESIAN_POINT('Origin',(5.,5.,40.));
#1458=CARTESIAN_POINT('',(0.,5.,40.));
#1459=CARTESIAN_POINT('Origin',(0.,176.7,40.));
#1460=CARTESIAN_POINT('',(0.,171.7,40.));
#1461=CARTESIAN_POINT('Origin',(5.,171.7,40.));
#1462=CARTESIAN_POINT('',(5.,176.7,40.));
#1463=CARTESIAN_POINT('Origin',(101.5,176.7,40.));
#1464=CARTESIAN_POINT('',(96.5,176.7,40.));
#1465=CARTESIAN_POINT('Origin',(96.5,171.7,40.));
#1466=CARTESIAN_POINT('Origin',(131.5,97.1,40.));
#1467=CARTESIAN_POINT('Origin',(101.5,0.,40.));
#1468=UNCERTAINTY_MEASURE_WITH_UNIT(LENGTH_MEASURE(0.01),#1472,
'DISTANCE_ACCURACY_VALUE',
'Maximum model space distance between geometric entities at asserted c
onnectivities');
#1469=UNCERTAINTY_MEASURE_WITH_UNIT(LENGTH_MEASURE(0.01),#1472,
'DISTANCE_ACCURACY_VALUE',
'Maximum model space distance between geometric entities at asserted c
onnectivities');
#1470=(
GEOMETRIC_REPRESENTATION_CONTEXT(3)
GLOBAL_UNCERTAINTY_ASSIGNED_CONTEXT((#1468))
GLOBAL_UNIT_ASSIGNED_CONTEXT((#1472,#1473,#1474))
REPRESENTATION_CONTEXT('','3D')
);
#1471=(
GEOMETRIC_REPRESENTATION_CONTEXT(3)
GLOBAL_UNCERTAINTY_ASSIGNED_CONTEXT((#1469))
GLOBAL_UNIT_ASSIGNED_CONTEXT((#1472,#1473,#1474))
REPRESENTATION_CONTEXT('','3D')
);
#1472=(
LENGTH_UNIT()
NAMED_UNIT(*)
SI_UNIT(.MILLI.,.METRE.)
);
#1473=(
NAMED_UNIT(*)
PLANE_ANGLE_UNIT()
SI_UNIT($,.RADIAN.)
);
#1474=(
NAMED_UNIT(*)
SI_UNIT($,.STERADIAN.)
SOLID_ANGLE_UNIT()
);
#1475=SHAPE_DEFINITION_REPRESENTATION(#1476,#1477);
#1476=PRODUCT_DEFINITION_SHAPE('',$,#1479);
#1477=SHAPE_REPRESENTATION('',(#872),#1470);
#1478=PRODUCT_DEFINITION_CONTEXT('part definition',#1483,'design');
#1479=PRODUCT_DEFINITION('2026-08-08-16-07-59-361','Box v3',#1480,#1478);
#1480=PRODUCT_DEFINITION_FORMATION('',$,#1485);
#1481=PRODUCT_RELATED_PRODUCT_CATEGORY('Box v3','Box v3',(#1485));
#1482=APPLICATION_PROTOCOL_DEFINITION('international standard',
'automotive_design',2009,#1483);
#1483=APPLICATION_CONTEXT(
'Core Data for Automotive Mechanical Design Process');
#1484=PRODUCT_CONTEXT('part definition',#1483,'mechanical');
#1485=PRODUCT('2026-08-08-16-07-59-361','Box v3',$,(#1484));
#1486=PRESENTATION_STYLE_ASSIGNMENT((#1506));
#1487=PRESENTATION_STYLE_ASSIGNMENT((#1507));
#1488=PRESENTATION_STYLE_ASSIGNMENT((#1508));
#1489=PRESENTATION_STYLE_ASSIGNMENT((#1509));
#1490=PRESENTATION_STYLE_ASSIGNMENT((#1510));
#1491=PRESENTATION_STYLE_ASSIGNMENT((#1511));
#1492=PRESENTATION_STYLE_ASSIGNMENT((#1512));
#1493=PRESENTATION_STYLE_ASSIGNMENT((#1513));
#1494=PRESENTATION_STYLE_ASSIGNMENT((#1514));
#1495=PRESENTATION_STYLE_ASSIGNMENT((#1515));
#1496=PRESENTATION_STYLE_ASSIGNMENT((#1516));
#1497=PRESENTATION_STYLE_ASSIGNMENT((#1517));
#1498=PRESENTATION_STYLE_ASSIGNMENT((#1518));
#1499=PRESENTATION_STYLE_ASSIGNMENT((#1519));
#1500=PRESENTATION_STYLE_ASSIGNMENT((#1520));
#1501=PRESENTATION_STYLE_ASSIGNMENT((#1521));
#1502=PRESENTATION_STYLE_ASSIGNMENT((#1522));
#1503=PRESENTATION_STYLE_ASSIGNMENT((#1523));
#1504=PRESENTATION_STYLE_ASSIGNMENT((#1524));
#1505=PRESENTATION_STYLE_ASSIGNMENT((#1525));
#1506=SURFACE_STYLE_USAGE(.BOTH.,#1526);
#1507=SURFACE_STYLE_USAGE(.BOTH.,#1527);
#1508=SURFACE_STYLE_USAGE(.BOTH.,#1528);
#1509=SURFACE_STYLE_USAGE(.BOTH.,#1529);
#1510=SURFACE_STYLE_USAGE(.BOTH.,#1530);
#1511=SURFACE_STYLE_USAGE(.BOTH.,#1531);
#1512=SURFACE_STYLE_USAGE(.BOTH.,#1532);
#1513=SURFACE_STYLE_USAGE(.BOTH.,#1533);
#1514=SURFACE_STYLE_USAGE(.BOTH.,#1534);
#1515=SURFACE_STYLE_USAGE(.BOTH.,#1535);
#1516=SURFACE_STYLE_USAGE(.BOTH.,#1536);
#1517=SURFACE_STYLE_USAGE(.BOTH.,#1537);
#1518=SURFACE_STYLE_USAGE(.BOTH.,#1538);
#1519=SURFACE_STYLE_USAGE(.BOTH.,#1539);
#1520=SURFACE_STYLE_USAGE(.BOTH.,#1540);
#1521=SURFACE_STYLE_USAGE(.BOTH.,#1541);
#1522=SURFACE_STYLE_USAGE(.BOTH.,#1542);
#1523=SURFACE_STYLE_USAGE(.BOTH.,#1543);
#1524=SURFACE_STYLE_USAGE(.BOTH.,#1544);
#1525=SURFACE_STYLE_USAGE(.BOTH.,#1545);
#1526=SURFACE_SIDE_STYLE('',(#1546));
#1527=SURFACE_SIDE_STYLE('',(#1547));
#1528=SURFACE_SIDE_STYLE('',(#1548));
#1529=SURFACE_SIDE_STYLE('',(#1549));
#1530=SURFACE_SIDE_STYLE('',(#1550));
#1531=SURFACE_SIDE_STYLE('',(#1551));
#1532=SURFACE_SIDE_STYLE('',(#1552));
#1533=SURFACE_SIDE_STYLE('',(#1553));
#1534=SURFACE_SIDE_STYLE('',(#1554));
#1535=SURFACE_SIDE_STYLE('',(#1555));
#1536=SURFACE_SIDE_STYLE('',(#1556));
#1537=SURFACE_SIDE_STYLE('',(#1557));
#1538=SURFACE_SIDE_STYLE('',(#1558));
#1539=SURFACE_SIDE_STYLE('',(#1559));
#1540=SURFACE_SIDE_STYLE('',(#1560));
#1541=SURFACE_SIDE_STYLE('',(#1561));
#1542=SURFACE_SIDE_STYLE('',(#1562));
#1543=SURFACE_SIDE_STYLE('',(#1563));
#1544=SURFACE_SIDE_STYLE('',(#1564));
#1545=SURFACE_SIDE_STYLE('',(#1565));
#1546=SURFACE_STYLE_FILL_AREA(#1566);
#1547=SURFACE_STYLE_FILL_AREA(#1567);
#1548=SURFACE_STYLE_FILL_AREA(#1568);
#1549=SURFACE_STYLE_FILL_AREA(#1569);
#1550=SURFACE_STYLE_FILL_AREA(#1570);
#1551=SURFACE_STYLE_FILL_AREA(#1571);
#1552=SURFACE_STYLE_FILL_AREA(#1572);
#1553=SURFACE_STYLE_FILL_AREA(#1573);
#1554=SURFACE_STYLE_FILL_AREA(#1574);
#1555=SURFACE_STYLE_FILL_AREA(#1575);
#1556=SURFACE_STYLE_FILL_AREA(#1576);
#1557=SURFACE_STYLE_FILL_AREA(#1577);
#1558=SURFACE_STYLE_FILL_AREA(#1578);
#1559=SURFACE_STYLE_FILL_AREA(#1579);
#1560=SURFACE_STYLE_FILL_AREA(#1580);
#1561=SURFACE_STYLE_FILL_AREA(#1581);
#1562=SURFACE_STYLE_FILL_AREA(#1582);
#1563=SURFACE_STYLE_FILL_AREA(#1583);
#1564=SURFACE_STYLE_FILL_AREA(#1584);
#1565=SURFACE_STYLE_FILL_AREA(#1585);
#1566=FILL_AREA_STYLE('Opaque(120,110,70)',(#1586));
#1567=FILL_AREA_STYLE('Opaque(255,191,0)',(#1587));
#1568=FILL_AREA_STYLE('Opaque(0,170,255)',(#1588));
#1569=FILL_AREA_STYLE('Opaque(25,25,25)',(#1589));
#1570=FILL_AREA_STYLE('Opaque(244,244,244)',(#1590));
#1571=FILL_AREA_STYLE('Opaque(64,64,64)',(#1591));
#1572=FILL_AREA_STYLE('Opaque(246,246,243)',(#1592));
#1573=FILL_AREA_STYLE('Opaque(145,102,87)',(#1593));
#1574=FILL_AREA_STYLE('Opaque(63,63,63)',(#1594));
#1575=FILL_AREA_STYLE('Opaque(170,178,196)',(#1595));
#1576=FILL_AREA_STYLE('Opaque(128,128,128)',(#1596));
#1577=FILL_AREA_STYLE('Opaque(211,170,33)',(#1597));
#1578=FILL_AREA_STYLE('Opaque(255,255,255)',(#1598));
#1579=FILL_AREA_STYLE('Opaque(198,193,188)',(#1599));
#1580=FILL_AREA_STYLE('Opaque(192,192,192)',(#1600));
#1581=FILL_AREA_STYLE('Opaque(80,124,105)',(#1601));
#1582=FILL_AREA_STYLE('Steel - Satin',(#1602));
#1583=FILL_AREA_STYLE('ABS (White) (1)',(#1603));
#1584=FILL_AREA_STYLE('ABS (White)',(#1604));
#1585=FILL_AREA_STYLE('ABS (White)',(#1605));
#1586=FILL_AREA_STYLE_COLOUR('Opaque(120,110,70)',#1606);
#1587=FILL_AREA_STYLE_COLOUR('Opaque(255,191,0)',#1607);
#1588=FILL_AREA_STYLE_COLOUR('Opaque(0,170,255)',#1608);
#1589=FILL_AREA_STYLE_COLOUR('Opaque(25,25,25)',#1609);
#1590=FILL_AREA_STYLE_COLOUR('Opaque(244,244,244)',#1610);
#1591=FILL_AREA_STYLE_COLOUR('Opaque(64,64,64)',#1611);
#1592=FILL_AREA_STYLE_COLOUR('Opaque(246,246,243)',#1612);
#1593=FILL_AREA_STYLE_COLOUR('Opaque(145,102,87)',#1613);
#1594=FILL_AREA_STYLE_COLOUR('Opaque(63,63,63)',#1614);
#1595=FILL_AREA_STYLE_COLOUR('Opaque(170,178,196)',#1615);
#1596=FILL_AREA_STYLE_COLOUR('Opaque(128,128,128)',#1616);
#1597=FILL_AREA_STYLE_COLOUR('Opaque(211,170,33)',#1617);
#1598=FILL_AREA_STYLE_COLOUR('Opaque(255,255,255)',#1618);
#1599=FILL_AREA_STYLE_COLOUR('Opaque(198,193,188)',#1619);
#1600=FILL_AREA_STYLE_COLOUR('Opaque(192,192,192)',#1620);
#1601=FILL_AREA_STYLE_COLOUR('Opaque(80,124,105)',#1621);
#1602=FILL_AREA_STYLE_COLOUR('Steel - Satin',#1622);
#1603=FILL_AREA_STYLE_COLOUR('ABS (White) (1)',#1623);
#1604=FILL_AREA_STYLE_COLOUR('ABS (White)',#1624);
#1605=FILL_AREA_STYLE_COLOUR('ABS (White)',#1625);
#1606=COLOUR_RGB('Opaque(120,110,70)',0.470588235294118,0.431372549019608,
0.274509803921569);
#1607=COLOUR_RGB('Opaque(255,191,0)',1.,0.749019607843137,0.);
#1608=COLOUR_RGB('Opaque(0,170,255)',0.,0.666666666666667,1.);
#1609=COLOUR_RGB('Opaque(25,25,25)',0.0980392156862745,0.0980392156862745,
0.0980392156862745);
#1610=COLOUR_RGB('Opaque(244,244,244)',0.956862745098039,0.956862745098039,
0.956862745098039);
#1611=COLOUR_RGB('Opaque(64,64,64)',0.250980392156863,0.250980392156863,
0.250980392156863);
#1612=COLOUR_RGB('Opaque(246,246,243)',0.964705882352941,0.964705882352941,
0.952941176470588);
#1613=COLOUR_RGB('Opaque(145,102,87)',0.568627450980392,0.4,0.341176470588235);
#1614=COLOUR_RGB('Opaque(63,63,63)',0.250980392156863,0.250980392156863,
0.250980392156863);
#1615=COLOUR_RGB('Opaque(170,178,196)',0.666666666666667,0.698039215686274,
0.768627450980392);
#1616=COLOUR_RGB('Opaque(128,128,128)',0.501960784313725,0.501960784313725,
0.501960784313725);
#1617=COLOUR_RGB('Opaque(211,170,33)',0.827450980392157,0.666666666666667,
0.129411764705882);
#1618=COLOUR_RGB('Opaque(255,255,255)',1.,1.,1.);
#1619=COLOUR_RGB('Opaque(198,193,188)',0.776470588235294,0.756862745098039,
0.737254901960784);
#1620=COLOUR_RGB('Opaque(192,192,192)',0.752941176470588,0.752941176470588,
0.752941176470588);
#1621=COLOUR_RGB('Opaque(80,124,105)',0.313725490196078,0.486274509803922,
0.411764705882353);
#1622=COLOUR_RGB('Steel - Satin',0.627450980392157,0.627450980392157,0.627450980392157);
#1623=COLOUR_RGB('ABS (White) (1)',0.76078431372549,0.882352941176471,0.537254901960784);
#1624=COLOUR_RGB('ABS (White)',0.380392156862745,0.776470588235294,0.501960784313725);
#1625=COLOUR_RGB('ABS (White)',0.964705882352941,0.964705882352941,0.952941176470588);
ENDSEC;
END-ISO-10303-21;
