ISO-10303-21;
HEADER;
/* Generated by software containing ST-Developer
 * from STEP Tools, Inc. (www.steptools.com) 
 */

FILE_DESCRIPTION(
/* description */ (''),
/* implementation_level */ '2;1');

FILE_NAME(
/* name */ 'main_box.step',
/* time_stamp */ '2026-08-27T14:40:16+03:00',
/* author */ (''),
/* organization */ (''),
/* preprocessor_version */ 'ST-DEVELOPER v20.1',
/* originating_system */ 'Autodesk Translation Framework v15.8.0.0',
/* authorisation */ '');

FILE_SCHEMA (('AUTOMOTIVE_DESIGN { 1 0 10303 214 3 1 1 }'));
ENDSEC;

DATA;
#10=MECHANICAL_DESIGN_GEOMETRIC_PRESENTATION_REPRESENTATION('',(#13),#1197);
#11=SHAPE_REPRESENTATION_RELATIONSHIP('SRR','None',#1203,#12);
#12=ADVANCED_BREP_SHAPE_REPRESENTATION('',(#14),#1196);
#13=STYLED_ITEM('',(#1222),#14);
#14=MANIFOLD_SOLID_BREP('main_body',#727);
#15=FACE_BOUND('',#92,.T.);
#16=FACE_BOUND('',#94,.T.);
#17=FACE_BOUND('',#100,.T.);
#18=FACE_BOUND('',#102,.T.);
#19=FACE_BOUND('',#107,.T.);
#20=FACE_BOUND('',#109,.T.);
#21=FACE_BOUND('',#114,.T.);
#22=FACE_BOUND('',#116,.T.);
#23=FACE_BOUND('',#124,.T.);
#24=FACE_BOUND('',#128,.T.);
#25=FACE_BOUND('',#132,.T.);
#26=PLANE('',#732);
#27=PLANE('',#736);
#28=PLANE('',#737);
#29=PLANE('',#738);
#30=PLANE('',#742);
#31=PLANE('',#746);
#32=PLANE('',#747);
#33=PLANE('',#751);
#34=PLANE('',#755);
#35=PLANE('',#756);
#36=PLANE('',#760);
#37=PLANE('',#764);
#38=PLANE('',#765);
#39=PLANE('',#766);
#40=PLANE('',#770);
#41=PLANE('',#774);
#42=PLANE('',#775);
#43=PLANE('',#776);
#44=PLANE('',#777);
#45=PLANE('',#778);
#46=PLANE('',#779);
#47=PLANE('',#782);
#48=PLANE('',#783);
#49=PLANE('',#784);
#50=PLANE('',#789);
#51=FACE_OUTER_BOUND('',#88,.T.);
#52=FACE_OUTER_BOUND('',#89,.T.);
#53=FACE_OUTER_BOUND('',#90,.T.);
#54=FACE_OUTER_BOUND('',#91,.T.);
#55=FACE_OUTER_BOUND('',#93,.T.);
#56=FACE_OUTER_BOUND('',#95,.T.);
#57=FACE_OUTER_BOUND('',#96,.T.);
#58=FACE_OUTER_BOUND('',#97,.T.);
#59=FACE_OUTER_BOUND('',#98,.T.);
#60=FACE_OUTER_BOUND('',#99,.T.);
#61=FACE_OUTER_BOUND('',#101,.T.);
#62=FACE_OUTER_BOUND('',#103,.T.);
#63=FACE_OUTER_BOUND('',#104,.T.);
#64=FACE_OUTER_BOUND('',#105,.T.);
#65=FACE_OUTER_BOUND('',#106,.T.);
#66=FACE_OUTER_BOUND('',#108,.T.);
#67=FACE_OUTER_BOUND('',#110,.T.);
#68=FACE_OUTER_BOUND('',#111,.T.);
#69=FACE_OUTER_BOUND('',#112,.T.);
#70=FACE_OUTER_BOUND('',#113,.T.);
#71=FACE_OUTER_BOUND('',#115,.T.);
#72=FACE_OUTER_BOUND('',#117,.T.);
#73=FACE_OUTER_BOUND('',#118,.T.);
#74=FACE_OUTER_BOUND('',#119,.T.);
#75=FACE_OUTER_BOUND('',#120,.T.);
#76=FACE_OUTER_BOUND('',#121,.T.);
#77=FACE_OUTER_BOUND('',#122,.T.);
#78=FACE_OUTER_BOUND('',#123,.T.);
#79=FACE_OUTER_BOUND('',#125,.T.);
#80=FACE_OUTER_BOUND('',#126,.T.);
#81=FACE_OUTER_BOUND('',#127,.T.);
#82=FACE_OUTER_BOUND('',#129,.T.);
#83=FACE_OUTER_BOUND('',#130,.T.);
#84=FACE_OUTER_BOUND('',#131,.T.);
#85=FACE_OUTER_BOUND('',#133,.T.);
#86=FACE_OUTER_BOUND('',#134,.T.);
#87=FACE_OUTER_BOUND('',#135,.T.);
#88=EDGE_LOOP('',(#478,#479,#480,#481));
#89=EDGE_LOOP('',(#482,#483,#484,#485));
#90=EDGE_LOOP('',(#486,#487,#488,#489));
#91=EDGE_LOOP('',(#490,#491,#492,#493));
#92=EDGE_LOOP('',(#494));
#93=EDGE_LOOP('',(#495,#496,#497,#498));
#94=EDGE_LOOP('',(#499));
#95=EDGE_LOOP('',(#500,#501,#502,#503,#504,#505,#506,#507,#508,#509,#510,
#511,#512,#513,#514,#515));
#96=EDGE_LOOP('',(#516,#517,#518,#519));
#97=EDGE_LOOP('',(#520,#521,#522,#523));
#98=EDGE_LOOP('',(#524,#525,#526,#527));
#99=EDGE_LOOP('',(#528,#529,#530,#531));
#100=EDGE_LOOP('',(#532));
#101=EDGE_LOOP('',(#533,#534,#535,#536));
#102=EDGE_LOOP('',(#537));
#103=EDGE_LOOP('',(#538,#539,#540,#541));
#104=EDGE_LOOP('',(#542,#543,#544,#545));
#105=EDGE_LOOP('',(#546,#547,#548,#549));
#106=EDGE_LOOP('',(#550,#551,#552,#553));
#107=EDGE_LOOP('',(#554));
#108=EDGE_LOOP('',(#555,#556,#557,#558));
#109=EDGE_LOOP('',(#559));
#110=EDGE_LOOP('',(#560,#561,#562,#563));
#111=EDGE_LOOP('',(#564,#565,#566,#567));
#112=EDGE_LOOP('',(#568,#569,#570,#571));
#113=EDGE_LOOP('',(#572,#573,#574,#575));
#114=EDGE_LOOP('',(#576));
#115=EDGE_LOOP('',(#577,#578,#579,#580));
#116=EDGE_LOOP('',(#581));
#117=EDGE_LOOP('',(#582,#583,#584,#585));
#118=EDGE_LOOP('',(#586,#587,#588,#589));
#119=EDGE_LOOP('',(#590,#591,#592,#593));
#120=EDGE_LOOP('',(#594,#595,#596,#597));
#121=EDGE_LOOP('',(#598,#599,#600,#601));
#122=EDGE_LOOP('',(#602,#603,#604,#605));
#123=EDGE_LOOP('',(#606,#607,#608,#609));
#124=EDGE_LOOP('',(#610,#611,#612,#613));
#125=EDGE_LOOP('',(#614,#615,#616,#617));
#126=EDGE_LOOP('',(#618,#619,#620,#621));
#127=EDGE_LOOP('',(#622,#623,#624,#625,#626,#627,#628,#629,#630,#631,#632,
#633,#634,#635,#636,#637,#638,#639,#640,#641));
#128=EDGE_LOOP('',(#642,#643,#644,#645));
#129=EDGE_LOOP('',(#646,#647,#648,#649));
#130=EDGE_LOOP('',(#650,#651,#652,#653));
#131=EDGE_LOOP('',(#654,#655,#656,#657));
#132=EDGE_LOOP('',(#658,#659,#660,#661));
#133=EDGE_LOOP('',(#662,#663,#664,#665,#666));
#134=EDGE_LOOP('',(#667,#668,#669,#670,#671));
#135=EDGE_LOOP('',(#672,#673,#674,#675,#676,#677));
#136=LINE('',#995,#212);
#137=LINE('',#1000,#213);
#138=LINE('',#1002,#214);
#139=LINE('',#1004,#215);
#140=LINE('',#1005,#216);
#141=LINE('',#1010,#217);
#142=LINE('',#1014,#218);
#143=LINE('',#1015,#219);
#144=LINE('',#1018,#220);
#145=LINE('',#1019,#221);
#146=LINE('',#1022,#222);
#147=LINE('',#1024,#223);
#148=LINE('',#1026,#224);
#149=LINE('',#1028,#225);
#150=LINE('',#1030,#226);
#151=LINE('',#1032,#227);
#152=LINE('',#1034,#228);
#153=LINE('',#1036,#229);
#154=LINE('',#1038,#230);
#155=LINE('',#1040,#231);
#156=LINE('',#1042,#232);
#157=LINE('',#1044,#233);
#158=LINE('',#1046,#234);
#159=LINE('',#1047,#235);
#160=LINE('',#1052,#236);
#161=LINE('',#1056,#237);
#162=LINE('',#1058,#238);
#163=LINE('',#1059,#239);
#164=LINE('',#1064,#240);
#165=LINE('',#1067,#241);
#166=LINE('',#1069,#242);
#167=LINE('',#1074,#243);
#168=LINE('',#1078,#244);
#169=LINE('',#1080,#245);
#170=LINE('',#1081,#246);
#171=LINE('',#1087,#247);
#172=LINE('',#1090,#248);
#173=LINE('',#1091,#249);
#174=LINE('',#1093,#250);
#175=LINE('',#1098,#251);
#176=LINE('',#1102,#252);
#177=LINE('',#1104,#253);
#178=LINE('',#1105,#254);
#179=LINE('',#1111,#255);
#180=LINE('',#1113,#256);
#181=LINE('',#1115,#257);
#182=LINE('',#1119,#258);
#183=LINE('',#1121,#259);
#184=LINE('',#1123,#260);
#185=LINE('',#1124,#261);
#186=LINE('',#1130,#262);
#187=LINE('',#1133,#263);
#188=LINE('',#1135,#264);
#189=LINE('',#1136,#265);
#190=LINE('',#1143,#266);
#191=LINE('',#1145,#267);
#192=LINE('',#1147,#268);
#193=LINE('',#1148,#269);
#194=LINE('',#1151,#270);
#195=LINE('',#1153,#271);
#196=LINE('',#1154,#272);
#197=LINE('',#1157,#273);
#198=LINE('',#1159,#274);
#199=LINE('',#1160,#275);
#200=LINE('',#1162,#276);
#201=LINE('',#1163,#277);
#202=LINE('',#1169,#278);
#203=LINE('',#1171,#279);
#204=LINE('',#1173,#280);
#205=LINE('',#1177,#281);
#206=LINE('',#1179,#282);
#207=LINE('',#1180,#283);
#208=LINE('',#1183,#284);
#209=LINE('',#1184,#285);
#210=LINE('',#1187,#286);
#211=LINE('',#1188,#287);
#212=VECTOR('',#796,1.2);
#213=VECTOR('',#801,10.);
#214=VECTOR('',#802,10.);
#215=VECTOR('',#803,10.);
#216=VECTOR('',#804,10.);
#217=VECTOR('',#809,10.);
#218=VECTOR('',#814,10.);
#219=VECTOR('',#815,10.);
#220=VECTOR('',#818,10.);
#221=VECTOR('',#819,10.);
#222=VECTOR('',#822,10.);
#223=VECTOR('',#823,10.);
#224=VECTOR('',#824,10.);
#225=VECTOR('',#825,10.);
#226=VECTOR('',#826,10.);
#227=VECTOR('',#827,10.);
#228=VECTOR('',#828,10.);
#229=VECTOR('',#829,10.);
#230=VECTOR('',#830,10.);
#231=VECTOR('',#831,10.);
#232=VECTOR('',#832,10.);
#233=VECTOR('',#833,10.);
#234=VECTOR('',#834,10.);
#235=VECTOR('',#835,10.);
#236=VECTOR('',#840,1.2);
#237=VECTOR('',#845,10.);
#238=VECTOR('',#846,10.);
#239=VECTOR('',#847,10.);
#240=VECTOR('',#852,10.);
#241=VECTOR('',#857,10.);
#242=VECTOR('',#860,10.);
#243=VECTOR('',#865,1.2);
#244=VECTOR('',#870,10.);
#245=VECTOR('',#871,10.);
#246=VECTOR('',#872,10.);
#247=VECTOR('',#879,10.);
#248=VECTOR('',#882,10.);
#249=VECTOR('',#883,10.);
#250=VECTOR('',#886,10.);
#251=VECTOR('',#891,1.2);
#252=VECTOR('',#896,10.);
#253=VECTOR('',#897,10.);
#254=VECTOR('',#898,10.);
#255=VECTOR('',#905,10.);
#256=VECTOR('',#908,10.);
#257=VECTOR('',#911,10.);
#258=VECTOR('',#914,10.);
#259=VECTOR('',#915,10.);
#260=VECTOR('',#916,10.);
#261=VECTOR('',#917,10.);
#262=VECTOR('',#924,10.);
#263=VECTOR('',#927,10.);
#264=VECTOR('',#928,10.);
#265=VECTOR('',#929,10.);
#266=VECTOR('',#938,10.);
#267=VECTOR('',#939,10.);
#268=VECTOR('',#940,10.);
#269=VECTOR('',#941,10.);
#270=VECTOR('',#944,10.);
#271=VECTOR('',#945,10.);
#272=VECTOR('',#946,10.);
#273=VECTOR('',#949,10.);
#274=VECTOR('',#950,10.);
#275=VECTOR('',#951,10.);
#276=VECTOR('',#954,10.);
#277=VECTOR('',#955,10.);
#278=VECTOR('',#962,10.);
#279=VECTOR('',#963,10.);
#280=VECTOR('',#964,10.);
#281=VECTOR('',#969,10.);
#282=VECTOR('',#970,10.);
#283=VECTOR('',#971,10.);
#284=VECTOR('',#974,10.);
#285=VECTOR('',#975,10.);
#286=VECTOR('',#978,10.);
#287=VECTOR('',#979,10.);
#288=CIRCLE('',#730,1.4);
#289=CIRCLE('',#731,1.4);
#290=CIRCLE('',#734,2.);
#291=CIRCLE('',#735,2.);
#292=CIRCLE('',#740,1.4);
#293=CIRCLE('',#741,1.4);
#294=CIRCLE('',#744,2.);
#295=CIRCLE('',#745,2.);
#296=CIRCLE('',#749,1.4);
#297=CIRCLE('',#750,1.4);
#298=CIRCLE('',#753,2.);
#299=CIRCLE('',#754,2.);
#300=CIRCLE('',#758,1.4);
#301=CIRCLE('',#759,1.4);
#302=CIRCLE('',#762,2.);
#303=CIRCLE('',#763,2.);
#304=CIRCLE('',#768,3.25);
#305=CIRCLE('',#769,3.25);
#306=CIRCLE('',#772,3.25);
#307=CIRCLE('',#773,3.25);
#308=CIRCLE('',#780,5.);
#309=CIRCLE('',#781,5.);
#310=CIRCLE('',#786,5.);
#311=CIRCLE('',#788,5.);
#312=VERTEX_POINT('',#992);
#313=VERTEX_POINT('',#994);
#314=VERTEX_POINT('',#998);
#315=VERTEX_POINT('',#999);
#316=VERTEX_POINT('',#1001);
#317=VERTEX_POINT('',#1003);
#318=VERTEX_POINT('',#1007);
#319=VERTEX_POINT('',#1009);
#320=VERTEX_POINT('',#1013);
#321=VERTEX_POINT('',#1017);
#322=VERTEX_POINT('',#1021);
#323=VERTEX_POINT('',#1023);
#324=VERTEX_POINT('',#1025);
#325=VERTEX_POINT('',#1027);
#326=VERTEX_POINT('',#1029);
#327=VERTEX_POINT('',#1031);
#328=VERTEX_POINT('',#1033);
#329=VERTEX_POINT('',#1035);
#330=VERTEX_POINT('',#1037);
#331=VERTEX_POINT('',#1039);
#332=VERTEX_POINT('',#1041);
#333=VERTEX_POINT('',#1043);
#334=VERTEX_POINT('',#1045);
#335=VERTEX_POINT('',#1049);
#336=VERTEX_POINT('',#1051);
#337=VERTEX_POINT('',#1055);
#338=VERTEX_POINT('',#1057);
#339=VERTEX_POINT('',#1061);
#340=VERTEX_POINT('',#1063);
#341=VERTEX_POINT('',#1071);
#342=VERTEX_POINT('',#1073);
#343=VERTEX_POINT('',#1077);
#344=VERTEX_POINT('',#1079);
#345=VERTEX_POINT('',#1083);
#346=VERTEX_POINT('',#1085);
#347=VERTEX_POINT('',#1089);
#348=VERTEX_POINT('',#1095);
#349=VERTEX_POINT('',#1097);
#350=VERTEX_POINT('',#1101);
#351=VERTEX_POINT('',#1103);
#352=VERTEX_POINT('',#1107);
#353=VERTEX_POINT('',#1109);
#354=VERTEX_POINT('',#1117);
#355=VERTEX_POINT('',#1118);
#356=VERTEX_POINT('',#1120);
#357=VERTEX_POINT('',#1122);
#358=VERTEX_POINT('',#1126);
#359=VERTEX_POINT('',#1128);
#360=VERTEX_POINT('',#1132);
#361=VERTEX_POINT('',#1134);
#362=VERTEX_POINT('',#1141);
#363=VERTEX_POINT('',#1142);
#364=VERTEX_POINT('',#1144);
#365=VERTEX_POINT('',#1146);
#366=VERTEX_POINT('',#1150);
#367=VERTEX_POINT('',#1152);
#368=VERTEX_POINT('',#1156);
#369=VERTEX_POINT('',#1158);
#370=VERTEX_POINT('',#1166);
#371=VERTEX_POINT('',#1168);
#372=VERTEX_POINT('',#1170);
#373=VERTEX_POINT('',#1172);
#374=VERTEX_POINT('',#1176);
#375=VERTEX_POINT('',#1178);
#376=VERTEX_POINT('',#1182);
#377=VERTEX_POINT('',#1186);
#378=EDGE_CURVE('',#312,#312,#288,.F.);
#379=EDGE_CURVE('',#312,#313,#136,.T.);
#380=EDGE_CURVE('',#313,#313,#289,.T.);
#381=EDGE_CURVE('',#314,#315,#137,.T.);
#382=EDGE_CURVE('',#315,#316,#138,.T.);
#383=EDGE_CURVE('',#316,#317,#139,.T.);
#384=EDGE_CURVE('',#314,#317,#140,.T.);
#385=EDGE_CURVE('',#315,#318,#290,.T.);
#386=EDGE_CURVE('',#318,#319,#141,.T.);
#387=EDGE_CURVE('',#319,#316,#291,.T.);
#388=EDGE_CURVE('',#320,#314,#142,.T.);
#389=EDGE_CURVE('',#318,#320,#143,.T.);
#390=EDGE_CURVE('',#321,#319,#144,.T.);
#391=EDGE_CURVE('',#317,#321,#145,.T.);
#392=EDGE_CURVE('',#321,#322,#146,.T.);
#393=EDGE_CURVE('',#322,#323,#147,.T.);
#394=EDGE_CURVE('',#323,#324,#148,.T.);
#395=EDGE_CURVE('',#324,#325,#149,.T.);
#396=EDGE_CURVE('',#325,#326,#150,.T.);
#397=EDGE_CURVE('',#326,#327,#151,.T.);
#398=EDGE_CURVE('',#327,#328,#152,.T.);
#399=EDGE_CURVE('',#328,#329,#153,.T.);
#400=EDGE_CURVE('',#329,#330,#154,.T.);
#401=EDGE_CURVE('',#330,#331,#155,.T.);
#402=EDGE_CURVE('',#331,#332,#156,.T.);
#403=EDGE_CURVE('',#333,#332,#157,.T.);
#404=EDGE_CURVE('',#333,#334,#158,.T.);
#405=EDGE_CURVE('',#314,#334,#159,.T.);
#406=EDGE_CURVE('',#335,#335,#292,.T.);
#407=EDGE_CURVE('',#335,#336,#160,.T.);
#408=EDGE_CURVE('',#336,#336,#293,.F.);
#409=EDGE_CURVE('',#323,#337,#161,.T.);
#410=EDGE_CURVE('',#337,#338,#162,.T.);
#411=EDGE_CURVE('',#338,#324,#163,.T.);
#412=EDGE_CURVE('',#337,#339,#294,.T.);
#413=EDGE_CURVE('',#339,#340,#164,.T.);
#414=EDGE_CURVE('',#340,#338,#295,.T.);
#415=EDGE_CURVE('',#339,#322,#165,.T.);
#416=EDGE_CURVE('',#325,#340,#166,.T.);
#417=EDGE_CURVE('',#341,#341,#296,.T.);
#418=EDGE_CURVE('',#341,#342,#167,.T.);
#419=EDGE_CURVE('',#342,#342,#297,.F.);
#420=EDGE_CURVE('',#332,#343,#168,.T.);
#421=EDGE_CURVE('',#344,#331,#169,.T.);
#422=EDGE_CURVE('',#343,#344,#170,.T.);
#423=EDGE_CURVE('',#343,#345,#298,.T.);
#424=EDGE_CURVE('',#346,#344,#299,.T.);
#425=EDGE_CURVE('',#345,#346,#171,.T.);
#426=EDGE_CURVE('',#345,#347,#172,.T.);
#427=EDGE_CURVE('',#332,#347,#173,.T.);
#428=EDGE_CURVE('',#330,#346,#174,.T.);
#429=EDGE_CURVE('',#348,#348,#300,.F.);
#430=EDGE_CURVE('',#348,#349,#175,.T.);
#431=EDGE_CURVE('',#349,#349,#301,.T.);
#432=EDGE_CURVE('',#328,#350,#176,.T.);
#433=EDGE_CURVE('',#351,#327,#177,.T.);
#434=EDGE_CURVE('',#350,#351,#178,.T.);
#435=EDGE_CURVE('',#350,#352,#302,.T.);
#436=EDGE_CURVE('',#353,#351,#303,.T.);
#437=EDGE_CURVE('',#352,#353,#179,.T.);
#438=EDGE_CURVE('',#352,#329,#180,.T.);
#439=EDGE_CURVE('',#326,#353,#181,.T.);
#440=EDGE_CURVE('',#354,#355,#182,.T.);
#441=EDGE_CURVE('',#356,#354,#183,.T.);
#442=EDGE_CURVE('',#357,#356,#184,.T.);
#443=EDGE_CURVE('',#357,#355,#185,.T.);
#444=EDGE_CURVE('',#355,#358,#304,.T.);
#445=EDGE_CURVE('',#359,#357,#305,.T.);
#446=EDGE_CURVE('',#359,#358,#186,.T.);
#447=EDGE_CURVE('',#358,#360,#187,.T.);
#448=EDGE_CURVE('',#361,#359,#188,.T.);
#449=EDGE_CURVE('',#361,#360,#189,.T.);
#450=EDGE_CURVE('',#360,#354,#306,.T.);
#451=EDGE_CURVE('',#356,#361,#307,.T.);
#452=EDGE_CURVE('',#362,#363,#190,.F.);
#453=EDGE_CURVE('',#362,#364,#191,.T.);
#454=EDGE_CURVE('',#365,#364,#192,.T.);
#455=EDGE_CURVE('',#363,#365,#193,.F.);
#456=EDGE_CURVE('',#366,#362,#194,.F.);
#457=EDGE_CURVE('',#366,#367,#195,.F.);
#458=EDGE_CURVE('',#364,#367,#196,.T.);
#459=EDGE_CURVE('',#363,#368,#197,.F.);
#460=EDGE_CURVE('',#369,#365,#198,.T.);
#461=EDGE_CURVE('',#368,#369,#199,.F.);
#462=EDGE_CURVE('',#367,#369,#200,.T.);
#463=EDGE_CURVE('',#368,#366,#201,.F.);
#464=EDGE_CURVE('',#370,#320,#308,.T.);
#465=EDGE_CURVE('',#371,#370,#202,.T.);
#466=EDGE_CURVE('',#372,#371,#203,.T.);
#467=EDGE_CURVE('',#373,#372,#204,.T.);
#468=EDGE_CURVE('',#347,#373,#309,.T.);
#469=EDGE_CURVE('',#374,#372,#205,.T.);
#470=EDGE_CURVE('',#374,#375,#206,.T.);
#471=EDGE_CURVE('',#373,#375,#207,.T.);
#472=EDGE_CURVE('',#376,#371,#208,.T.);
#473=EDGE_CURVE('',#376,#374,#209,.T.);
#474=EDGE_CURVE('',#377,#370,#210,.T.);
#475=EDGE_CURVE('',#377,#376,#211,.T.);
#476=EDGE_CURVE('',#334,#377,#310,.T.);
#477=EDGE_CURVE('',#375,#333,#311,.T.);
#478=ORIENTED_EDGE('',*,*,#378,.T.);
#479=ORIENTED_EDGE('',*,*,#379,.T.);
#480=ORIENTED_EDGE('',*,*,#380,.T.);
#481=ORIENTED_EDGE('',*,*,#379,.F.);
#482=ORIENTED_EDGE('',*,*,#381,.T.);
#483=ORIENTED_EDGE('',*,*,#382,.T.);
#484=ORIENTED_EDGE('',*,*,#383,.T.);
#485=ORIENTED_EDGE('',*,*,#384,.F.);
#486=ORIENTED_EDGE('',*,*,#385,.T.);
#487=ORIENTED_EDGE('',*,*,#386,.T.);
#488=ORIENTED_EDGE('',*,*,#387,.T.);
#489=ORIENTED_EDGE('',*,*,#382,.F.);
#490=ORIENTED_EDGE('',*,*,#385,.F.);
#491=ORIENTED_EDGE('',*,*,#381,.F.);
#492=ORIENTED_EDGE('',*,*,#388,.F.);
#493=ORIENTED_EDGE('',*,*,#389,.F.);
#494=ORIENTED_EDGE('',*,*,#380,.F.);
#495=ORIENTED_EDGE('',*,*,#387,.F.);
#496=ORIENTED_EDGE('',*,*,#390,.F.);
#497=ORIENTED_EDGE('',*,*,#391,.F.);
#498=ORIENTED_EDGE('',*,*,#383,.F.);
#499=ORIENTED_EDGE('',*,*,#378,.F.);
#500=ORIENTED_EDGE('',*,*,#384,.T.);
#501=ORIENTED_EDGE('',*,*,#391,.T.);
#502=ORIENTED_EDGE('',*,*,#392,.T.);
#503=ORIENTED_EDGE('',*,*,#393,.T.);
#504=ORIENTED_EDGE('',*,*,#394,.T.);
#505=ORIENTED_EDGE('',*,*,#395,.T.);
#506=ORIENTED_EDGE('',*,*,#396,.T.);
#507=ORIENTED_EDGE('',*,*,#397,.T.);
#508=ORIENTED_EDGE('',*,*,#398,.T.);
#509=ORIENTED_EDGE('',*,*,#399,.T.);
#510=ORIENTED_EDGE('',*,*,#400,.T.);
#511=ORIENTED_EDGE('',*,*,#401,.T.);
#512=ORIENTED_EDGE('',*,*,#402,.T.);
#513=ORIENTED_EDGE('',*,*,#403,.F.);
#514=ORIENTED_EDGE('',*,*,#404,.T.);
#515=ORIENTED_EDGE('',*,*,#405,.F.);
#516=ORIENTED_EDGE('',*,*,#406,.T.);
#517=ORIENTED_EDGE('',*,*,#407,.T.);
#518=ORIENTED_EDGE('',*,*,#408,.T.);
#519=ORIENTED_EDGE('',*,*,#407,.F.);
#520=ORIENTED_EDGE('',*,*,#409,.T.);
#521=ORIENTED_EDGE('',*,*,#410,.T.);
#522=ORIENTED_EDGE('',*,*,#411,.T.);
#523=ORIENTED_EDGE('',*,*,#394,.F.);
#524=ORIENTED_EDGE('',*,*,#412,.T.);
#525=ORIENTED_EDGE('',*,*,#413,.T.);
#526=ORIENTED_EDGE('',*,*,#414,.T.);
#527=ORIENTED_EDGE('',*,*,#410,.F.);
#528=ORIENTED_EDGE('',*,*,#415,.F.);
#529=ORIENTED_EDGE('',*,*,#412,.F.);
#530=ORIENTED_EDGE('',*,*,#409,.F.);
#531=ORIENTED_EDGE('',*,*,#393,.F.);
#532=ORIENTED_EDGE('',*,*,#408,.F.);
#533=ORIENTED_EDGE('',*,*,#416,.F.);
#534=ORIENTED_EDGE('',*,*,#395,.F.);
#535=ORIENTED_EDGE('',*,*,#411,.F.);
#536=ORIENTED_EDGE('',*,*,#414,.F.);
#537=ORIENTED_EDGE('',*,*,#406,.F.);
#538=ORIENTED_EDGE('',*,*,#417,.F.);
#539=ORIENTED_EDGE('',*,*,#418,.T.);
#540=ORIENTED_EDGE('',*,*,#419,.F.);
#541=ORIENTED_EDGE('',*,*,#418,.F.);
#542=ORIENTED_EDGE('',*,*,#420,.F.);
#543=ORIENTED_EDGE('',*,*,#402,.F.);
#544=ORIENTED_EDGE('',*,*,#421,.F.);
#545=ORIENTED_EDGE('',*,*,#422,.F.);
#546=ORIENTED_EDGE('',*,*,#423,.F.);
#547=ORIENTED_EDGE('',*,*,#422,.T.);
#548=ORIENTED_EDGE('',*,*,#424,.F.);
#549=ORIENTED_EDGE('',*,*,#425,.F.);
#550=ORIENTED_EDGE('',*,*,#423,.T.);
#551=ORIENTED_EDGE('',*,*,#426,.T.);
#552=ORIENTED_EDGE('',*,*,#427,.F.);
#553=ORIENTED_EDGE('',*,*,#420,.T.);
#554=ORIENTED_EDGE('',*,*,#419,.T.);
#555=ORIENTED_EDGE('',*,*,#424,.T.);
#556=ORIENTED_EDGE('',*,*,#421,.T.);
#557=ORIENTED_EDGE('',*,*,#401,.F.);
#558=ORIENTED_EDGE('',*,*,#428,.T.);
#559=ORIENTED_EDGE('',*,*,#417,.T.);
#560=ORIENTED_EDGE('',*,*,#429,.F.);
#561=ORIENTED_EDGE('',*,*,#430,.T.);
#562=ORIENTED_EDGE('',*,*,#431,.F.);
#563=ORIENTED_EDGE('',*,*,#430,.F.);
#564=ORIENTED_EDGE('',*,*,#432,.F.);
#565=ORIENTED_EDGE('',*,*,#398,.F.);
#566=ORIENTED_EDGE('',*,*,#433,.F.);
#567=ORIENTED_EDGE('',*,*,#434,.F.);
#568=ORIENTED_EDGE('',*,*,#435,.F.);
#569=ORIENTED_EDGE('',*,*,#434,.T.);
#570=ORIENTED_EDGE('',*,*,#436,.F.);
#571=ORIENTED_EDGE('',*,*,#437,.F.);
#572=ORIENTED_EDGE('',*,*,#438,.T.);
#573=ORIENTED_EDGE('',*,*,#399,.F.);
#574=ORIENTED_EDGE('',*,*,#432,.T.);
#575=ORIENTED_EDGE('',*,*,#435,.T.);
#576=ORIENTED_EDGE('',*,*,#431,.T.);
#577=ORIENTED_EDGE('',*,*,#439,.T.);
#578=ORIENTED_EDGE('',*,*,#436,.T.);
#579=ORIENTED_EDGE('',*,*,#433,.T.);
#580=ORIENTED_EDGE('',*,*,#397,.F.);
#581=ORIENTED_EDGE('',*,*,#429,.T.);
#582=ORIENTED_EDGE('',*,*,#440,.F.);
#583=ORIENTED_EDGE('',*,*,#441,.F.);
#584=ORIENTED_EDGE('',*,*,#442,.F.);
#585=ORIENTED_EDGE('',*,*,#443,.T.);
#586=ORIENTED_EDGE('',*,*,#444,.F.);
#587=ORIENTED_EDGE('',*,*,#443,.F.);
#588=ORIENTED_EDGE('',*,*,#445,.F.);
#589=ORIENTED_EDGE('',*,*,#446,.T.);
#590=ORIENTED_EDGE('',*,*,#447,.F.);
#591=ORIENTED_EDGE('',*,*,#446,.F.);
#592=ORIENTED_EDGE('',*,*,#448,.F.);
#593=ORIENTED_EDGE('',*,*,#449,.T.);
#594=ORIENTED_EDGE('',*,*,#450,.F.);
#595=ORIENTED_EDGE('',*,*,#449,.F.);
#596=ORIENTED_EDGE('',*,*,#451,.F.);
#597=ORIENTED_EDGE('',*,*,#441,.T.);
#598=ORIENTED_EDGE('',*,*,#452,.F.);
#599=ORIENTED_EDGE('',*,*,#453,.T.);
#600=ORIENTED_EDGE('',*,*,#454,.F.);
#601=ORIENTED_EDGE('',*,*,#455,.F.);
#602=ORIENTED_EDGE('',*,*,#453,.F.);
#603=ORIENTED_EDGE('',*,*,#456,.F.);
#604=ORIENTED_EDGE('',*,*,#457,.T.);
#605=ORIENTED_EDGE('',*,*,#458,.F.);
#606=ORIENTED_EDGE('',*,*,#459,.F.);
#607=ORIENTED_EDGE('',*,*,#455,.T.);
#608=ORIENTED_EDGE('',*,*,#460,.F.);
#609=ORIENTED_EDGE('',*,*,#461,.F.);
#610=ORIENTED_EDGE('',*,*,#447,.T.);
#611=ORIENTED_EDGE('',*,*,#450,.T.);
#612=ORIENTED_EDGE('',*,*,#440,.T.);
#613=ORIENTED_EDGE('',*,*,#444,.T.);
#614=ORIENTED_EDGE('',*,*,#462,.F.);
#615=ORIENTED_EDGE('',*,*,#457,.F.);
#616=ORIENTED_EDGE('',*,*,#463,.F.);
#617=ORIENTED_EDGE('',*,*,#461,.T.);
#618=ORIENTED_EDGE('',*,*,#452,.T.);
#619=ORIENTED_EDGE('',*,*,#459,.T.);
#620=ORIENTED_EDGE('',*,*,#463,.T.);
#621=ORIENTED_EDGE('',*,*,#456,.T.);
#622=ORIENTED_EDGE('',*,*,#464,.F.);
#623=ORIENTED_EDGE('',*,*,#465,.F.);
#624=ORIENTED_EDGE('',*,*,#466,.F.);
#625=ORIENTED_EDGE('',*,*,#467,.F.);
#626=ORIENTED_EDGE('',*,*,#468,.F.);
#627=ORIENTED_EDGE('',*,*,#426,.F.);
#628=ORIENTED_EDGE('',*,*,#425,.T.);
#629=ORIENTED_EDGE('',*,*,#428,.F.);
#630=ORIENTED_EDGE('',*,*,#400,.F.);
#631=ORIENTED_EDGE('',*,*,#438,.F.);
#632=ORIENTED_EDGE('',*,*,#437,.T.);
#633=ORIENTED_EDGE('',*,*,#439,.F.);
#634=ORIENTED_EDGE('',*,*,#396,.F.);
#635=ORIENTED_EDGE('',*,*,#416,.T.);
#636=ORIENTED_EDGE('',*,*,#413,.F.);
#637=ORIENTED_EDGE('',*,*,#415,.T.);
#638=ORIENTED_EDGE('',*,*,#392,.F.);
#639=ORIENTED_EDGE('',*,*,#390,.T.);
#640=ORIENTED_EDGE('',*,*,#386,.F.);
#641=ORIENTED_EDGE('',*,*,#389,.T.);
#642=ORIENTED_EDGE('',*,*,#454,.T.);
#643=ORIENTED_EDGE('',*,*,#458,.T.);
#644=ORIENTED_EDGE('',*,*,#462,.T.);
#645=ORIENTED_EDGE('',*,*,#460,.T.);
#646=ORIENTED_EDGE('',*,*,#467,.T.);
#647=ORIENTED_EDGE('',*,*,#469,.F.);
#648=ORIENTED_EDGE('',*,*,#470,.T.);
#649=ORIENTED_EDGE('',*,*,#471,.F.);
#650=ORIENTED_EDGE('',*,*,#466,.T.);
#651=ORIENTED_EDGE('',*,*,#472,.F.);
#652=ORIENTED_EDGE('',*,*,#473,.T.);
#653=ORIENTED_EDGE('',*,*,#469,.T.);
#654=ORIENTED_EDGE('',*,*,#465,.T.);
#655=ORIENTED_EDGE('',*,*,#474,.F.);
#656=ORIENTED_EDGE('',*,*,#475,.T.);
#657=ORIENTED_EDGE('',*,*,#472,.T.);
#658=ORIENTED_EDGE('',*,*,#448,.T.);
#659=ORIENTED_EDGE('',*,*,#445,.T.);
#660=ORIENTED_EDGE('',*,*,#442,.T.);
#661=ORIENTED_EDGE('',*,*,#451,.T.);
#662=ORIENTED_EDGE('',*,*,#464,.T.);
#663=ORIENTED_EDGE('',*,*,#388,.T.);
#664=ORIENTED_EDGE('',*,*,#405,.T.);
#665=ORIENTED_EDGE('',*,*,#476,.T.);
#666=ORIENTED_EDGE('',*,*,#474,.T.);
#667=ORIENTED_EDGE('',*,*,#468,.T.);
#668=ORIENTED_EDGE('',*,*,#471,.T.);
#669=ORIENTED_EDGE('',*,*,#477,.T.);
#670=ORIENTED_EDGE('',*,*,#403,.T.);
#671=ORIENTED_EDGE('',*,*,#427,.T.);
#672=ORIENTED_EDGE('',*,*,#476,.F.);
#673=ORIENTED_EDGE('',*,*,#404,.F.);
#674=ORIENTED_EDGE('',*,*,#477,.F.);
#675=ORIENTED_EDGE('',*,*,#470,.F.);
#676=ORIENTED_EDGE('',*,*,#473,.F.);
#677=ORIENTED_EDGE('',*,*,#475,.F.);
#678=CYLINDRICAL_SURFACE('',#729,1.4);
#679=CYLINDRICAL_SURFACE('',#733,2.);
#680=CYLINDRICAL_SURFACE('',#739,1.4);
#681=CYLINDRICAL_SURFACE('',#743,2.);
#682=CYLINDRICAL_SURFACE('',#748,1.4);
#683=CYLINDRICAL_SURFACE('',#752,2.);
#684=CYLINDRICAL_SURFACE('',#757,1.4);
#685=CYLINDRICAL_SURFACE('',#761,2.);
#686=CYLINDRICAL_SURFACE('',#767,3.25);
#687=CYLINDRICAL_SURFACE('',#771,3.25);
#688=CYLINDRICAL_SURFACE('',#785,5.);
#689=CYLINDRICAL_SURFACE('',#787,5.);
#690=ADVANCED_FACE('',(#51),#678,.F.);
#691=ADVANCED_FACE('',(#52),#26,.F.);
#692=ADVANCED_FACE('',(#53),#679,.T.);
#693=ADVANCED_FACE('',(#54,#15),#27,.F.);
#694=ADVANCED_FACE('',(#55,#16),#28,.T.);
#695=ADVANCED_FACE('',(#56),#29,.T.);
#696=ADVANCED_FACE('',(#57),#680,.F.);
#697=ADVANCED_FACE('',(#58),#30,.F.);
#698=ADVANCED_FACE('',(#59),#681,.T.);
#699=ADVANCED_FACE('',(#60,#17),#31,.T.);
#700=ADVANCED_FACE('',(#61,#18),#32,.F.);
#701=ADVANCED_FACE('',(#62),#682,.F.);
#702=ADVANCED_FACE('',(#63),#33,.T.);
#703=ADVANCED_FACE('',(#64),#683,.T.);
#704=ADVANCED_FACE('',(#65,#19),#34,.T.);
#705=ADVANCED_FACE('',(#66,#20),#35,.F.);
#706=ADVANCED_FACE('',(#67),#684,.F.);
#707=ADVANCED_FACE('',(#68),#36,.T.);
#708=ADVANCED_FACE('',(#69),#685,.T.);
#709=ADVANCED_FACE('',(#70,#21),#37,.F.);
#710=ADVANCED_FACE('',(#71,#22),#38,.T.);
#711=ADVANCED_FACE('',(#72),#39,.F.);
#712=ADVANCED_FACE('',(#73),#686,.F.);
#713=ADVANCED_FACE('',(#74),#40,.F.);
#714=ADVANCED_FACE('',(#75),#687,.F.);
#715=ADVANCED_FACE('',(#76),#41,.F.);
#716=ADVANCED_FACE('',(#77),#42,.F.);
#717=ADVANCED_FACE('',(#78,#23),#43,.F.);
#718=ADVANCED_FACE('',(#79),#44,.F.);
#719=ADVANCED_FACE('',(#80),#45,.T.);
#720=ADVANCED_FACE('',(#81,#24),#46,.T.);
#721=ADVANCED_FACE('',(#82),#47,.T.);
#722=ADVANCED_FACE('',(#83),#48,.T.);
#723=ADVANCED_FACE('',(#84,#25),#49,.T.);
#724=ADVANCED_FACE('',(#85),#688,.T.);
#725=ADVANCED_FACE('',(#86),#689,.T.);
#726=ADVANCED_FACE('',(#87),#50,.F.);
#727=CLOSED_SHELL('',(#690,#691,#692,#693,#694,#695,#696,#697,#698,#699,
#700,#701,#702,#703,#704,#705,#706,#707,#708,#709,#710,#711,#712,#713,#714,
#715,#716,#717,#718,#719,#720,#721,#722,#723,#724,#725,#726));
#728=AXIS2_PLACEMENT_3D('',#990,#790,#791);
#729=AXIS2_PLACEMENT_3D('',#991,#792,#793);
#730=AXIS2_PLACEMENT_3D('',#993,#794,#795);
#731=AXIS2_PLACEMENT_3D('',#996,#797,#798);
#732=AXIS2_PLACEMENT_3D('',#997,#799,#800);
#733=AXIS2_PLACEMENT_3D('',#1006,#805,#806);
#734=AXIS2_PLACEMENT_3D('',#1008,#807,#808);
#735=AXIS2_PLACEMENT_3D('',#1011,#810,#811);
#736=AXIS2_PLACEMENT_3D('',#1012,#812,#813);
#737=AXIS2_PLACEMENT_3D('',#1016,#816,#817);
#738=AXIS2_PLACEMENT_3D('',#1020,#820,#821);
#739=AXIS2_PLACEMENT_3D('',#1048,#836,#837);
#740=AXIS2_PLACEMENT_3D('',#1050,#838,#839);
#741=AXIS2_PLACEMENT_3D('',#1053,#841,#842);
#742=AXIS2_PLACEMENT_3D('',#1054,#843,#844);
#743=AXIS2_PLACEMENT_3D('',#1060,#848,#849);
#744=AXIS2_PLACEMENT_3D('',#1062,#850,#851);
#745=AXIS2_PLACEMENT_3D('',#1065,#853,#854);
#746=AXIS2_PLACEMENT_3D('',#1066,#855,#856);
#747=AXIS2_PLACEMENT_3D('',#1068,#858,#859);
#748=AXIS2_PLACEMENT_3D('',#1070,#861,#862);
#749=AXIS2_PLACEMENT_3D('',#1072,#863,#864);
#750=AXIS2_PLACEMENT_3D('',#1075,#866,#867);
#751=AXIS2_PLACEMENT_3D('',#1076,#868,#869);
#752=AXIS2_PLACEMENT_3D('',#1082,#873,#874);
#753=AXIS2_PLACEMENT_3D('',#1084,#875,#876);
#754=AXIS2_PLACEMENT_3D('',#1086,#877,#878);
#755=AXIS2_PLACEMENT_3D('',#1088,#880,#881);
#756=AXIS2_PLACEMENT_3D('',#1092,#884,#885);
#757=AXIS2_PLACEMENT_3D('',#1094,#887,#888);
#758=AXIS2_PLACEMENT_3D('',#1096,#889,#890);
#759=AXIS2_PLACEMENT_3D('',#1099,#892,#893);
#760=AXIS2_PLACEMENT_3D('',#1100,#894,#895);
#761=AXIS2_PLACEMENT_3D('',#1106,#899,#900);
#762=AXIS2_PLACEMENT_3D('',#1108,#901,#902);
#763=AXIS2_PLACEMENT_3D('',#1110,#903,#904);
#764=AXIS2_PLACEMENT_3D('',#1112,#906,#907);
#765=AXIS2_PLACEMENT_3D('',#1114,#909,#910);
#766=AXIS2_PLACEMENT_3D('',#1116,#912,#913);
#767=AXIS2_PLACEMENT_3D('',#1125,#918,#919);
#768=AXIS2_PLACEMENT_3D('',#1127,#920,#921);
#769=AXIS2_PLACEMENT_3D('',#1129,#922,#923);
#770=AXIS2_PLACEMENT_3D('',#1131,#925,#926);
#771=AXIS2_PLACEMENT_3D('',#1137,#930,#931);
#772=AXIS2_PLACEMENT_3D('',#1138,#932,#933);
#773=AXIS2_PLACEMENT_3D('',#1139,#934,#935);
#774=AXIS2_PLACEMENT_3D('',#1140,#936,#937);
#775=AXIS2_PLACEMENT_3D('',#1149,#942,#943);
#776=AXIS2_PLACEMENT_3D('',#1155,#947,#948);
#777=AXIS2_PLACEMENT_3D('',#1161,#952,#953);
#778=AXIS2_PLACEMENT_3D('',#1164,#956,#957);
#779=AXIS2_PLACEMENT_3D('',#1165,#958,#959);
#780=AXIS2_PLACEMENT_3D('',#1167,#960,#961);
#781=AXIS2_PLACEMENT_3D('',#1174,#965,#966);
#782=AXIS2_PLACEMENT_3D('',#1175,#967,#968);
#783=AXIS2_PLACEMENT_3D('',#1181,#972,#973);
#784=AXIS2_PLACEMENT_3D('',#1185,#976,#977);
#785=AXIS2_PLACEMENT_3D('',#1189,#980,#981);
#786=AXIS2_PLACEMENT_3D('',#1190,#982,#983);
#787=AXIS2_PLACEMENT_3D('',#1191,#984,#985);
#788=AXIS2_PLACEMENT_3D('',#1192,#986,#987);
#789=AXIS2_PLACEMENT_3D('',#1193,#988,#989);
#790=DIRECTION('axis',(0.,0.,1.));
#791=DIRECTION('refdir',(1.,0.,0.));
#792=DIRECTION('center_axis',(0.,-1.,0.));
#793=DIRECTION('ref_axis',(1.,0.,0.));
#794=DIRECTION('center_axis',(0.,-1.,0.));
#795=DIRECTION('ref_axis',(1.,0.,0.));
#796=DIRECTION('',(0.,-1.,0.));
#797=DIRECTION('center_axis',(0.,-1.,0.));
#798=DIRECTION('ref_axis',(1.,0.,0.));
#799=DIRECTION('center_axis',(0.707106781186547,0.,0.707106781186548));
#800=DIRECTION('ref_axis',(0.707106781186548,0.,-0.707106781186547));
#801=DIRECTION('',(-0.707106781186548,0.,0.707106781186547));
#802=DIRECTION('',(0.,1.,0.));
#803=DIRECTION('',(0.707106781186548,0.,-0.707106781186547));
#804=DIRECTION('',(0.,1.,0.));
#805=DIRECTION('center_axis',(0.,-1.,0.));
#806=DIRECTION('ref_axis',(-0.382683432365092,0.,0.923879532511286));
#807=DIRECTION('center_axis',(0.,1.,0.));
#808=DIRECTION('ref_axis',(1.,0.,0.));
#809=DIRECTION('',(0.,1.,0.));
#810=DIRECTION('center_axis',(0.,-1.,0.));
#811=DIRECTION('ref_axis',(1.,0.,0.));
#812=DIRECTION('center_axis',(0.,1.,0.));
#813=DIRECTION('ref_axis',(-1.,0.,0.));
#814=DIRECTION('',(0.,0.,-1.));
#815=DIRECTION('',(1.,0.,0.));
#816=DIRECTION('center_axis',(0.,1.,0.));
#817=DIRECTION('ref_axis',(-1.,0.,0.));
#818=DIRECTION('',(-1.,0.,0.));
#819=DIRECTION('',(0.,0.,1.));
#820=DIRECTION('center_axis',(-1.,0.,0.));
#821=DIRECTION('ref_axis',(0.,-1.,0.));
#822=DIRECTION('',(0.,1.,0.));
#823=DIRECTION('',(0.,0.,-1.));
#824=DIRECTION('',(0.,1.,0.));
#825=DIRECTION('',(0.,0.,1.));
#826=DIRECTION('',(0.,1.,0.));
#827=DIRECTION('',(0.,0.,-1.));
#828=DIRECTION('',(0.,1.,0.));
#829=DIRECTION('',(0.,0.,1.));
#830=DIRECTION('',(0.,1.,0.));
#831=DIRECTION('',(0.,0.,-1.));
#832=DIRECTION('',(0.,1.,0.));
#833=DIRECTION('',(0.,0.,1.));
#834=DIRECTION('',(0.,-1.,0.));
#835=DIRECTION('',(0.,0.,-1.));
#836=DIRECTION('center_axis',(0.,-1.,0.));
#837=DIRECTION('ref_axis',(1.,0.,0.));
#838=DIRECTION('center_axis',(0.,1.,0.));
#839=DIRECTION('ref_axis',(1.,0.,0.));
#840=DIRECTION('',(0.,-1.,0.));
#841=DIRECTION('center_axis',(0.,1.,0.));
#842=DIRECTION('ref_axis',(1.,0.,0.));
#843=DIRECTION('center_axis',(0.707106781186547,0.,0.707106781186548));
#844=DIRECTION('ref_axis',(0.707106781186548,0.,-0.707106781186547));
#845=DIRECTION('',(-0.707106781186548,0.,0.707106781186547));
#846=DIRECTION('',(0.,1.,0.));
#847=DIRECTION('',(0.707106781186548,0.,-0.707106781186547));
#848=DIRECTION('center_axis',(0.,-1.,0.));
#849=DIRECTION('ref_axis',(-0.382683432365092,0.,0.923879532511286));
#850=DIRECTION('center_axis',(0.,1.,0.));
#851=DIRECTION('ref_axis',(1.,0.,0.));
#852=DIRECTION('',(0.,1.,0.));
#853=DIRECTION('center_axis',(0.,-1.,0.));
#854=DIRECTION('ref_axis',(1.,0.,0.));
#855=DIRECTION('center_axis',(0.,-1.,0.));
#856=DIRECTION('ref_axis',(0.,0.,-1.));
#857=DIRECTION('',(1.,0.,0.));
#858=DIRECTION('center_axis',(0.,-1.,0.));
#859=DIRECTION('ref_axis',(0.,0.,-1.));
#860=DIRECTION('',(-1.,0.,0.));
#861=DIRECTION('center_axis',(0.,-1.,0.));
#862=DIRECTION('ref_axis',(1.,0.,0.));
#863=DIRECTION('center_axis',(0.,1.,0.));
#864=DIRECTION('ref_axis',(1.,0.,0.));
#865=DIRECTION('',(0.,1.,0.));
#866=DIRECTION('center_axis',(0.,1.,0.));
#867=DIRECTION('ref_axis',(1.,0.,0.));
#868=DIRECTION('center_axis',(-0.707106781186547,0.,-0.707106781186548));
#869=DIRECTION('ref_axis',(0.707106781186548,0.,-0.707106781186547));
#870=DIRECTION('',(-0.707106781186548,0.,0.707106781186547));
#871=DIRECTION('',(0.707106781186548,0.,-0.707106781186547));
#872=DIRECTION('',(0.,-1.,0.));
#873=DIRECTION('center_axis',(0.,-1.,0.));
#874=DIRECTION('ref_axis',(-0.382683432365092,0.,0.923879532511286));
#875=DIRECTION('center_axis',(0.,1.,0.));
#876=DIRECTION('ref_axis',(1.,0.,0.));
#877=DIRECTION('center_axis',(0.,-1.,0.));
#878=DIRECTION('ref_axis',(1.,0.,0.));
#879=DIRECTION('',(0.,-1.,0.));
#880=DIRECTION('center_axis',(0.,1.,0.));
#881=DIRECTION('ref_axis',(-1.,0.,0.));
#882=DIRECTION('',(1.,0.,0.));
#883=DIRECTION('',(0.,0.,1.));
#884=DIRECTION('center_axis',(0.,1.,0.));
#885=DIRECTION('ref_axis',(-1.,0.,0.));
#886=DIRECTION('',(-1.,0.,0.));
#887=DIRECTION('center_axis',(0.,-1.,0.));
#888=DIRECTION('ref_axis',(1.,0.,0.));
#889=DIRECTION('center_axis',(0.,-1.,0.));
#890=DIRECTION('ref_axis',(1.,0.,0.));
#891=DIRECTION('',(0.,1.,0.));
#892=DIRECTION('center_axis',(0.,-1.,0.));
#893=DIRECTION('ref_axis',(1.,0.,0.));
#894=DIRECTION('center_axis',(-0.707106781186547,0.,-0.707106781186548));
#895=DIRECTION('ref_axis',(0.707106781186548,0.,-0.707106781186547));
#896=DIRECTION('',(-0.707106781186548,0.,0.707106781186547));
#897=DIRECTION('',(0.707106781186548,0.,-0.707106781186547));
#898=DIRECTION('',(0.,-1.,0.));
#899=DIRECTION('center_axis',(0.,-1.,0.));
#900=DIRECTION('ref_axis',(-0.382683432365092,0.,0.923879532511286));
#901=DIRECTION('center_axis',(0.,1.,0.));
#902=DIRECTION('ref_axis',(1.,0.,0.));
#903=DIRECTION('center_axis',(0.,-1.,0.));
#904=DIRECTION('ref_axis',(1.,0.,0.));
#905=DIRECTION('',(0.,-1.,0.));
#906=DIRECTION('center_axis',(0.,-1.,0.));
#907=DIRECTION('ref_axis',(0.,0.,-1.));
#908=DIRECTION('',(1.,0.,0.));
#909=DIRECTION('center_axis',(0.,-1.,0.));
#910=DIRECTION('ref_axis',(0.,0.,-1.));
#911=DIRECTION('',(-1.,0.,0.));
#912=DIRECTION('center_axis',(0.,0.,1.));
#913=DIRECTION('ref_axis',(1.,0.,0.));
#914=DIRECTION('',(-1.,0.,0.));
#915=DIRECTION('',(0.,1.,0.));
#916=DIRECTION('',(1.,0.,0.));
#917=DIRECTION('',(0.,1.,0.));
#918=DIRECTION('center_axis',(0.,1.,0.));
#919=DIRECTION('ref_axis',(0.,0.,1.));
#920=DIRECTION('center_axis',(0.,-1.,0.));
#921=DIRECTION('ref_axis',(0.,0.,1.));
#922=DIRECTION('center_axis',(0.,1.,0.));
#923=DIRECTION('ref_axis',(0.,0.,1.));
#924=DIRECTION('',(0.,1.,0.));
#925=DIRECTION('center_axis',(0.,0.,-1.));
#926=DIRECTION('ref_axis',(-1.,0.,0.));
#927=DIRECTION('',(1.,0.,0.));
#928=DIRECTION('',(-1.,0.,0.));
#929=DIRECTION('',(0.,1.,0.));
#930=DIRECTION('center_axis',(0.,1.,0.));
#931=DIRECTION('ref_axis',(-2.73285667600039E-15,0.,-1.));
#932=DIRECTION('center_axis',(0.,-1.,0.));
#933=DIRECTION('ref_axis',(-2.73285667600039E-15,0.,-1.));
#934=DIRECTION('center_axis',(0.,1.,0.));
#935=DIRECTION('ref_axis',(-2.73285667600039E-15,0.,-1.));
#936=DIRECTION('center_axis',(-1.,0.,0.));
#937=DIRECTION('ref_axis',(0.,-1.,0.));
#938=DIRECTION('',(0.,1.,0.));
#939=DIRECTION('',(0.,0.,1.));
#940=DIRECTION('',(0.,1.,0.));
#941=DIRECTION('',(0.,0.,-1.));
#942=DIRECTION('center_axis',(0.,1.,0.));
#943=DIRECTION('ref_axis',(-1.,0.,0.));
#944=DIRECTION('',(1.,0.,0.));
#945=DIRECTION('',(0.,0.,-1.));
#946=DIRECTION('',(1.,0.,0.));
#947=DIRECTION('center_axis',(0.,-1.,0.));
#948=DIRECTION('ref_axis',(1.,0.,0.));
#949=DIRECTION('',(-1.,0.,0.));
#950=DIRECTION('',(-1.,0.,0.));
#951=DIRECTION('',(0.,0.,-1.));
#952=DIRECTION('center_axis',(1.,0.,0.));
#953=DIRECTION('ref_axis',(0.,1.,0.));
#954=DIRECTION('',(0.,-1.,0.));
#955=DIRECTION('',(0.,-1.,0.));
#956=DIRECTION('center_axis',(0.,0.,1.));
#957=DIRECTION('ref_axis',(1.,0.,0.));
#958=DIRECTION('center_axis',(0.,0.,1.));
#959=DIRECTION('ref_axis',(1.,0.,0.));
#960=DIRECTION('center_axis',(0.,0.,-1.));
#961=DIRECTION('ref_axis',(-0.707106781186547,-0.707106781186547,0.));
#962=DIRECTION('',(-1.,0.,0.));
#963=DIRECTION('',(0.,-1.,0.));
#964=DIRECTION('',(1.,0.,0.));
#965=DIRECTION('center_axis',(0.,0.,-1.));
#966=DIRECTION('ref_axis',(-0.707106781186547,0.707106781186547,0.));
#967=DIRECTION('center_axis',(0.,1.,0.));
#968=DIRECTION('ref_axis',(-1.,0.,0.));
#969=DIRECTION('',(0.,0.,1.));
#970=DIRECTION('',(-1.,0.,0.));
#971=DIRECTION('',(0.,0.,-1.));
#972=DIRECTION('center_axis',(1.,0.,0.));
#973=DIRECTION('ref_axis',(0.,1.,0.));
#974=DIRECTION('',(0.,0.,1.));
#975=DIRECTION('',(0.,1.,0.));
#976=DIRECTION('center_axis',(0.,-1.,0.));
#977=DIRECTION('ref_axis',(1.,0.,0.));
#978=DIRECTION('',(0.,0.,1.));
#979=DIRECTION('',(1.,0.,0.));
#980=DIRECTION('center_axis',(0.,0.,1.));
#981=DIRECTION('ref_axis',(-0.707106781186547,-0.707106781186547,0.));
#982=DIRECTION('center_axis',(0.,0.,1.));
#983=DIRECTION('ref_axis',(-0.707106781186547,-0.707106781186547,0.));
#984=DIRECTION('center_axis',(0.,0.,1.));
#985=DIRECTION('ref_axis',(-0.707106781186547,0.707106781186547,0.));
#986=DIRECTION('center_axis',(0.,0.,1.));
#987=DIRECTION('ref_axis',(-0.707106781186547,0.707106781186547,0.));
#988=DIRECTION('center_axis',(0.,0.,1.));
#989=DIRECTION('ref_axis',(1.,0.,0.));
#990=CARTESIAN_POINT('',(0.,0.,0.));
#991=CARTESIAN_POINT('Origin',(-2.5,4.99999999999996,40.));
#992=CARTESIAN_POINT('',(-3.9,25.3375,40.));
#993=CARTESIAN_POINT('Origin',(-2.5,25.3375,40.));
#994=CARTESIAN_POINT('',(-3.9,4.99999999999996,40.));
#995=CARTESIAN_POINT('',(-3.9,4.99999999999996,40.));
#996=CARTESIAN_POINT('Origin',(-2.5,4.99999999999996,40.));
#997=CARTESIAN_POINT('Origin',(-3.91421356237309,4.99999999999996,38.5857864376269));
#998=CARTESIAN_POINT('',(0.,4.99999999999996,34.6715728752538));
#999=CARTESIAN_POINT('',(-3.9142135623731,4.99999999999996,38.5857864376269));
#1000=CARTESIAN_POINT('',(0.,4.99999999999996,34.6715728752538));
#1001=CARTESIAN_POINT('',(-3.9142135623731,25.3375,38.5857864376269));
#1002=CARTESIAN_POINT('',(-3.9142135623731,4.99999999999996,38.5857864376269));
#1003=CARTESIAN_POINT('',(0.,25.3375,34.6715728752538));
#1004=CARTESIAN_POINT('',(0.,25.3375,34.6715728752538));
#1005=CARTESIAN_POINT('',(0.,90.85,34.6715728752538));
#1006=CARTESIAN_POINT('Origin',(-2.5,4.99999999999996,40.));
#1007=CARTESIAN_POINT('',(-0.5,4.99999999999996,40.));
#1008=CARTESIAN_POINT('Origin',(-2.5,4.99999999999996,40.));
#1009=CARTESIAN_POINT('',(-0.5,25.3375,40.));
#1010=CARTESIAN_POINT('',(-0.5,4.99999999999996,40.));
#1011=CARTESIAN_POINT('Origin',(-2.5,25.3375,40.));
#1012=CARTESIAN_POINT('Origin',(-2.25,4.99999999999996,38.3357864376269));
#1013=CARTESIAN_POINT('',(0.,5.,40.));
#1014=CARTESIAN_POINT('',(0.,5.,0.));
#1015=CARTESIAN_POINT('',(-0.5,4.99999999999996,40.));
#1016=CARTESIAN_POINT('Origin',(-2.25,25.3375,38.3357864376269));
#1017=CARTESIAN_POINT('',(0.,25.3375,40.));
#1018=CARTESIAN_POINT('',(-0.5,25.3375,40.));
#1019=CARTESIAN_POINT('',(0.,25.3375,19.1678932188135));
#1020=CARTESIAN_POINT('Origin',(0.,176.7,0.));
#1021=CARTESIAN_POINT('',(0.,53.6208333333333,40.));
#1022=CARTESIAN_POINT('',(0.,132.524999999907,40.));
#1023=CARTESIAN_POINT('',(0.,53.6208333333333,34.6715728752538));
#1024=CARTESIAN_POINT('',(0.,53.6208333333333,19.1678932188135));
#1025=CARTESIAN_POINT('',(0.,74.4583333333333,34.6715728752538));
#1026=CARTESIAN_POINT('',(-1.11022302462516E-15,115.160416666667,34.6715728752538));
#1027=CARTESIAN_POINT('',(0.,74.4583333333333,40.));
#1028=CARTESIAN_POINT('',(0.,74.4583333333333,19.1678932188135));
#1029=CARTESIAN_POINT('',(0.,102.241666666667,40.));
#1030=CARTESIAN_POINT('',(0.,132.524999999907,40.));
#1031=CARTESIAN_POINT('',(0.,102.241666666667,34.6715728752538));
#1032=CARTESIAN_POINT('',(0.,102.241666666667,19.1678932188135));
#1033=CARTESIAN_POINT('',(0.,123.079166666667,34.6715728752538));
#1034=CARTESIAN_POINT('',(-1.11022302462516E-15,149.889583333333,34.6715728752538));
#1035=CARTESIAN_POINT('',(0.,123.079166666667,40.));
#1036=CARTESIAN_POINT('',(0.,123.079166666667,19.1678932188135));
#1037=CARTESIAN_POINT('',(0.,151.3625,40.));
#1038=CARTESIAN_POINT('',(0.,132.524999999907,40.));
#1039=CARTESIAN_POINT('',(0.,151.3625,34.6715728752538));
#1040=CARTESIAN_POINT('',(0.,151.3625,19.1678932188135));
#1041=CARTESIAN_POINT('',(0.,171.7,34.6715728752538));
#1042=CARTESIAN_POINT('',(0.,174.2,34.6715728752538));
#1043=CARTESIAN_POINT('',(0.,171.7,0.));
#1044=CARTESIAN_POINT('',(0.,171.7,0.));
#1045=CARTESIAN_POINT('',(0.,5.,0.));
#1046=CARTESIAN_POINT('',(0.,176.7,0.));
#1047=CARTESIAN_POINT('',(0.,5.,0.));
#1048=CARTESIAN_POINT('Origin',(-2.5,53.6208333333333,40.));
#1049=CARTESIAN_POINT('',(-3.9,74.4583333333333,40.));
#1050=CARTESIAN_POINT('Origin',(-2.5,74.4583333333333,40.));
#1051=CARTESIAN_POINT('',(-3.9,53.6208333333333,40.));
#1052=CARTESIAN_POINT('',(-3.9,53.6208333333333,40.));
#1053=CARTESIAN_POINT('Origin',(-2.5,53.6208333333333,40.));
#1054=CARTESIAN_POINT('Origin',(-3.9142135623731,53.6208333333333,38.5857864376269));
#1055=CARTESIAN_POINT('',(-3.9142135623731,53.6208333333333,38.5857864376269));
#1056=CARTESIAN_POINT('',(-3.43566017177982,53.6208333333333,38.1072330470336));
#1057=CARTESIAN_POINT('',(-3.9142135623731,74.4583333333333,38.5857864376269));
#1058=CARTESIAN_POINT('',(-3.9142135623731,53.6208333333333,38.5857864376269));
#1059=CARTESIAN_POINT('',(-3.43566017177982,74.4583333333333,38.1072330470336));
#1060=CARTESIAN_POINT('Origin',(-2.5,53.6208333333333,40.));
#1061=CARTESIAN_POINT('',(-0.5,53.6208333333333,40.));
#1062=CARTESIAN_POINT('Origin',(-2.5,53.6208333333333,40.));
#1063=CARTESIAN_POINT('',(-0.5,74.4583333333333,40.));
#1064=CARTESIAN_POINT('',(-0.5,53.6208333333333,40.));
#1065=CARTESIAN_POINT('Origin',(-2.5,74.4583333333333,40.));
#1066=CARTESIAN_POINT('Origin',(-2.25,53.6208333333333,38.3357864376269));
#1067=CARTESIAN_POINT('',(-1.125,53.6208333333333,40.));
#1068=CARTESIAN_POINT('Origin',(-2.25,74.4583333333333,38.3357864376269));
#1069=CARTESIAN_POINT('',(-1.125,74.4583333333333,40.));
#1070=CARTESIAN_POINT('Origin',(-2.5,171.7,40.));
#1071=CARTESIAN_POINT('',(-3.9,151.3625,40.));
#1072=CARTESIAN_POINT('Origin',(-2.5,151.3625,40.));
#1073=CARTESIAN_POINT('',(-3.9,171.7,40.));
#1074=CARTESIAN_POINT('',(-3.9,171.7,40.));
#1075=CARTESIAN_POINT('Origin',(-2.5,171.7,40.));
#1076=CARTESIAN_POINT('Origin',(-3.91421356237309,171.7,38.5857864376269));
#1077=CARTESIAN_POINT('',(-3.9142135623731,171.7,38.5857864376269));
#1078=CARTESIAN_POINT('',(0.,171.7,34.6715728752538));
#1079=CARTESIAN_POINT('',(-3.9142135623731,151.3625,38.5857864376269));
#1080=CARTESIAN_POINT('',(0.,151.3625,34.6715728752538));
#1081=CARTESIAN_POINT('',(-3.9142135623731,171.7,38.5857864376269));
#1082=CARTESIAN_POINT('Origin',(-2.5,171.7,40.));
#1083=CARTESIAN_POINT('',(-0.5,171.7,40.));
#1084=CARTESIAN_POINT('Origin',(-2.5,171.7,40.));
#1085=CARTESIAN_POINT('',(-0.5,151.3625,40.));
#1086=CARTESIAN_POINT('Origin',(-2.5,151.3625,40.));
#1087=CARTESIAN_POINT('',(-0.5,171.7,40.));
#1088=CARTESIAN_POINT('Origin',(-2.25,171.7,38.3357864376269));
#1089=CARTESIAN_POINT('',(0.,171.7,40.));
#1090=CARTESIAN_POINT('',(-0.5,171.7,40.));
#1091=CARTESIAN_POINT('',(0.,171.7,0.));
#1092=CARTESIAN_POINT('Origin',(-2.25,151.3625,38.3357864376269));
#1093=CARTESIAN_POINT('',(-0.5,151.3625,40.));
#1094=CARTESIAN_POINT('Origin',(-2.5,123.079166666667,40.));
#1095=CARTESIAN_POINT('',(-3.9,102.241666666667,40.));
#1096=CARTESIAN_POINT('Origin',(-2.5,102.241666666667,40.));
#1097=CARTESIAN_POINT('',(-3.9,123.079166666667,40.));
#1098=CARTESIAN_POINT('',(-3.9,123.079166666667,40.));
#1099=CARTESIAN_POINT('Origin',(-2.5,123.079166666667,40.));
#1100=CARTESIAN_POINT('Origin',(-3.9142135623731,123.079166666667,38.5857864376269));
#1101=CARTESIAN_POINT('',(-3.9142135623731,123.079166666667,38.5857864376269));
#1102=CARTESIAN_POINT('',(-3.43566017177982,123.079166666667,38.1072330470336));
#1103=CARTESIAN_POINT('',(-3.9142135623731,102.241666666667,38.5857864376269));
#1104=CARTESIAN_POINT('',(-3.43566017177982,102.241666666667,38.1072330470336));
#1105=CARTESIAN_POINT('',(-3.9142135623731,123.079166666667,38.5857864376269));
#1106=CARTESIAN_POINT('Origin',(-2.5,123.079166666667,40.));
#1107=CARTESIAN_POINT('',(-0.5,123.079166666667,40.));
#1108=CARTESIAN_POINT('Origin',(-2.5,123.079166666667,40.));
#1109=CARTESIAN_POINT('',(-0.5,102.241666666667,40.));
#1110=CARTESIAN_POINT('Origin',(-2.5,102.241666666667,40.));
#1111=CARTESIAN_POINT('',(-0.5,123.079166666667,40.));
#1112=CARTESIAN_POINT('Origin',(-2.25,123.079166666667,38.3357864376269));
#1113=CARTESIAN_POINT('',(-1.125,123.079166666667,40.));
#1114=CARTESIAN_POINT('Origin',(-2.25,102.241666666667,38.3357864376269));
#1115=CARTESIAN_POINT('',(-1.125,102.241666666667,40.));
#1116=CARTESIAN_POINT('Origin',(48.25,0.,12.5));
#1117=CARTESIAN_POINT('',(58.25,5.,12.5));
#1118=CARTESIAN_POINT('',(48.25,5.,12.5));
#1119=CARTESIAN_POINT('',(24.125,5.,12.5));
#1120=CARTESIAN_POINT('',(58.25,0.,12.5));
#1121=CARTESIAN_POINT('',(58.25,0.,12.5));
#1122=CARTESIAN_POINT('',(48.25,0.,12.5));
#1123=CARTESIAN_POINT('',(24.125,0.,12.5));
#1124=CARTESIAN_POINT('',(48.25,0.,12.5));
#1125=CARTESIAN_POINT('Origin',(48.25,0.,9.25));
#1126=CARTESIAN_POINT('',(48.25,5.,6.));
#1127=CARTESIAN_POINT('Origin',(48.25,5.,9.25));
#1128=CARTESIAN_POINT('',(48.25,0.,6.));
#1129=CARTESIAN_POINT('Origin',(48.25,0.,9.25));
#1130=CARTESIAN_POINT('',(48.25,0.,6.));
#1131=CARTESIAN_POINT('Origin',(58.25,0.,6.));
#1132=CARTESIAN_POINT('',(58.25,5.,6.));
#1133=CARTESIAN_POINT('',(29.125,5.,6.));
#1134=CARTESIAN_POINT('',(58.25,0.,6.));
#1135=CARTESIAN_POINT('',(29.125,0.,6.));
#1136=CARTESIAN_POINT('',(58.25,0.,6.));
#1137=CARTESIAN_POINT('Origin',(58.25,0.,9.25));
#1138=CARTESIAN_POINT('Origin',(58.25,5.,9.25));
#1139=CARTESIAN_POINT('Origin',(58.25,0.,9.25));
#1140=CARTESIAN_POINT('Origin',(5.,176.7,0.));
#1141=CARTESIAN_POINT('',(5.,171.7,5.));
#1142=CARTESIAN_POINT('',(5.,5.,5.));
#1143=CARTESIAN_POINT('',(5.,132.525,5.));
#1144=CARTESIAN_POINT('',(5.,171.7,40.));
#1145=CARTESIAN_POINT('',(5.,171.7,0.));
#1146=CARTESIAN_POINT('',(5.,5.,40.));
#1147=CARTESIAN_POINT('',(5.,132.524999999907,40.));
#1148=CARTESIAN_POINT('',(5.,5.,0.));
#1149=CARTESIAN_POINT('Origin',(101.5,171.7,0.));
#1150=CARTESIAN_POINT('',(96.5,171.7,5.));
#1151=CARTESIAN_POINT('',(76.125,171.7,5.));
#1152=CARTESIAN_POINT('',(96.5,171.7,40.));
#1153=CARTESIAN_POINT('',(96.5,171.7,0.));
#1154=CARTESIAN_POINT('',(65.625,171.7,40.));
#1155=CARTESIAN_POINT('Origin',(0.,5.,0.));
#1156=CARTESIAN_POINT('',(96.5,5.,5.));
#1157=CARTESIAN_POINT('',(25.375,5.,5.));
#1158=CARTESIAN_POINT('',(96.5,5.,40.));
#1159=CARTESIAN_POINT('',(14.875,5.,40.));
#1160=CARTESIAN_POINT('',(96.5,5.,0.));
#1161=CARTESIAN_POINT('Origin',(96.5,0.,0.));
#1162=CARTESIAN_POINT('',(96.5,44.1749999999071,40.));
#1163=CARTESIAN_POINT('',(96.5,44.175,5.));
#1164=CARTESIAN_POINT('Origin',(50.75,88.35,5.));
#1165=CARTESIAN_POINT('Origin',(29.75,88.3499999998143,40.));
#1166=CARTESIAN_POINT('',(5.,0.,40.));
#1167=CARTESIAN_POINT('Origin',(5.,5.,40.));
#1168=CARTESIAN_POINT('',(101.5,0.,40.));
#1169=CARTESIAN_POINT('',(14.875,0.,40.));
#1170=CARTESIAN_POINT('',(101.5,176.7,40.));
#1171=CARTESIAN_POINT('',(101.5,44.1749999999071,40.));
#1172=CARTESIAN_POINT('',(5.,176.7,40.));
#1173=CARTESIAN_POINT('',(65.625,176.7,40.));
#1174=CARTESIAN_POINT('Origin',(5.,171.7,40.));
#1175=CARTESIAN_POINT('Origin',(101.5,176.7,0.));
#1176=CARTESIAN_POINT('',(101.5,176.7,0.));
#1177=CARTESIAN_POINT('',(101.5,176.7,0.));
#1178=CARTESIAN_POINT('',(5.,176.7,0.));
#1179=CARTESIAN_POINT('',(101.5,176.7,0.));
#1180=CARTESIAN_POINT('',(5.,176.7,0.));
#1181=CARTESIAN_POINT('Origin',(101.5,0.,0.));
#1182=CARTESIAN_POINT('',(101.5,0.,0.));
#1183=CARTESIAN_POINT('',(101.5,0.,0.));
#1184=CARTESIAN_POINT('',(101.5,0.,0.));
#1185=CARTESIAN_POINT('Origin',(0.,0.,0.));
#1186=CARTESIAN_POINT('',(5.,0.,0.));
#1187=CARTESIAN_POINT('',(5.,0.,0.));
#1188=CARTESIAN_POINT('',(0.,0.,0.));
#1189=CARTESIAN_POINT('Origin',(5.,5.,0.));
#1190=CARTESIAN_POINT('Origin',(5.,5.,0.));
#1191=CARTESIAN_POINT('Origin',(5.,171.7,0.));
#1192=CARTESIAN_POINT('Origin',(5.,171.7,0.));
#1193=CARTESIAN_POINT('Origin',(50.75,88.35,0.));
#1194=UNCERTAINTY_MEASURE_WITH_UNIT(LENGTH_MEASURE(0.01),#1198,
'DISTANCE_ACCURACY_VALUE',
'Maximum model space distance between geometric entities at asserted c
onnectivities');
#1195=UNCERTAINTY_MEASURE_WITH_UNIT(LENGTH_MEASURE(0.01),#1198,
'DISTANCE_ACCURACY_VALUE',
'Maximum model space distance between geometric entities at asserted c
onnectivities');
#1196=(
GEOMETRIC_REPRESENTATION_CONTEXT(3)
GLOBAL_UNCERTAINTY_ASSIGNED_CONTEXT((#1194))
GLOBAL_UNIT_ASSIGNED_CONTEXT((#1198,#1199,#1200))
REPRESENTATION_CONTEXT('','3D')
);
#1197=(
GEOMETRIC_REPRESENTATION_CONTEXT(3)
GLOBAL_UNCERTAINTY_ASSIGNED_CONTEXT((#1195))
GLOBAL_UNIT_ASSIGNED_CONTEXT((#1198,#1199,#1200))
REPRESENTATION_CONTEXT('','3D')
);
#1198=(
LENGTH_UNIT()
NAMED_UNIT(*)
SI_UNIT(.MILLI.,.METRE.)
);
#1199=(
NAMED_UNIT(*)
PLANE_ANGLE_UNIT()
SI_UNIT($,.RADIAN.)
);
#1200=(
NAMED_UNIT(*)
SI_UNIT($,.STERADIAN.)
SOLID_ANGLE_UNIT()
);
#1201=SHAPE_DEFINITION_REPRESENTATION(#1202,#1203);
#1202=PRODUCT_DEFINITION_SHAPE('',$,#1205);
#1203=SHAPE_REPRESENTATION('',(#728),#1196);
#1204=PRODUCT_DEFINITION_CONTEXT('part definition',#1209,'design');
#1205=PRODUCT_DEFINITION('2026-08-08-16-07-59-361','Box v3',#1206,#1204);
#1206=PRODUCT_DEFINITION_FORMATION('',$,#1211);
#1207=PRODUCT_RELATED_PRODUCT_CATEGORY('Box v3','Box v3',(#1211));
#1208=APPLICATION_PROTOCOL_DEFINITION('international standard',
'automotive_design',2009,#1209);
#1209=APPLICATION_CONTEXT(
'Core Data for Automotive Mechanical Design Process');
#1210=PRODUCT_CONTEXT('part definition',#1209,'mechanical');
#1211=PRODUCT('2026-08-08-16-07-59-361','Box v3',$,(#1210));
#1212=PRESENTATION_STYLE_ASSIGNMENT((#1225));
#1213=PRESENTATION_STYLE_ASSIGNMENT((#1226));
#1214=PRESENTATION_STYLE_ASSIGNMENT((#1227));
#1215=PRESENTATION_STYLE_ASSIGNMENT((#1228));
#1216=PRESENTATION_STYLE_ASSIGNMENT((#1229));
#1217=PRESENTATION_STYLE_ASSIGNMENT((#1230));
#1218=PRESENTATION_STYLE_ASSIGNMENT((#1231));
#1219=PRESENTATION_STYLE_ASSIGNMENT((#1232));
#1220=PRESENTATION_STYLE_ASSIGNMENT((#1233));
#1221=PRESENTATION_STYLE_ASSIGNMENT((#1234));
#1222=PRESENTATION_STYLE_ASSIGNMENT((#1235));
#1223=PRESENTATION_STYLE_ASSIGNMENT((#1236));
#1224=PRESENTATION_STYLE_ASSIGNMENT((#1237));
#1225=SURFACE_STYLE_USAGE(.BOTH.,#1238);
#1226=SURFACE_STYLE_USAGE(.BOTH.,#1239);
#1227=SURFACE_STYLE_USAGE(.BOTH.,#1240);
#1228=SURFACE_STYLE_USAGE(.BOTH.,#1241);
#1229=SURFACE_STYLE_USAGE(.BOTH.,#1242);
#1230=SURFACE_STYLE_USAGE(.BOTH.,#1243);
#1231=SURFACE_STYLE_USAGE(.BOTH.,#1244);
#1232=SURFACE_STYLE_USAGE(.BOTH.,#1245);
#1233=SURFACE_STYLE_USAGE(.BOTH.,#1246);
#1234=SURFACE_STYLE_USAGE(.BOTH.,#1247);
#1235=SURFACE_STYLE_USAGE(.BOTH.,#1248);
#1236=SURFACE_STYLE_USAGE(.BOTH.,#1249);
#1237=SURFACE_STYLE_USAGE(.BOTH.,#1250);
#1238=SURFACE_SIDE_STYLE('',(#1251));
#1239=SURFACE_SIDE_STYLE('',(#1252));
#1240=SURFACE_SIDE_STYLE('',(#1253));
#1241=SURFACE_SIDE_STYLE('',(#1254));
#1242=SURFACE_SIDE_STYLE('',(#1255));
#1243=SURFACE_SIDE_STYLE('',(#1256));
#1244=SURFACE_SIDE_STYLE('',(#1257));
#1245=SURFACE_SIDE_STYLE('',(#1258));
#1246=SURFACE_SIDE_STYLE('',(#1259));
#1247=SURFACE_SIDE_STYLE('',(#1260));
#1248=SURFACE_SIDE_STYLE('',(#1261));
#1249=SURFACE_SIDE_STYLE('',(#1262));
#1250=SURFACE_SIDE_STYLE('',(#1263));
#1251=SURFACE_STYLE_FILL_AREA(#1264);
#1252=SURFACE_STYLE_FILL_AREA(#1265);
#1253=SURFACE_STYLE_FILL_AREA(#1266);
#1254=SURFACE_STYLE_FILL_AREA(#1267);
#1255=SURFACE_STYLE_FILL_AREA(#1268);
#1256=SURFACE_STYLE_FILL_AREA(#1269);
#1257=SURFACE_STYLE_FILL_AREA(#1270);
#1258=SURFACE_STYLE_FILL_AREA(#1271);
#1259=SURFACE_STYLE_FILL_AREA(#1272);
#1260=SURFACE_STYLE_FILL_AREA(#1273);
#1261=SURFACE_STYLE_FILL_AREA(#1274);
#1262=SURFACE_STYLE_FILL_AREA(#1275);
#1263=SURFACE_STYLE_FILL_AREA(#1276);
#1264=FILL_AREA_STYLE('Opaque(120,110,70)',(#1277));
#1265=FILL_AREA_STYLE('Opaque(255,191,0)',(#1278));
#1266=FILL_AREA_STYLE('Opaque(0,170,255)',(#1279));
#1267=FILL_AREA_STYLE('Opaque(25,25,25)',(#1280));
#1268=FILL_AREA_STYLE('Opaque(244,244,244)',(#1281));
#1269=FILL_AREA_STYLE('Opaque(64,64,64)',(#1282));
#1270=FILL_AREA_STYLE('Opaque(246,246,243)',(#1283));
#1271=FILL_AREA_STYLE('Opaque(145,102,87)',(#1284));
#1272=FILL_AREA_STYLE('Opaque(63,63,63)',(#1285));
#1273=FILL_AREA_STYLE('Steel - Satin',(#1286));
#1274=FILL_AREA_STYLE('ABS (White) (1)',(#1287));
#1275=FILL_AREA_STYLE('ABS (White)',(#1288));
#1276=FILL_AREA_STYLE('ABS (White)',(#1289));
#1277=FILL_AREA_STYLE_COLOUR('Opaque(120,110,70)',#1290);
#1278=FILL_AREA_STYLE_COLOUR('Opaque(255,191,0)',#1291);
#1279=FILL_AREA_STYLE_COLOUR('Opaque(0,170,255)',#1292);
#1280=FILL_AREA_STYLE_COLOUR('Opaque(25,25,25)',#1293);
#1281=FILL_AREA_STYLE_COLOUR('Opaque(244,244,244)',#1294);
#1282=FILL_AREA_STYLE_COLOUR('Opaque(64,64,64)',#1295);
#1283=FILL_AREA_STYLE_COLOUR('Opaque(246,246,243)',#1296);
#1284=FILL_AREA_STYLE_COLOUR('Opaque(145,102,87)',#1297);
#1285=FILL_AREA_STYLE_COLOUR('Opaque(63,63,63)',#1298);
#1286=FILL_AREA_STYLE_COLOUR('Steel - Satin',#1299);
#1287=FILL_AREA_STYLE_COLOUR('ABS (White) (1)',#1300);
#1288=FILL_AREA_STYLE_COLOUR('ABS (White)',#1301);
#1289=FILL_AREA_STYLE_COLOUR('ABS (White)',#1302);
#1290=COLOUR_RGB('Opaque(120,110,70)',0.470588235294118,0.431372549019608,
0.274509803921569);
#1291=COLOUR_RGB('Opaque(255,191,0)',1.,0.749019607843137,0.);
#1292=COLOUR_RGB('Opaque(0,170,255)',0.,0.666666666666667,1.);
#1293=COLOUR_RGB('Opaque(25,25,25)',0.0980392156862745,0.0980392156862745,
0.0980392156862745);
#1294=COLOUR_RGB('Opaque(244,244,244)',0.956862745098039,0.956862745098039,
0.956862745098039);
#1295=COLOUR_RGB('Opaque(64,64,64)',0.250980392156863,0.250980392156863,
0.250980392156863);
#1296=COLOUR_RGB('Opaque(246,246,243)',0.964705882352941,0.964705882352941,
0.952941176470588);
#1297=COLOUR_RGB('Opaque(145,102,87)',0.568627450980392,0.4,0.341176470588235);
#1298=COLOUR_RGB('Opaque(63,63,63)',0.250980392156863,0.250980392156863,
0.250980392156863);
#1299=COLOUR_RGB('Steel - Satin',0.627450980392157,0.627450980392157,0.627450980392157);
#1300=COLOUR_RGB('ABS (White) (1)',0.76078431372549,0.882352941176471,0.537254901960784);
#1301=COLOUR_RGB('ABS (White)',0.380392156862745,0.776470588235294,0.501960784313725);
#1302=COLOUR_RGB('ABS (White)',0.964705882352941,0.964705882352941,0.952941176470588);
ENDSEC;
END-ISO-10303-21;
