ISO-10303-21;
HEADER;
/* Generated by software containing ST-Developer
 * from STEP Tools, Inc. (www.steptools.com) 
 */

FILE_DESCRIPTION(
/* description */ (''),
/* implementation_level */ '2;1');

FILE_NAME(
/* name */ 'rod1.step',
/* time_stamp */ '2026-08-27T14:52:17+03:00',
/* author */ (''),
/* organization */ (''),
/* preprocessor_version */ 'ST-DEVELOPER v20.1',
/* originating_system */ 'Autodesk Translation Framework v15.8.0.0',
/* authorisation */ '');

FILE_SCHEMA (('AUTOMOTIVE_DESIGN { 1 0 10303 214 3 1 1 }'));
ENDSEC;

DATA;
#10=MECHANICAL_DESIGN_GEOMETRIC_PRESENTATION_REPRESENTATION('',(#13),#74);
#11=SHAPE_REPRESENTATION_RELATIONSHIP('SRR','None',#80,#12);
#12=ADVANCED_BREP_SHAPE_REPRESENTATION('',(#14),#73);
#13=STYLED_ITEM('',(#100),#14);
#14=MANIFOLD_SOLID_BREP('rod1',#42);
#15=PLANE('',#47);
#16=PLANE('',#48);
#17=FACE_OUTER_BOUND('',#20,.T.);
#18=FACE_OUTER_BOUND('',#21,.T.);
#19=FACE_OUTER_BOUND('',#22,.T.);
#20=EDGE_LOOP('',(#32,#33,#34,#35));
#21=EDGE_LOOP('',(#36));
#22=EDGE_LOOP('',(#37));
#23=LINE('',#67,#24);
#24=VECTOR('',#55,1.2);
#25=CIRCLE('',#45,1.2);
#26=CIRCLE('',#46,1.2);
#27=VERTEX_POINT('',#64);
#28=VERTEX_POINT('',#66);
#29=EDGE_CURVE('',#27,#27,#25,.T.);
#30=EDGE_CURVE('',#27,#28,#23,.T.);
#31=EDGE_CURVE('',#28,#28,#26,.T.);
#32=ORIENTED_EDGE('',*,*,#29,.F.);
#33=ORIENTED_EDGE('',*,*,#30,.T.);
#34=ORIENTED_EDGE('',*,*,#31,.T.);
#35=ORIENTED_EDGE('',*,*,#30,.F.);
#36=ORIENTED_EDGE('',*,*,#31,.F.);
#37=ORIENTED_EDGE('',*,*,#29,.T.);
#38=CYLINDRICAL_SURFACE('',#44,1.2);
#39=ADVANCED_FACE('',(#17),#38,.T.);
#40=ADVANCED_FACE('',(#18),#15,.T.);
#41=ADVANCED_FACE('',(#19),#16,.F.);
#42=CLOSED_SHELL('',(#39,#40,#41));
#43=AXIS2_PLACEMENT_3D('',#62,#49,#50);
#44=AXIS2_PLACEMENT_3D('',#63,#51,#52);
#45=AXIS2_PLACEMENT_3D('',#65,#53,#54);
#46=AXIS2_PLACEMENT_3D('',#68,#56,#57);
#47=AXIS2_PLACEMENT_3D('',#69,#58,#59);
#48=AXIS2_PLACEMENT_3D('',#70,#60,#61);
#49=DIRECTION('axis',(0.,0.,1.));
#50=DIRECTION('refdir',(1.,0.,0.));
#51=DIRECTION('center_axis',(0.,-1.,0.));
#52=DIRECTION('ref_axis',(1.,0.,0.));
#53=DIRECTION('center_axis',(0.,-1.,0.));
#54=DIRECTION('ref_axis',(1.,0.,0.));
#55=DIRECTION('',(0.,1.,0.));
#56=DIRECTION('center_axis',(0.,-1.,0.));
#57=DIRECTION('ref_axis',(1.,0.,0.));
#58=DIRECTION('center_axis',(0.,1.,0.));
#59=DIRECTION('ref_axis',(0.,0.,1.));
#60=DIRECTION('center_axis',(0.,1.,0.));
#61=DIRECTION('ref_axis',(0.,0.,1.));
#62=CARTESIAN_POINT('',(0.,0.,0.));
#63=CARTESIAN_POINT('Origin',(-2.5,171.7,40.));
#64=CARTESIAN_POINT('',(-3.7,102.241666666667,40.));
#65=CARTESIAN_POINT('Origin',(-2.5,102.241666666667,40.));
#66=CARTESIAN_POINT('',(-3.7,171.7,40.));
#67=CARTESIAN_POINT('',(-3.7,171.7,40.));
#68=CARTESIAN_POINT('Origin',(-2.5,171.7,40.));
#69=CARTESIAN_POINT('Origin',(-2.5,171.7,40.));
#70=CARTESIAN_POINT('Origin',(-2.5,102.241666666667,40.));
#71=UNCERTAINTY_MEASURE_WITH_UNIT(LENGTH_MEASURE(0.01),#75,
'DISTANCE_ACCURACY_VALUE',
'Maximum model space distance between geometric entities at asserted c
onnectivities');
#72=UNCERTAINTY_MEASURE_WITH_UNIT(LENGTH_MEASURE(0.01),#75,
'DISTANCE_ACCURACY_VALUE',
'Maximum model space distance between geometric entities at asserted c
onnectivities');
#73=(
GEOMETRIC_REPRESENTATION_CONTEXT(3)
GLOBAL_UNCERTAINTY_ASSIGNED_CONTEXT((#71))
GLOBAL_UNIT_ASSIGNED_CONTEXT((#75,#76,#77))
REPRESENTATION_CONTEXT('','3D')
);
#74=(
GEOMETRIC_REPRESENTATION_CONTEXT(3)
GLOBAL_UNCERTAINTY_ASSIGNED_CONTEXT((#72))
GLOBAL_UNIT_ASSIGNED_CONTEXT((#75,#76,#77))
REPRESENTATION_CONTEXT('','3D')
);
#75=(
LENGTH_UNIT()
NAMED_UNIT(*)
SI_UNIT(.MILLI.,.METRE.)
);
#76=(
NAMED_UNIT(*)
PLANE_ANGLE_UNIT()
SI_UNIT($,.RADIAN.)
);
#77=(
NAMED_UNIT(*)
SI_UNIT($,.STERADIAN.)
SOLID_ANGLE_UNIT()
);
#78=SHAPE_DEFINITION_REPRESENTATION(#79,#80);
#79=PRODUCT_DEFINITION_SHAPE('',$,#82);
#80=SHAPE_REPRESENTATION('',(#43),#73);
#81=PRODUCT_DEFINITION_CONTEXT('part definition',#86,'design');
#82=PRODUCT_DEFINITION('2026-08-08-16-07-59-361','Box v3',#83,#81);
#83=PRODUCT_DEFINITION_FORMATION('',$,#88);
#84=PRODUCT_RELATED_PRODUCT_CATEGORY('Box v3','Box v3',(#88));
#85=APPLICATION_PROTOCOL_DEFINITION('international standard',
'automotive_design',2009,#86);
#86=APPLICATION_CONTEXT(
'Core Data for Automotive Mechanical Design Process');
#87=PRODUCT_CONTEXT('part definition',#86,'mechanical');
#88=PRODUCT('2026-08-08-16-07-59-361','Box v3',$,(#87));
#89=PRESENTATION_STYLE_ASSIGNMENT((#102));
#90=PRESENTATION_STYLE_ASSIGNMENT((#103));
#91=PRESENTATION_STYLE_ASSIGNMENT((#104));
#92=PRESENTATION_STYLE_ASSIGNMENT((#105));
#93=PRESENTATION_STYLE_ASSIGNMENT((#106));
#94=PRESENTATION_STYLE_ASSIGNMENT((#107));
#95=PRESENTATION_STYLE_ASSIGNMENT((#108));
#96=PRESENTATION_STYLE_ASSIGNMENT((#109));
#97=PRESENTATION_STYLE_ASSIGNMENT((#110));
#98=PRESENTATION_STYLE_ASSIGNMENT((#111));
#99=PRESENTATION_STYLE_ASSIGNMENT((#112));
#100=PRESENTATION_STYLE_ASSIGNMENT((#113));
#101=PRESENTATION_STYLE_ASSIGNMENT((#114));
#102=SURFACE_STYLE_USAGE(.BOTH.,#115);
#103=SURFACE_STYLE_USAGE(.BOTH.,#116);
#104=SURFACE_STYLE_USAGE(.BOTH.,#117);
#105=SURFACE_STYLE_USAGE(.BOTH.,#118);
#106=SURFACE_STYLE_USAGE(.BOTH.,#119);
#107=SURFACE_STYLE_USAGE(.BOTH.,#120);
#108=SURFACE_STYLE_USAGE(.BOTH.,#121);
#109=SURFACE_STYLE_USAGE(.BOTH.,#122);
#110=SURFACE_STYLE_USAGE(.BOTH.,#123);
#111=SURFACE_STYLE_USAGE(.BOTH.,#124);
#112=SURFACE_STYLE_USAGE(.BOTH.,#125);
#113=SURFACE_STYLE_USAGE(.BOTH.,#126);
#114=SURFACE_STYLE_USAGE(.BOTH.,#127);
#115=SURFACE_SIDE_STYLE('',(#128));
#116=SURFACE_SIDE_STYLE('',(#129));
#117=SURFACE_SIDE_STYLE('',(#130));
#118=SURFACE_SIDE_STYLE('',(#131));
#119=SURFACE_SIDE_STYLE('',(#132));
#120=SURFACE_SIDE_STYLE('',(#133));
#121=SURFACE_SIDE_STYLE('',(#134));
#122=SURFACE_SIDE_STYLE('',(#135));
#123=SURFACE_SIDE_STYLE('',(#136));
#124=SURFACE_SIDE_STYLE('',(#137));
#125=SURFACE_SIDE_STYLE('',(#138));
#126=SURFACE_SIDE_STYLE('',(#139));
#127=SURFACE_SIDE_STYLE('',(#140));
#128=SURFACE_STYLE_FILL_AREA(#141);
#129=SURFACE_STYLE_FILL_AREA(#142);
#130=SURFACE_STYLE_FILL_AREA(#143);
#131=SURFACE_STYLE_FILL_AREA(#144);
#132=SURFACE_STYLE_FILL_AREA(#145);
#133=SURFACE_STYLE_FILL_AREA(#146);
#134=SURFACE_STYLE_FILL_AREA(#147);
#135=SURFACE_STYLE_FILL_AREA(#148);
#136=SURFACE_STYLE_FILL_AREA(#149);
#137=SURFACE_STYLE_FILL_AREA(#150);
#138=SURFACE_STYLE_FILL_AREA(#151);
#139=SURFACE_STYLE_FILL_AREA(#152);
#140=SURFACE_STYLE_FILL_AREA(#153);
#141=FILL_AREA_STYLE('Opaque(120,110,70)',(#154));
#142=FILL_AREA_STYLE('Opaque(255,191,0)',(#155));
#143=FILL_AREA_STYLE('Opaque(0,170,255)',(#156));
#144=FILL_AREA_STYLE('Opaque(25,25,25)',(#157));
#145=FILL_AREA_STYLE('Opaque(244,244,244)',(#158));
#146=FILL_AREA_STYLE('Opaque(64,64,64)',(#159));
#147=FILL_AREA_STYLE('Opaque(246,246,243)',(#160));
#148=FILL_AREA_STYLE('Opaque(145,102,87)',(#161));
#149=FILL_AREA_STYLE('Opaque(63,63,63)',(#162));
#150=FILL_AREA_STYLE('Steel - Satin',(#163));
#151=FILL_AREA_STYLE('ABS (White) (1)',(#164));
#152=FILL_AREA_STYLE('ABS (White)',(#165));
#153=FILL_AREA_STYLE('ABS (White)',(#166));
#154=FILL_AREA_STYLE_COLOUR('Opaque(120,110,70)',#167);
#155=FILL_AREA_STYLE_COLOUR('Opaque(255,191,0)',#168);
#156=FILL_AREA_STYLE_COLOUR('Opaque(0,170,255)',#169);
#157=FILL_AREA_STYLE_COLOUR('Opaque(25,25,25)',#170);
#158=FILL_AREA_STYLE_COLOUR('Opaque(244,244,244)',#171);
#159=FILL_AREA_STYLE_COLOUR('Opaque(64,64,64)',#172);
#160=FILL_AREA_STYLE_COLOUR('Opaque(246,246,243)',#173);
#161=FILL_AREA_STYLE_COLOUR('Opaque(145,102,87)',#174);
#162=FILL_AREA_STYLE_COLOUR('Opaque(63,63,63)',#175);
#163=FILL_AREA_STYLE_COLOUR('Steel - Satin',#176);
#164=FILL_AREA_STYLE_COLOUR('ABS (White) (1)',#177);
#165=FILL_AREA_STYLE_COLOUR('ABS (White)',#178);
#166=FILL_AREA_STYLE_COLOUR('ABS (White)',#179);
#167=COLOUR_RGB('Opaque(120,110,70)',0.470588235294118,0.431372549019608,
0.274509803921569);
#168=COLOUR_RGB('Opaque(255,191,0)',1.,0.749019607843137,0.);
#169=COLOUR_RGB('Opaque(0,170,255)',0.,0.666666666666667,1.);
#170=COLOUR_RGB('Opaque(25,25,25)',0.0980392156862745,0.0980392156862745,
0.0980392156862745);
#171=COLOUR_RGB('Opaque(244,244,244)',0.956862745098039,0.956862745098039,
0.956862745098039);
#172=COLOUR_RGB('Opaque(64,64,64)',0.250980392156863,0.250980392156863,
0.250980392156863);
#173=COLOUR_RGB('Opaque(246,246,243)',0.964705882352941,0.964705882352941,
0.952941176470588);
#174=COLOUR_RGB('Opaque(145,102,87)',0.568627450980392,0.4,0.341176470588235);
#175=COLOUR_RGB('Opaque(63,63,63)',0.250980392156863,0.250980392156863,
0.250980392156863);
#176=COLOUR_RGB('Steel - Satin',0.627450980392157,0.627450980392157,0.627450980392157);
#177=COLOUR_RGB('ABS (White) (1)',0.76078431372549,0.882352941176471,0.537254901960784);
#178=COLOUR_RGB('ABS (White)',0.380392156862745,0.776470588235294,0.501960784313725);
#179=COLOUR_RGB('ABS (White)',0.964705882352941,0.964705882352941,0.952941176470588);
ENDSEC;
END-ISO-10303-21;
